<?xml version="1.0" encoding="UTF-8" standalone="no"?>
<!DOCTYPE svg PUBLIC "-//W3C//DTD SVG 1.1//EN"
 "http://www.w3.org/Graphics/SVG/1.1/DTD/svg11.dtd">
<!-- Generated by graphviz version 2.28.0 (20110509.1545)
 -->
<!-- Title: G Pages: 1 -->
<svg width="796pt" height="656pt"
 viewBox="0.00 0.00 796.00 656.00" xmlns="http://www.w3.org/2000/svg" xmlns:xlink="http://www.w3.org/1999/xlink">
<g id="graph1" class="graph" transform="scale(1 1) rotate(0) translate(4 652)">
<title>G</title>
<polygon fill="white" stroke="white" points="-4,5 -4,-652 793,-652 793,5 -4,5"/>
<g id="graph2" class="cluster"><title>cluster_Yetti</title>
<polyline fill="none" stroke="gray" points="20,-44 768,-44 "/>
<path fill="none" stroke="gray" d="M768,-44C774,-44 780,-50 780,-56"/>
<polyline fill="none" stroke="gray" points="780,-56 780,-628 "/>
<path fill="none" stroke="gray" d="M780,-628C780,-634 774,-640 768,-640"/>
<polyline fill="none" stroke="gray" points="768,-640 20,-640 "/>
<path fill="none" stroke="gray" d="M20,-640C14,-640 8,-634 8,-628"/>
<polyline fill="none" stroke="gray" points="8,-628 8,-56 "/>
<path fill="none" stroke="gray" d="M8,-56C8,-50 14,-44 20,-44"/>
<text text-anchor="middle" x="394" y="-625" font-family="Times,serif" font-size="11.00" fill="gray">Yetti</text>
</g>
<g id="graph3" class="cluster"><title>cluster_Yetti\API</title>
<polyline fill="none" stroke="gray" points="28,-52 760,-52 "/>
<path fill="none" stroke="gray" d="M760,-52C766,-52 772,-58 772,-64"/>
<polyline fill="none" stroke="gray" points="772,-64 772,-599 "/>
<path fill="none" stroke="gray" d="M772,-599C772,-605 766,-611 760,-611"/>
<polyline fill="none" stroke="gray" points="760,-611 28,-611 "/>
<path fill="none" stroke="gray" d="M28,-611C22,-611 16,-605 16,-599"/>
<polyline fill="none" stroke="gray" points="16,-599 16,-64 "/>
<path fill="none" stroke="gray" d="M16,-64C16,-58 22,-52 28,-52"/>
<text text-anchor="middle" x="394" y="-596" font-family="Times,serif" font-size="11.00" fill="gray">API</text>
</g>
<!-- \\Yetti\\API\\BaseAbstract -->
<g id="node3" class="node"><title>\\Yetti\\API\\BaseAbstract</title>
<a xlink:href="BaseAbstract.inc.html" xlink:title="BaseAbstract" target="_parent">
<polygon fill="none" stroke="black" points="119.713,-366 24.2869,-366 24.2869,-330 119.713,-330 119.713,-366"/>
<text text-anchor="middle" x="72" y="-343.6" font-family="Courier,monospace" font-size="11.00">BaseAbstract</text>
</a>
</g>
<!-- \\Yetti\\API\\Collection_List -->
<g id="node4" class="node"><title>\\Yetti\\API\\Collection_List</title>
<a xlink:href="Collection.List.inc.html" xlink:title="Collection_List" target="_parent">
<polygon fill="none" stroke="black" points="763.516,-366 648.484,-366 648.484,-330 763.516,-330 763.516,-366"/>
<text text-anchor="middle" x="706" y="-343.6" font-family="Courier,monospace" font-size="11.00">Collection_List</text>
</a>
</g>
<!-- \\Yetti\\API\\Resource_ListAbstract -->
<g id="node23" class="node"><title>\\Yetti\\API\\Resource_ListAbstract</title>
<a xlink:href="Resource.ListAbstract.inc.html" xlink:title="Resource_ListAbstract" target="_parent">
<polygon fill="none" stroke="black" points="575.123,-258 420.877,-258 420.877,-222 575.123,-222 575.123,-258"/>
<text text-anchor="middle" x="498" y="-235.6" font-family="Courier,monospace" font-size="11.00">Resource_ListAbstract</text>
</a>
</g>
<!-- \\Yetti\\API\\Collection_List&#45;&gt;\\Yetti\\API\\Resource_ListAbstract -->
<g id="edge4" class="edge"><title>\\Yetti\\API\\Collection_List&#45;&gt;\\Yetti\\API\\Resource_ListAbstract</title>
<path fill="none" stroke="black" d="M664.299,-329.958C658.728,-327.132 653.156,-324.112 648,-321 613.752,-300.334 611.286,-285.838 576,-267 572.907,-265.349 569.692,-263.764 566.409,-262.25"/>
<polygon fill="none" stroke="black" points="567.581,-258.943 557.014,-258.166 564.79,-265.362 567.581,-258.943"/>
</g>
<!-- \\Yetti\\API\\Collection -->
<g id="node5" class="node"><title>\\Yetti\\API\\Collection</title>
<a xlink:href="Collection.inc.html" xlink:title="Collection" target="_parent">
<polygon fill="none" stroke="black" points="539.011,-528 456.989,-528 456.989,-492 539.011,-492 539.011,-528"/>
<text text-anchor="middle" x="498" y="-505.6" font-family="Courier,monospace" font-size="11.00">Collection</text>
</a>
</g>
<!-- \\Yetti\\API\\Resource_BaseAbstract -->
<g id="node22" class="node"><title>\\Yetti\\API\\Resource_BaseAbstract</title>
<a xlink:href="Resource.BaseAbstract.inc.html" xlink:title="Resource_BaseAbstract" target="_parent">
<polygon fill="none" stroke="black" points="347.123,-204 192.877,-204 192.877,-168 347.123,-168 347.123,-204"/>
<text text-anchor="middle" x="270" y="-181.6" font-family="Courier,monospace" font-size="11.00">Resource_BaseAbstract</text>
</a>
</g>
<!-- \\Yetti\\API\\Collection&#45;&gt;\\Yetti\\API\\Resource_BaseAbstract -->
<g id="edge6" class="edge"><title>\\Yetti\\API\\Collection&#45;&gt;\\Yetti\\API\\Resource_BaseAbstract</title>
<path fill="none" stroke="black" d="M456.792,-503.719C443.481,-499.787 429.626,-493.393 420,-483 335.611,-391.882 432.389,-304.118 348,-213 347.23,-212.169 346.433,-211.363 345.611,-210.582"/>
<polygon fill="none" stroke="black" points="347.616,-207.703 337.616,-204.201 343.249,-213.174 347.616,-207.703"/>
</g>
<!-- \\Yetti\\API\\Exception_Auth -->
<g id="node6" class="node"><title>\\Yetti\\API\\Exception_Auth</title>
<a xlink:href="Exception.Auth.inc.html" xlink:title="Exception_Auth" target="_parent">
<polygon fill="none" stroke="black" points="760.416,-150 651.584,-150 651.584,-114 760.416,-114 760.416,-150"/>
<text text-anchor="middle" x="706" y="-127.6" font-family="Courier,monospace" font-size="11.00">Exception_Auth</text>
</a>
</g>
<!-- \\Yetti\\API\\Exception -->
<g id="node7" class="node"><title>\\Yetti\\API\\Exception</title>
<a xlink:href="Exception.inc.html" xlink:title="Exception" target="_parent">
<polygon fill="none" stroke="black" points="535.911,-96 460.089,-96 460.089,-60 535.911,-60 535.911,-96"/>
<text text-anchor="middle" x="498" y="-73.6" font-family="Courier,monospace" font-size="11.00">Exception</text>
</a>
</g>
<!-- \\Yetti\\API\\Exception_Auth&#45;&gt;\\Yetti\\API\\Exception -->
<g id="edge8" class="edge"><title>\\Yetti\\API\\Exception_Auth&#45;&gt;\\Yetti\\API\\Exception</title>
<path fill="none" stroke="black" d="M651.682,-118.023C618.873,-109.423 577.22,-98.5042 545.711,-90.2445"/>
<polygon fill="none" stroke="black" points="546.421,-86.8127 535.861,-87.6625 544.646,-93.5839 546.421,-86.8127"/>
</g>
<!-- \\Exception -->
<g id="node33" class="node"><title>\\Exception</title>
<ellipse fill="none" stroke="black" cx="270" cy="-18" rx="52.7417" ry="18"/>
<text text-anchor="middle" x="270" y="-12.4" font-family="Times,serif" font-size="14.00" fill="gray">\Exception</text>
</g>
<!-- \\Yetti\\API\\Exception&#45;&gt;\\Exception -->
<g id="edge10" class="edge"><title>\\Yetti\\API\\Exception&#45;&gt;\\Exception</title>
<path fill="none" stroke="black" d="M460.186,-68.2264C422.669,-58.266 364.179,-42.7377 322.166,-31.5838"/>
<polygon fill="none" stroke="black" points="322.962,-28.174 312.398,-28.9907 321.166,-34.9396 322.962,-28.174"/>
</g>
<!-- \\Yetti\\API\\Item_Collections -->
<g id="node8" class="node"><title>\\Yetti\\API\\Item_Collections</title>
<a xlink:href="Item.Collections.inc.html" xlink:title="Item_Collections" target="_parent">
<polygon fill="none" stroke="black" points="330.618,-582 209.382,-582 209.382,-546 330.618,-546 330.618,-582"/>
<text text-anchor="middle" x="270" y="-559.6" font-family="Courier,monospace" font-size="11.00">Item_Collections</text>
</a>
</g>
<!-- \\Yetti\\API\\Item_Collections&#45;&gt;\\Yetti\\API\\BaseAbstract -->
<g id="edge12" class="edge"><title>\\Yetti\\API\\Item_Collections&#45;&gt;\\Yetti\\API\\BaseAbstract</title>
<path fill="none" stroke="black" d="M209.243,-547.695C203.096,-544.687 197.206,-541.151 192,-537 136.962,-493.121 100.142,-416.436 83.3786,-375.535"/>
<polygon fill="none" stroke="black" points="86.6035,-374.173 79.642,-366.186 80.1034,-376.771 86.6035,-374.173"/>
</g>
<!-- \\Yetti\\API\\Item_Filter_List -->
<g id="node9" class="node"><title>\\Yetti\\API\\Item_Filter_List</title>
<a xlink:href="Item.Filter.List.inc.html" xlink:title="Item_Filter_List" target="_parent">
<polygon fill="none" stroke="black" points="558.618,-204 437.382,-204 437.382,-168 558.618,-168 558.618,-204"/>
<text text-anchor="middle" x="498" y="-181.6" font-family="Courier,monospace" font-size="11.00">Item_Filter_List</text>
</a>
</g>
<!-- \\Yetti\\API\\ListAbstract -->
<g id="node19" class="node"><title>\\Yetti\\API\\ListAbstract</title>
<a xlink:href="ListAbstract.inc.html" xlink:title="ListAbstract" target="_parent">
<polygon fill="none" stroke="black" points="317.713,-150 222.287,-150 222.287,-114 317.713,-114 317.713,-150"/>
<text text-anchor="middle" x="270" y="-127.6" font-family="Courier,monospace" font-size="11.00">ListAbstract</text>
</a>
</g>
<!-- \\Yetti\\API\\Item_Filter_List&#45;&gt;\\Yetti\\API\\ListAbstract -->
<g id="edge14" class="edge"><title>\\Yetti\\API\\Item_Filter_List&#45;&gt;\\Yetti\\API\\ListAbstract</title>
<path fill="none" stroke="black" d="M437.326,-171.742C403.43,-163.643 361.229,-153.559 327.817,-145.576"/>
<polygon fill="none" stroke="black" points="328.289,-142.09 317.749,-143.17 326.662,-148.898 328.289,-142.09"/>
</g>
<!-- \\Yetti\\API\\Item_Filter_Type_List -->
<g id="node10" class="node"><title>\\Yetti\\API\\Item_Filter_Type_List</title>
<a xlink:href="Item.Filter.Type.List.inc.html" xlink:title="Item_Filter_Type_List" target="_parent">
<polygon fill="none" stroke="black" points="575.123,-150 420.877,-150 420.877,-114 575.123,-114 575.123,-150"/>
<text text-anchor="middle" x="498" y="-127.6" font-family="Courier,monospace" font-size="11.00">Item_Filter_Type_List</text>
</a>
</g>
<!-- \\Yetti\\API\\Item_Filter_Type_List&#45;&gt;\\Yetti\\API\\ListAbstract -->
<g id="edge16" class="edge"><title>\\Yetti\\API\\Item_Filter_Type_List&#45;&gt;\\Yetti\\API\\ListAbstract</title>
<path fill="none" stroke="black" d="M420.802,-132C390.443,-132 356.107,-132 327.973,-132"/>
<polygon fill="none" stroke="black" points="327.908,-128.5 317.908,-132 327.908,-135.5 327.908,-128.5"/>
</g>
<!-- \\Yetti\\API\\Item_Filter_Type -->
<g id="node11" class="node"><title>\\Yetti\\API\\Item_Filter_Type</title>
<a xlink:href="Item.Filter.Type.inc.html" xlink:title="Item_Filter_Type" target="_parent">
<polygon fill="none" stroke="black" points="330.618,-528 209.382,-528 209.382,-492 330.618,-492 330.618,-528"/>
<text text-anchor="middle" x="270" y="-505.6" font-family="Courier,monospace" font-size="11.00">Item_Filter_Type</text>
</a>
</g>
<!-- \\Yetti\\API\\Item_Filter_Type&#45;&gt;\\Yetti\\API\\BaseAbstract -->
<g id="edge18" class="edge"><title>\\Yetti\\API\\Item_Filter_Type&#45;&gt;\\Yetti\\API\\BaseAbstract</title>
<path fill="none" stroke="black" d="M209.076,-492.468C203.095,-489.705 197.287,-486.561 192,-483 148.604,-453.769 111.06,-405.01 90.2822,-374.781"/>
<polygon fill="none" stroke="black" points="93.1257,-372.738 84.6298,-366.408 87.3238,-376.655 93.1257,-372.738"/>
</g>
<!-- \\Yetti\\API\\Item_Filter -->
<g id="node12" class="node"><title>\\Yetti\\API\\Item_Filter</title>
<a xlink:href="Item.Filter.inc.html" xlink:title="Item_Filter" target="_parent">
<polygon fill="none" stroke="black" points="314.113,-474 225.887,-474 225.887,-438 314.113,-438 314.113,-474"/>
<text text-anchor="middle" x="270" y="-451.6" font-family="Courier,monospace" font-size="11.00">Item_Filter</text>
</a>
</g>
<!-- \\Yetti\\API\\Item_Filter&#45;&gt;\\Yetti\\API\\BaseAbstract -->
<g id="edge20" class="edge"><title>\\Yetti\\API\\Item_Filter&#45;&gt;\\Yetti\\API\\BaseAbstract</title>
<path fill="none" stroke="black" d="M225.816,-443.075C214.565,-439.112 202.623,-434.362 192,-429 160.207,-412.953 126.937,-389.673 103.685,-372.184"/>
<polygon fill="none" stroke="black" points="105.67,-369.297 95.5927,-366.027 101.432,-374.868 105.67,-369.297"/>
</g>
<!-- \\Yetti\\API\\Item_List -->
<g id="node13" class="node"><title>\\Yetti\\API\\Item_List</title>
<a xlink:href="Item.List.inc.html" xlink:title="Item_List" target="_parent">
<polygon fill="none" stroke="black" points="743.911,-312 668.089,-312 668.089,-276 743.911,-276 743.911,-312"/>
<text text-anchor="middle" x="706" y="-289.6" font-family="Courier,monospace" font-size="11.00">Item_List</text>
</a>
</g>
<!-- \\Yetti\\API\\Item_List&#45;&gt;\\Yetti\\API\\Resource_ListAbstract -->
<g id="edge22" class="edge"><title>\\Yetti\\API\\Item_List&#45;&gt;\\Yetti\\API\\Resource_ListAbstract</title>
<path fill="none" stroke="black" d="M668.171,-284.346C643.109,-277.776 608.982,-268.83 577.943,-260.694"/>
<polygon fill="none" stroke="black" points="578.55,-257.235 567.989,-258.084 576.775,-264.006 578.55,-257.235"/>
</g>
<!-- \\Yetti\\API\\Item_Type_List -->
<g id="node14" class="node"><title>\\Yetti\\API\\Item_Type_List</title>
<a xlink:href="Item.Type.List.inc.html" xlink:title="Item_Type_List" target="_parent">
<polygon fill="none" stroke="black" points="552.416,-420 443.584,-420 443.584,-384 552.416,-384 552.416,-420"/>
<text text-anchor="middle" x="498" y="-397.6" font-family="Courier,monospace" font-size="11.00">Item_Type_List</text>
</a>
</g>
<!-- \\Yetti\\API\\Item_Type_List&#45;&gt;\\Yetti\\API\\ListAbstract -->
<g id="edge24" class="edge"><title>\\Yetti\\API\\Item_Type_List&#45;&gt;\\Yetti\\API\\ListAbstract</title>
<path fill="none" stroke="black" d="M443.555,-390.468C434.855,-386.684 426.56,-381.662 420,-375 349.003,-302.893 418.997,-231.107 348,-159 342.071,-152.978 334.724,-148.297 326.941,-144.658"/>
<polygon fill="none" stroke="black" points="328.244,-141.409 317.664,-140.847 325.585,-147.884 328.244,-141.409"/>
</g>
<!-- \\Yetti\\API\\Item_Type -->
<g id="node15" class="node"><title>\\Yetti\\API\\Item_Type</title>
<a xlink:href="Item.Type.inc.html" xlink:title="Item_Type" target="_parent">
<polygon fill="none" stroke="black" points="307.911,-420 232.089,-420 232.089,-384 307.911,-384 307.911,-420"/>
<text text-anchor="middle" x="270" y="-397.6" font-family="Courier,monospace" font-size="11.00">Item_Type</text>
</a>
</g>
<!-- \\Yetti\\API\\Item_Type&#45;&gt;\\Yetti\\API\\BaseAbstract -->
<g id="edge26" class="edge"><title>\\Yetti\\API\\Item_Type&#45;&gt;\\Yetti\\API\\BaseAbstract</title>
<path fill="none" stroke="black" d="M232.134,-391.843C203.292,-383.897 162.687,-372.71 129.713,-363.625"/>
<polygon fill="none" stroke="black" points="130.317,-360.161 119.746,-360.879 128.458,-366.91 130.317,-360.161"/>
</g>
<!-- \\Yetti\\API\\Item -->
<g id="node16" class="node"><title>\\Yetti\\API\\Item</title>
<a xlink:href="Item.inc.html" xlink:title="Item" target="_parent">
<polygon fill="none" stroke="black" points="525,-474 471,-474 471,-438 525,-438 525,-474"/>
<text text-anchor="middle" x="498" y="-451.6" font-family="Courier,monospace" font-size="11.00">Item</text>
</a>
</g>
<!-- \\Yetti\\API\\Item&#45;&gt;\\Yetti\\API\\Resource_BaseAbstract -->
<g id="edge28" class="edge"><title>\\Yetti\\API\\Item&#45;&gt;\\Yetti\\API\\Resource_BaseAbstract</title>
<path fill="none" stroke="black" d="M470.648,-452.739C454.097,-449.39 433.418,-442.627 420,-429 349.003,-356.893 418.997,-285.107 348,-213 347.078,-212.063 346.121,-211.159 345.133,-210.286"/>
<polygon fill="none" stroke="black" points="347.121,-207.401 337.025,-204.187 342.913,-212.995 347.121,-207.401"/>
</g>
<!-- \\Yetti\\API\\Language_List -->
<g id="node17" class="node"><title>\\Yetti\\API\\Language_List</title>
<a xlink:href="Language.List.inc.html" xlink:title="Language_List" target="_parent">
<polygon fill="none" stroke="black" points="548.814,-366 447.186,-366 447.186,-330 548.814,-330 548.814,-366"/>
<text text-anchor="middle" x="498" y="-343.6" font-family="Courier,monospace" font-size="11.00">Language_List</text>
</a>
</g>
<!-- \\Yetti\\API\\Language_List&#45;&gt;\\Yetti\\API\\ListAbstract -->
<g id="edge30" class="edge"><title>\\Yetti\\API\\Language_List&#45;&gt;\\Yetti\\API\\ListAbstract</title>
<path fill="none" stroke="black" d="M446.867,-337.081C437.13,-333.218 427.602,-328.01 420,-321 362.077,-267.587 405.923,-212.413 348,-159 342.069,-153.531 334.966,-149.158 327.505,-145.666"/>
<polygon fill="none" stroke="black" points="328.505,-142.291 317.926,-141.696 325.825,-148.758 328.505,-142.291"/>
</g>
<!-- \\Yetti\\API\\Language -->
<g id="node18" class="node"><title>\\Yetti\\API\\Language</title>
<a xlink:href="Language.inc.html" xlink:title="Language" target="_parent">
<polygon fill="none" stroke="black" points="304.309,-366 235.691,-366 235.691,-330 304.309,-330 304.309,-366"/>
<text text-anchor="middle" x="270" y="-343.6" font-family="Courier,monospace" font-size="11.00">Language</text>
</a>
</g>
<!-- \\Yetti\\API\\Language&#45;&gt;\\Yetti\\API\\BaseAbstract -->
<g id="edge32" class="edge"><title>\\Yetti\\API\\Language&#45;&gt;\\Yetti\\API\\BaseAbstract</title>
<path fill="none" stroke="black" d="M235.306,-348C206.442,-348 164.252,-348 130.121,-348"/>
<polygon fill="none" stroke="black" points="129.812,-344.5 119.812,-348 129.812,-351.5 129.812,-344.5"/>
</g>
<!-- \\Yetti\\API\\ListAbstract&#45;&gt;\\Yetti\\API\\BaseAbstract -->
<g id="edge34" class="edge"><title>\\Yetti\\API\\ListAbstract&#45;&gt;\\Yetti\\API\\BaseAbstract</title>
<path fill="none" stroke="black" d="M222.022,-142.868C211.433,-146.782 200.751,-152.024 192,-159 136.962,-202.879 100.142,-279.564 83.3786,-320.465"/>
<polygon fill="none" stroke="black" points="80.1034,-319.229 79.642,-329.814 86.6035,-321.827 80.1034,-319.229"/>
</g>
<!-- \\Yetti\\API\\Resource_Asset_Group -->
<g id="node20" class="node"><title>\\Yetti\\API\\Resource_Asset_Group</title>
<a xlink:href="Resource.Asset.Group.inc.html" xlink:title="Resource_Asset_Group" target="_parent">
<polygon fill="none" stroke="black" points="572.021,-312 423.979,-312 423.979,-276 572.021,-276 572.021,-312"/>
<text text-anchor="middle" x="498" y="-289.6" font-family="Courier,monospace" font-size="11.00">Resource_Asset_Group</text>
</a>
</g>
<!-- \\Yetti\\API\\Resource_Asset_Group&#45;&gt;\\Yetti\\API\\ListAbstract -->
<g id="edge36" class="edge"><title>\\Yetti\\API\\Resource_Asset_Group&#45;&gt;\\Yetti\\API\\ListAbstract</title>
<path fill="none" stroke="black" d="M434.225,-275.991C429.186,-273.369 424.364,-270.387 420,-267 374.427,-231.629 393.573,-194.371 348,-159 341.784,-154.175 334.64,-150.173 327.264,-146.864"/>
<polygon fill="none" stroke="black" points="328.43,-143.56 317.849,-143.033 325.792,-150.044 328.43,-143.56"/>
</g>
<!-- \\Yetti\\API\\Resource_Asset -->
<g id="node21" class="node"><title>\\Yetti\\API\\Resource_Asset</title>
<a xlink:href="Resource.Asset.inc.html" xlink:title="Resource_Asset" target="_parent">
<polygon fill="none" stroke="black" points="324.416,-312 215.584,-312 215.584,-276 324.416,-276 324.416,-312"/>
<text text-anchor="middle" x="270" y="-289.6" font-family="Courier,monospace" font-size="11.00">Resource_Asset</text>
</a>
</g>
<!-- \\Yetti\\API\\Resource_Asset&#45;&gt;\\Yetti\\API\\BaseAbstract -->
<g id="edge38" class="edge"><title>\\Yetti\\API\\Resource_Asset&#45;&gt;\\Yetti\\API\\BaseAbstract</title>
<path fill="none" stroke="black" d="M215.701,-308.684C188.947,-316.056 156.535,-324.985 129.368,-332.47"/>
<polygon fill="none" stroke="black" points="128.327,-329.126 119.616,-335.157 130.186,-335.875 128.327,-329.126"/>
</g>
<!-- \\Yetti\\API\\Resource_BaseAbstract&#45;&gt;\\Yetti\\API\\BaseAbstract -->
<g id="edge40" class="edge"><title>\\Yetti\\API\\Resource_BaseAbstract&#45;&gt;\\Yetti\\API\\BaseAbstract</title>
<path fill="none" stroke="black" d="M207.883,-204.09C202.323,-206.716 196.935,-209.676 192,-213 148.604,-242.231 111.06,-290.99 90.2822,-321.219"/>
<polygon fill="none" stroke="black" points="87.3238,-319.345 84.6298,-329.592 93.1257,-323.262 87.3238,-319.345"/>
</g>
<!-- \\Yetti\\API\\Resource_ListAbstract&#45;&gt;\\Yetti\\API\\ListAbstract -->
<g id="edge42" class="edge"><title>\\Yetti\\API\\Resource_ListAbstract&#45;&gt;\\Yetti\\API\\ListAbstract</title>
<path fill="none" stroke="black" d="M438.986,-221.834C432.454,-219.153 425.998,-216.202 420,-213 384.714,-194.162 383.286,-177.838 348,-159 341.556,-155.56 334.585,-152.41 327.559,-149.574"/>
<polygon fill="none" stroke="black" points="328.58,-146.217 317.99,-145.902 326.072,-152.752 328.58,-146.217"/>
</g>
<!-- \\Yetti\\API\\Resource_Property -->
<g id="node24" class="node"><title>\\Yetti\\API\\Resource_Property</title>
<a xlink:href="Resource.Property.inc.html" xlink:title="Resource_Property" target="_parent">
<polygon fill="none" stroke="black" points="334.218,-258 205.782,-258 205.782,-222 334.218,-222 334.218,-258"/>
<text text-anchor="middle" x="270" y="-235.6" font-family="Courier,monospace" font-size="11.00">Resource_Property</text>
</a>
</g>
<!-- \\Yetti\\API\\Resource_Property&#45;&gt;\\Yetti\\API\\BaseAbstract -->
<g id="edge44" class="edge"><title>\\Yetti\\API\\Resource_Property&#45;&gt;\\Yetti\\API\\BaseAbstract</title>
<path fill="none" stroke="black" d="M211.948,-258.112C205.114,-260.833 198.323,-263.808 192,-267 160.207,-283.047 126.937,-306.327 103.685,-323.816"/>
<polygon fill="none" stroke="black" points="101.432,-321.132 95.5927,-329.973 105.67,-326.703 101.432,-321.132"/>
</g>
<!-- \\Yetti\\API\\Result -->
<g id="node25" class="node"><title>\\Yetti\\API\\Result</title>
<a xlink:href="Result.inc.html" xlink:title="Result" target="_parent">
<polygon fill="none" stroke="black" points="733.608,-204 678.392,-204 678.392,-168 733.608,-168 733.608,-204"/>
<text text-anchor="middle" x="706" y="-181.6" font-family="Courier,monospace" font-size="11.00">Result</text>
</a>
</g>
<!-- \\Yetti\\API\\User_List -->
<g id="node26" class="node"><title>\\Yetti\\API\\User_List</title>
<a xlink:href="User.List.inc.html" xlink:title="User_List" target="_parent">
<polygon fill="none" stroke="black" points="743.911,-258 668.089,-258 668.089,-222 743.911,-222 743.911,-258"/>
<text text-anchor="middle" x="706" y="-235.6" font-family="Courier,monospace" font-size="11.00">User_List</text>
</a>
</g>
<!-- \\Yetti\\API\\User_List&#45;&gt;\\Yetti\\API\\Resource_ListAbstract -->
<g id="edge46" class="edge"><title>\\Yetti\\API\\User_List&#45;&gt;\\Yetti\\API\\Resource_ListAbstract</title>
<path fill="none" stroke="black" d="M668.171,-240C645.086,-240 614.309,-240 585.339,-240"/>
<polygon fill="none" stroke="black" points="585.183,-236.5 575.183,-240 585.183,-243.5 585.183,-236.5"/>
</g>
<!-- \\Yetti\\API\\User -->
<g id="node27" class="node"><title>\\Yetti\\API\\User</title>
<a xlink:href="User.inc.html" xlink:title="User" target="_parent">
<polygon fill="none" stroke="black" points="525,-582 471,-582 471,-546 525,-546 525,-582"/>
<text text-anchor="middle" x="498" y="-559.6" font-family="Courier,monospace" font-size="11.00">User</text>
</a>
</g>
<!-- \\Yetti\\API\\User&#45;&gt;\\Yetti\\API\\Resource_BaseAbstract -->
<g id="edge48" class="edge"><title>\\Yetti\\API\\User&#45;&gt;\\Yetti\\API\\Resource_BaseAbstract</title>
<path fill="none" stroke="black" d="M470.907,-561.329C454.032,-558.224 432.886,-551.512 420,-537 322.057,-426.695 445.943,-323.305 348,-213 347.248,-212.153 346.467,-211.332 345.661,-210.537"/>
<polygon fill="none" stroke="black" points="347.725,-207.703 337.778,-204.054 343.279,-213.109 347.725,-207.703"/>
</g>
<!-- \\Yetti\\API\\Webservice -->
<g id="node28" class="node"><title>\\Yetti\\API\\Webservice</title>
<a xlink:href="Webservice.inc.html" xlink:title="Webservice" target="_parent">
<polygon fill="none" stroke="black" points="747.011,-96 664.989,-96 664.989,-60 747.011,-60 747.011,-96"/>
<text text-anchor="middle" x="706" y="-73.6" font-family="Courier,monospace" font-size="11.00">Webservice</text>
</a>
</g>
</g>
</svg>
