<?xml version="1.0" encoding="UTF-8" standalone="no"?>
<!DOCTYPE svg PUBLIC "-//W3C//DTD SVG 1.1//EN"
 "http://www.w3.org/Graphics/SVG/1.1/DTD/svg11.dtd">
<!-- Generated by graphviz version 2.28.0 (20110509.1545)
 -->
<!-- Title: G Pages: 1 -->
<svg width="890pt" height="1287pt"
 viewBox="0.00 0.00 890.00 1287.00" xmlns="http://www.w3.org/2000/svg" xmlns:xlink="http://www.w3.org/1999/xlink">
<g id="graph1" class="graph" transform="scale(1 1) rotate(0) translate(4 1283)">
<title>G</title>
<polygon fill="white" stroke="white" points="-4,5 -4,-1283 887,-1283 887,5 -4,5"/>
<g id="graph2" class="cluster"><title>cluster_Global</title>
<polyline fill="none" stroke="gray" points="20,-152 862,-152 "/>
<path fill="none" stroke="gray" d="M862,-152C868,-152 874,-158 874,-164"/>
<polyline fill="none" stroke="gray" points="874,-164 874,-1259 "/>
<path fill="none" stroke="gray" d="M874,-1259C874,-1265 868,-1271 862,-1271"/>
<polyline fill="none" stroke="gray" points="862,-1271 20,-1271 "/>
<path fill="none" stroke="gray" d="M20,-1271C14,-1271 8,-1265 8,-1259"/>
<polyline fill="none" stroke="gray" points="8,-1259 8,-164 "/>
<path fill="none" stroke="gray" d="M8,-164C8,-158 14,-152 20,-152"/>
<text text-anchor="middle" x="441" y="-1256" font-family="Times,serif" font-size="11.00" fill="gray">\</text>
</g>
<g id="graph3" class="cluster"><title>cluster_\Yetti</title>
<polyline fill="none" stroke="gray" points="28,-160 854,-160 "/>
<path fill="none" stroke="gray" d="M854,-160C860,-160 866,-166 866,-172"/>
<polyline fill="none" stroke="gray" points="866,-172 866,-1230 "/>
<path fill="none" stroke="gray" d="M866,-1230C866,-1236 860,-1242 854,-1242"/>
<polyline fill="none" stroke="gray" points="854,-1242 28,-1242 "/>
<path fill="none" stroke="gray" d="M28,-1242C22,-1242 16,-1236 16,-1230"/>
<polyline fill="none" stroke="gray" points="16,-1230 16,-172 "/>
<path fill="none" stroke="gray" d="M16,-172C16,-166 22,-160 28,-160"/>
<text text-anchor="middle" x="441" y="-1227" font-family="Times,serif" font-size="11.00" fill="gray">Yetti</text>
</g>
<g id="graph4" class="cluster"><title>cluster_\Yetti\API</title>
<polyline fill="none" stroke="gray" points="36,-168 846,-168 "/>
<path fill="none" stroke="gray" d="M846,-168C852,-168 858,-174 858,-180"/>
<polyline fill="none" stroke="gray" points="858,-180 858,-1201 "/>
<path fill="none" stroke="gray" d="M858,-1201C858,-1207 852,-1213 846,-1213"/>
<polyline fill="none" stroke="gray" points="846,-1213 36,-1213 "/>
<path fill="none" stroke="gray" d="M36,-1213C30,-1213 24,-1207 24,-1201"/>
<polyline fill="none" stroke="gray" points="24,-1201 24,-180 "/>
<path fill="none" stroke="gray" d="M24,-180C24,-174 30,-168 36,-168"/>
<text text-anchor="middle" x="441" y="-1198" font-family="Times,serif" font-size="11.00" fill="gray">API</text>
</g>
<!-- \\Yetti\\API\\Auth_Details -->
<g id="node4" class="node"><title>\\Yetti\\API\\Auth_Details</title>
<polygon fill="none" stroke="black" points="325.713,-1184 230.287,-1184 230.287,-1148 325.713,-1148 325.713,-1184"/>
<text text-anchor="middle" x="278" y="-1161.6" font-family="Courier,monospace" font-size="11.00">Auth_Details</text>
</g>
<!-- \\Yetti\\API\\BaseAbstract -->
<g id="node6" class="node"><title>\\Yetti\\API\\BaseAbstract</title>
<polygon fill="none" stroke="black" points="128,-698 32,-698 32,-662 128,-662 128,-698"/>
<text text-anchor="start" x="47" y="-681.5" font-family="Courier,monospace" font-size="11.00">«abstract»</text>
<text text-anchor="start" x="40.5" y="-670.5" font-family="Courier,monospace" font-size="11.00">BaseAbstract</text>
</g>
<!-- \\Yetti\\API\\Auth_Details&#45;&gt;\\Yetti\\API\\BaseAbstract -->
<g id="edge5" class="edge"><title>\\Yetti\\API\\Auth_Details&#45;&gt;\\Yetti\\API\\BaseAbstract</title>
<path fill="none" stroke="black" d="M230.339,-1157.67C219.115,-1153.68 208.055,-1147.76 200,-1139 140.425,-1074.23 97.3552,-797.477 84.7769,-708.015"/>
<polygon fill="none" stroke="black" points="88.2368,-707.484 83.3951,-698.06 81.3033,-708.446 88.2368,-707.484"/>
</g>
<!-- \\Yetti\\API\\Autoloader -->
<g id="node5" class="node"><title>\\Yetti\\API\\Autoloader</title>
<polygon fill="none" stroke="black" points="813.011,-968 730.989,-968 730.989,-932 813.011,-932 813.011,-968"/>
<text text-anchor="middle" x="772" y="-945.6" font-family="Courier,monospace" font-size="11.00">Autoloader</text>
</g>
<!-- \\Yetti\\API\\Collection_Filter_List -->
<g id="node7" class="node"><title>\\Yetti\\API\\Collection_Filter_List</title>
<polygon fill="none" stroke="black" points="605.724,-482 444.276,-482 444.276,-446 605.724,-446 605.724,-482"/>
<text text-anchor="middle" x="525" y="-459.6" font-family="Courier,monospace" font-size="11.00">Collection_Filter_List</text>
</g>
<!-- \\Yetti\\API\\ListAbstract -->
<g id="node29" class="node"><title>\\Yetti\\API\\ListAbstract</title>
<polygon fill="none" stroke="black" points="326,-266 230,-266 230,-230 326,-230 326,-266"/>
<text text-anchor="start" x="245" y="-249.5" font-family="Courier,monospace" font-size="11.00">«abstract»</text>
<text text-anchor="start" x="238.5" y="-238.5" font-family="Courier,monospace" font-size="11.00">ListAbstract</text>
</g>
<!-- \\Yetti\\API\\Collection_Filter_List&#45;&gt;\\Yetti\\API\\ListAbstract -->
<g id="edge7" class="edge"><title>\\Yetti\\API\\Collection_Filter_List&#45;&gt;\\Yetti\\API\\ListAbstract</title>
<path fill="none" stroke="black" d="M444.071,-447.732C438.293,-444.736 432.844,-441.192 428,-437 368.421,-385.44 413.923,-328.413 356,-275 350.142,-269.598 343.141,-265.267 335.782,-261.796"/>
<polygon fill="none" stroke="black" points="336.904,-258.471 326.328,-257.844 334.204,-264.93 336.904,-258.471"/>
</g>
<!-- \\Yetti\\API\\Collection_Filter_Type_List -->
<g id="node8" class="node"><title>\\Yetti\\API\\Collection_Filter_Type_List</title>
<polygon fill="none" stroke="black" points="622.229,-428 427.771,-428 427.771,-392 622.229,-392 622.229,-428"/>
<text text-anchor="middle" x="525" y="-405.6" font-family="Courier,monospace" font-size="11.00">Collection_Filter_Type_List</text>
</g>
<!-- \\Yetti\\API\\Collection_Filter_Type_List&#45;&gt;\\Yetti\\API\\ListAbstract -->
<g id="edge9" class="edge"><title>\\Yetti\\API\\Collection_Filter_Type_List&#45;&gt;\\Yetti\\API\\ListAbstract</title>
<path fill="none" stroke="black" d="M442.895,-391.877C437.647,-389.301 432.622,-386.359 428,-383 381.334,-349.084 401.573,-310.371 356,-275 349.863,-270.236 342.821,-266.275 335.544,-262.99"/>
<polygon fill="none" stroke="black" points="336.831,-259.735 326.251,-259.182 334.177,-266.212 336.831,-259.735"/>
</g>
<!-- \\Yetti\\API\\Collection_Filter_Type -->
<g id="node9" class="node"><title>\\Yetti\\API\\Collection_Filter_Type</title>
<polygon fill="none" stroke="black" points="605.724,-1130 444.276,-1130 444.276,-1094 605.724,-1094 605.724,-1130"/>
<text text-anchor="middle" x="525" y="-1107.6" font-family="Courier,monospace" font-size="11.00">Collection_Filter_Type</text>
</g>
<!-- \\Yetti\\API\\Item_Filter_Type -->
<g id="node20" class="node"><title>\\Yetti\\API\\Item_Filter_Type</title>
<polygon fill="none" stroke="black" points="338.618,-1130 217.382,-1130 217.382,-1094 338.618,-1094 338.618,-1130"/>
<text text-anchor="middle" x="278" y="-1107.6" font-family="Courier,monospace" font-size="11.00">Item_Filter_Type</text>
</g>
<!-- \\Yetti\\API\\Collection_Filter_Type&#45;&gt;\\Yetti\\API\\Item_Filter_Type -->
<g id="edge11" class="edge"><title>\\Yetti\\API\\Collection_Filter_Type&#45;&gt;\\Yetti\\API\\Item_Filter_Type</title>
<path fill="none" stroke="black" d="M444.117,-1112C413.513,-1112 378.856,-1112 349.222,-1112"/>
<polygon fill="none" stroke="black" points="348.965,-1108.5 338.965,-1112 348.965,-1115.5 348.965,-1108.5"/>
</g>
<!-- \\Yetti\\API\\Collection_Filter -->
<g id="node10" class="node"><title>\\Yetti\\API\\Collection_Filter</title>
<polygon fill="none" stroke="black" points="589.218,-1076 460.782,-1076 460.782,-1040 589.218,-1040 589.218,-1076"/>
<text text-anchor="middle" x="525" y="-1053.6" font-family="Courier,monospace" font-size="11.00">Collection_Filter</text>
</g>
<!-- \\Yetti\\API\\Item_Filter -->
<g id="node21" class="node"><title>\\Yetti\\API\\Item_Filter</title>
<polygon fill="none" stroke="black" points="322.113,-1076 233.887,-1076 233.887,-1040 322.113,-1040 322.113,-1076"/>
<text text-anchor="middle" x="278" y="-1053.6" font-family="Courier,monospace" font-size="11.00">Item_Filter</text>
</g>
<!-- \\Yetti\\API\\Collection_Filter&#45;&gt;\\Yetti\\API\\Item_Filter -->
<g id="edge13" class="edge"><title>\\Yetti\\API\\Collection_Filter&#45;&gt;\\Yetti\\API\\Item_Filter</title>
<path fill="none" stroke="black" d="M460.588,-1058C420.931,-1058 370.41,-1058 332.73,-1058"/>
<polygon fill="none" stroke="black" points="332.463,-1054.5 322.463,-1058 332.463,-1061.5 332.463,-1054.5"/>
</g>
<!-- \\Yetti\\API\\Collection_List -->
<g id="node11" class="node"><title>\\Yetti\\API\\Collection_List</title>
<polygon fill="none" stroke="black" points="829.516,-644 714.484,-644 714.484,-608 829.516,-608 829.516,-644"/>
<text text-anchor="middle" x="772" y="-621.6" font-family="Courier,monospace" font-size="11.00">Collection_List</text>
</g>
<!-- \\Yetti\\API\\Resource_ListAbstract -->
<g id="node42" class="node"><title>\\Yetti\\API\\Resource_ListAbstract</title>
<polygon fill="none" stroke="black" points="602.5,-590 447.5,-590 447.5,-554 602.5,-554 602.5,-590"/>
<text text-anchor="start" x="492" y="-573.5" font-family="Courier,monospace" font-size="11.00">«abstract»</text>
<text text-anchor="start" x="456" y="-562.5" font-family="Courier,monospace" font-size="11.00">Resource_ListAbstract</text>
</g>
<!-- \\Yetti\\API\\Collection_List&#45;&gt;\\Yetti\\API\\Resource_ListAbstract -->
<g id="edge15" class="edge"><title>\\Yetti\\API\\Collection_List&#45;&gt;\\Yetti\\API\\Resource_ListAbstract</title>
<path fill="none" stroke="black" d="M714.484,-613.544C684.259,-606.881 646.393,-598.536 612.546,-591.075"/>
<polygon fill="none" stroke="black" points="613.17,-587.629 602.651,-588.895 611.664,-594.465 613.17,-587.629"/>
</g>
<!-- \\Yetti\\API\\Collection -->
<g id="node12" class="node"><title>\\Yetti\\API\\Collection</title>
<polygon fill="none" stroke="black" points="566.011,-860 483.989,-860 483.989,-824 566.011,-824 566.011,-860"/>
<text text-anchor="middle" x="525" y="-837.6" font-family="Courier,monospace" font-size="11.00">Collection</text>
</g>
<!-- \\Yetti\\API\\Resource_BaseAbstract -->
<g id="node41" class="node"><title>\\Yetti\\API\\Resource_BaseAbstract</title>
<polygon fill="none" stroke="black" points="355.5,-320 200.5,-320 200.5,-284 355.5,-284 355.5,-320"/>
<text text-anchor="start" x="245" y="-303.5" font-family="Courier,monospace" font-size="11.00">«abstract»</text>
<text text-anchor="start" x="209" y="-292.5" font-family="Courier,monospace" font-size="11.00">Resource_BaseAbstract</text>
</g>
<!-- \\Yetti\\API\\Collection&#45;&gt;\\Yetti\\API\\Resource_BaseAbstract -->
<g id="edge17" class="edge"><title>\\Yetti\\API\\Collection&#45;&gt;\\Yetti\\API\\Resource_BaseAbstract</title>
<path fill="none" stroke="black" d="M483.615,-840.512C464.046,-837.616 441.843,-830.724 428,-815 283.714,-651.105 495.045,-497.364 356,-329 355.388,-328.259 354.755,-327.539 354.102,-326.838"/>
<polygon fill="none" stroke="black" points="356.224,-324.043 346.406,-320.061 351.598,-329.297 356.224,-324.043"/>
</g>
<!-- \\Yetti\\API\\Exception_Auth -->
<g id="node13" class="node"><title>\\Yetti\\API\\Exception_Auth</title>
<polygon fill="none" stroke="black" points="826.416,-374 717.584,-374 717.584,-338 826.416,-338 826.416,-374"/>
<text text-anchor="middle" x="772" y="-351.6" font-family="Courier,monospace" font-size="11.00">Exception_Auth</text>
</g>
<!-- \\Yetti\\API\\Exception -->
<g id="node14" class="node"><title>\\Yetti\\API\\Exception</title>
<polygon fill="none" stroke="black" points="562.911,-212 487.089,-212 487.089,-176 562.911,-176 562.911,-212"/>
<text text-anchor="middle" x="525" y="-189.6" font-family="Courier,monospace" font-size="11.00">Exception</text>
</g>
<!-- \\Yetti\\API\\Exception_Auth&#45;&gt;\\Yetti\\API\\Exception -->
<g id="edge19" class="edge"><title>\\Yetti\\API\\Exception_Auth&#45;&gt;\\Yetti\\API\\Exception</title>
<path fill="none" stroke="black" d="M717.716,-342.431C709.294,-338.886 701.05,-334.472 694,-329 648.427,-293.629 668.666,-254.916 622,-221 607.734,-210.632 589.623,-204.24 572.984,-200.302"/>
<polygon fill="none" stroke="black" points="573.371,-196.806 562.862,-198.153 571.917,-203.653 573.371,-196.806"/>
</g>
<!-- \\Exception -->
<g id="node61" class="node"><title>\\Exception</title>
<ellipse fill="none" stroke="black" cx="278" cy="-126" rx="52.7417" ry="18"/>
<text text-anchor="middle" x="278" y="-120.4" font-family="Times,serif" font-size="14.00" fill="gray">\Exception</text>
</g>
<!-- \\Yetti\\API\\Exception&#45;&gt;\\Exception -->
<g id="edge21" class="edge"><title>\\Yetti\\API\\Exception&#45;&gt;\\Exception</title>
<path fill="none" stroke="black" d="M486.916,-186.175C469.034,-182.23 447.321,-177.189 428,-172 393.586,-162.758 355.172,-150.86 325.969,-141.479"/>
<polygon fill="none" stroke="black" points="327.029,-138.144 316.437,-138.402 324.878,-144.805 327.029,-138.144"/>
</g>
<!-- \\Yetti\\API\\Item_Collections -->
<g id="node15" class="node"><title>\\Yetti\\API\\Item_Collections</title>
<polygon fill="none" stroke="black" points="338.618,-1022 217.382,-1022 217.382,-986 338.618,-986 338.618,-1022"/>
<text text-anchor="middle" x="278" y="-999.6" font-family="Courier,monospace" font-size="11.00">Item_Collections</text>
</g>
<!-- \\Yetti\\API\\Item_Collections&#45;&gt;\\Yetti\\API\\BaseAbstract -->
<g id="edge23" class="edge"><title>\\Yetti\\API\\Item_Collections&#45;&gt;\\Yetti\\API\\BaseAbstract</title>
<path fill="none" stroke="black" d="M217.219,-989.003C210.931,-985.751 205.015,-981.8 200,-977 121.044,-901.431 93.1612,-766.584 84.4842,-708.217"/>
<polygon fill="none" stroke="black" points="87.9396,-707.654 83.0795,-698.24 81.0079,-708.63 87.9396,-707.654"/>
</g>
<!-- \\Yetti\\API\\Item_Combination_List -->
<g id="node16" class="node"><title>\\Yetti\\API\\Item_Combination_List</title>
<polygon fill="none" stroke="black" points="849.123,-590 694.877,-590 694.877,-554 849.123,-554 849.123,-590"/>
<text text-anchor="middle" x="772" y="-567.6" font-family="Courier,monospace" font-size="11.00">Item_Combination_List</text>
</g>
<!-- \\Yetti\\API\\Item_Combination_List&#45;&gt;\\Yetti\\API\\Resource_ListAbstract -->
<g id="edge25" class="edge"><title>\\Yetti\\API\\Item_Combination_List&#45;&gt;\\Yetti\\API\\Resource_ListAbstract</title>
<path fill="none" stroke="black" d="M694.823,-572C668.791,-572 639.486,-572 612.687,-572"/>
<polygon fill="none" stroke="black" points="612.551,-568.5 602.551,-572 612.551,-575.5 612.551,-568.5"/>
</g>
<!-- \\Yetti\\API\\Item_Combination -->
<g id="node17" class="node"><title>\\Yetti\\API\\Item_Combination</title>
<polygon fill="none" stroke="black" points="338.618,-968 217.382,-968 217.382,-932 338.618,-932 338.618,-968"/>
<text text-anchor="middle" x="278" y="-945.6" font-family="Courier,monospace" font-size="11.00">Item_Combination</text>
</g>
<!-- \\Yetti\\API\\Item_Combination&#45;&gt;\\Yetti\\API\\BaseAbstract -->
<g id="edge27" class="edge"><title>\\Yetti\\API\\Item_Combination&#45;&gt;\\Yetti\\API\\BaseAbstract</title>
<path fill="none" stroke="black" d="M217.174,-934.435C210.968,-931.288 205.084,-927.516 200,-923 133.115,-863.584 99.8859,-758.08 87.2547,-707.948"/>
<polygon fill="none" stroke="black" points="90.6305,-707.018 84.8672,-698.128 83.8286,-708.671 90.6305,-707.018"/>
</g>
<!-- \\Yetti\\API\\Item_Filter_List -->
<g id="node18" class="node"><title>\\Yetti\\API\\Item_Filter_List</title>
<polygon fill="none" stroke="black" points="585.618,-374 464.382,-374 464.382,-338 585.618,-338 585.618,-374"/>
<text text-anchor="middle" x="525" y="-351.6" font-family="Courier,monospace" font-size="11.00">Item_Filter_List</text>
</g>
<!-- \\Yetti\\API\\Item_Filter_List&#45;&gt;\\Yetti\\API\\ListAbstract -->
<g id="edge29" class="edge"><title>\\Yetti\\API\\Item_Filter_List&#45;&gt;\\Yetti\\API\\ListAbstract</title>
<path fill="none" stroke="black" d="M464.338,-342.916C452.007,-339.198 439.331,-334.598 428,-329 392.137,-311.284 391.286,-293.838 356,-275 349.642,-271.606 342.771,-268.494 335.84,-265.687"/>
<polygon fill="none" stroke="black" points="336.986,-262.378 326.396,-262.05 334.47,-268.91 336.986,-262.378"/>
</g>
<!-- \\Yetti\\API\\Item_Filter_Type_List -->
<g id="node19" class="node"><title>\\Yetti\\API\\Item_Filter_Type_List</title>
<polygon fill="none" stroke="black" points="602.123,-320 447.877,-320 447.877,-284 602.123,-284 602.123,-320"/>
<text text-anchor="middle" x="525" y="-297.6" font-family="Courier,monospace" font-size="11.00">Item_Filter_Type_List</text>
</g>
<!-- \\Yetti\\API\\Item_Filter_Type_List&#45;&gt;\\Yetti\\API\\ListAbstract -->
<g id="edge31" class="edge"><title>\\Yetti\\API\\Item_Filter_Type_List&#45;&gt;\\Yetti\\API\\ListAbstract</title>
<path fill="none" stroke="black" d="M447.823,-285.21C411.797,-277.27 369.503,-267.948 336.259,-260.62"/>
<polygon fill="none" stroke="black" points="336.769,-257.149 326.25,-258.414 335.262,-263.985 336.769,-257.149"/>
</g>
<!-- \\Yetti\\API\\Item_Filter_Type&#45;&gt;\\Yetti\\API\\BaseAbstract -->
<g id="edge33" class="edge"><title>\\Yetti\\API\\Item_Filter_Type&#45;&gt;\\Yetti\\API\\BaseAbstract</title>
<path fill="none" stroke="black" d="M217.14,-1097.66C210.788,-1094.3 204.878,-1090.14 200,-1085 96.3085,-975.829 82.406,-781.033 80.9584,-708.364"/>
<polygon fill="none" stroke="black" points="84.4556,-708.12 80.8235,-698.167 77.4562,-708.212 84.4556,-708.12"/>
</g>
<!-- \\Yetti\\API\\Item_Filter&#45;&gt;\\Yetti\\API\\BaseAbstract -->
<g id="edge35" class="edge"><title>\\Yetti\\API\\Item_Filter&#45;&gt;\\Yetti\\API\\BaseAbstract</title>
<path fill="none" stroke="black" d="M233.573,-1050.23C221.419,-1046.22 209.068,-1040.16 200,-1031 108.677,-938.724 87.3859,-773.867 82.4636,-708.159"/>
<polygon fill="none" stroke="black" points="85.9526,-707.877 81.7844,-698.137 78.9686,-708.351 85.9526,-707.877"/>
</g>
<!-- \\Yetti\\API\\Item_List -->
<g id="node22" class="node"><title>\\Yetti\\API\\Item_List</title>
<polygon fill="none" stroke="black" points="809.911,-536 734.089,-536 734.089,-500 809.911,-500 809.911,-536"/>
<text text-anchor="middle" x="772" y="-513.6" font-family="Courier,monospace" font-size="11.00">Item_List</text>
</g>
<!-- \\Yetti\\API\\Item_List&#45;&gt;\\Yetti\\API\\Resource_ListAbstract -->
<g id="edge37" class="edge"><title>\\Yetti\\API\\Item_List&#45;&gt;\\Yetti\\API\\Resource_ListAbstract</title>
<path fill="none" stroke="black" d="M734.056,-526.143C701.941,-533.221 654.157,-543.753 612.479,-552.939"/>
<polygon fill="none" stroke="black" points="611.596,-549.55 602.584,-555.12 613.103,-556.386 611.596,-549.55"/>
</g>
<!-- \\Yetti\\API\\Item_Type_List -->
<g id="node23" class="node"><title>\\Yetti\\API\\Item_Type_List</title>
<polygon fill="none" stroke="black" points="579.416,-266 470.584,-266 470.584,-230 579.416,-230 579.416,-266"/>
<text text-anchor="middle" x="525" y="-243.6" font-family="Courier,monospace" font-size="11.00">Item_Type_List</text>
</g>
<!-- \\Yetti\\API\\Item_Type_List&#45;&gt;\\Yetti\\API\\ListAbstract -->
<g id="edge39" class="edge"><title>\\Yetti\\API\\Item_Type_List&#45;&gt;\\Yetti\\API\\ListAbstract</title>
<path fill="none" stroke="black" d="M470.536,-248C430.818,-248 376.723,-248 336.151,-248"/>
<polygon fill="none" stroke="black" points="336.144,-244.5 326.144,-248 336.144,-251.5 336.144,-244.5"/>
</g>
<!-- \\Yetti\\API\\Item_Type -->
<g id="node24" class="node"><title>\\Yetti\\API\\Item_Type</title>
<polygon fill="none" stroke="black" points="315.911,-914 240.089,-914 240.089,-878 315.911,-878 315.911,-914"/>
<text text-anchor="middle" x="278" y="-891.6" font-family="Courier,monospace" font-size="11.00">Item_Type</text>
</g>
<!-- \\Yetti\\API\\Item_Type&#45;&gt;\\Yetti\\API\\BaseAbstract -->
<g id="edge41" class="edge"><title>\\Yetti\\API\\Item_Type&#45;&gt;\\Yetti\\API\\BaseAbstract</title>
<path fill="none" stroke="black" d="M239.982,-888.461C226.388,-884.362 211.52,-878.184 200,-869 144.962,-825.121 108.142,-748.436 91.3786,-707.535"/>
<polygon fill="none" stroke="black" points="94.6035,-706.173 87.642,-698.186 88.1034,-708.771 94.6035,-706.173"/>
</g>
<!-- \\Yetti\\API\\Item_Variation -->
<g id="node25" class="node"><title>\\Yetti\\API\\Item_Variation</title>
<polygon fill="none" stroke="black" points="826.416,-482 717.584,-482 717.584,-446 826.416,-446 826.416,-482"/>
<text text-anchor="middle" x="772" y="-459.6" font-family="Courier,monospace" font-size="11.00">Item_Variation</text>
</g>
<!-- \\Yetti\\API\\Item -->
<g id="node26" class="node"><title>\\Yetti\\API\\Item</title>
<polygon fill="none" stroke="black" points="552,-968 498,-968 498,-932 552,-932 552,-968"/>
<text text-anchor="middle" x="525" y="-945.6" font-family="Courier,monospace" font-size="11.00">Item</text>
</g>
<!-- \\Yetti\\API\\Item&#45;&gt;\\Yetti\\API\\Resource_BaseAbstract -->
<g id="edge43" class="edge"><title>\\Yetti\\API\\Item&#45;&gt;\\Yetti\\API\\Resource_BaseAbstract</title>
<path fill="none" stroke="black" d="M497.821,-950.145C475.759,-948.753 445.126,-942.981 428,-923 254.934,-721.089 522.613,-536.269 356,-329 355.501,-328.379 354.986,-327.772 354.457,-327.179"/>
<polygon fill="none" stroke="black" points="356.594,-324.39 346.85,-320.23 351.873,-329.559 356.594,-324.39"/>
</g>
<!-- \\Yetti\\API\\Language_List -->
<g id="node27" class="node"><title>\\Yetti\\API\\Language_List</title>
<polygon fill="none" stroke="black" points="575.814,-806 474.186,-806 474.186,-770 575.814,-770 575.814,-806"/>
<text text-anchor="middle" x="525" y="-783.6" font-family="Courier,monospace" font-size="11.00">Language_List</text>
</g>
<!-- \\Yetti\\API\\Language_List&#45;&gt;\\Yetti\\API\\ListAbstract -->
<g id="edge45" class="edge"><title>\\Yetti\\API\\Language_List&#45;&gt;\\Yetti\\API\\ListAbstract</title>
<path fill="none" stroke="black" d="M473.745,-784.726C456.935,-781.096 439.555,-774.125 428,-761 283.714,-597.105 495.045,-443.364 356,-275 350.554,-268.405 343.394,-263.42 335.631,-259.651"/>
<polygon fill="none" stroke="black" points="336.885,-256.381 326.308,-255.761 334.19,-262.842 336.885,-256.381"/>
</g>
<!-- \\Yetti\\API\\Language -->
<g id="node28" class="node"><title>\\Yetti\\API\\Language</title>
<polygon fill="none" stroke="black" points="312.309,-860 243.691,-860 243.691,-824 312.309,-824 312.309,-860"/>
<text text-anchor="middle" x="278" y="-837.6" font-family="Courier,monospace" font-size="11.00">Language</text>
</g>
<!-- \\Yetti\\API\\Language&#45;&gt;\\Yetti\\API\\BaseAbstract -->
<g id="edge47" class="edge"><title>\\Yetti\\API\\Language&#45;&gt;\\Yetti\\API\\BaseAbstract</title>
<path fill="none" stroke="black" d="M243.427,-834.281C229.25,-830.028 213.042,-823.785 200,-815 156.604,-785.769 119.06,-737.01 98.2822,-706.781"/>
<polygon fill="none" stroke="black" points="101.126,-704.738 92.6298,-698.408 95.3238,-708.655 101.126,-704.738"/>
</g>
<!-- \\Yetti\\API\\ListAbstract&#45;&gt;\\Yetti\\API\\BaseAbstract -->
<g id="edge49" class="edge"><title>\\Yetti\\API\\ListAbstract&#45;&gt;\\Yetti\\API\\BaseAbstract</title>
<path fill="none" stroke="black" d="M229.727,-256.791C218.775,-260.78 208,-266.577 200,-275 96.3085,-384.171 82.406,-578.967 80.9584,-651.636"/>
<polygon fill="none" stroke="black" points="77.4562,-651.788 80.8235,-661.833 84.4556,-651.88 77.4562,-651.788"/>
</g>
<!-- \\Yetti\\API\\ListIterator -->
<g id="node30" class="node"><title>\\Yetti\\API\\ListIterator</title>
<polygon fill="none" stroke="black" points="819.713,-266 724.287,-266 724.287,-230 819.713,-230 819.713,-266"/>
<text text-anchor="middle" x="772" y="-243.6" font-family="Courier,monospace" font-size="11.00">ListIterator</text>
</g>
<!-- \\Iterator -->
<g id="node77" class="node"><title>\\Iterator</title>
<ellipse fill="none" stroke="black" cx="525" cy="-126" rx="42.2683" ry="18"/>
<text text-anchor="middle" x="525" y="-120.4" font-family="Times,serif" font-size="14.00" fill="gray">\Iterator</text>
</g>
<!-- \\Yetti\\API\\ListIterator&#45;&gt;\\Iterator -->
<g id="edge51" class="edge"><title>\\Yetti\\API\\ListIterator&#45;&gt;\\Iterator</title>
<path fill="none" stroke="black" stroke-dasharray="1,5" d="M724.316,-234.43C714.048,-230.684 703.43,-226.194 694,-221 658.25,-201.309 657.353,-184.395 622,-164 605.517,-154.49 586.195,-146.333 569.223,-140.042"/>
<polygon fill="none" stroke="black" points="570.136,-136.65 559.542,-136.557 567.765,-143.237 570.136,-136.65"/>
</g>
<!-- \\Countable -->
<g id="node79" class="node"><title>\\Countable</title>
<ellipse fill="none" stroke="black" cx="525" cy="-72" rx="53.326" ry="18"/>
<text text-anchor="middle" x="525" y="-66.4" font-family="Times,serif" font-size="14.00" fill="gray">\Countable</text>
</g>
<!-- \\Yetti\\API\\ListIterator&#45;&gt;\\Countable -->
<g id="edge53" class="edge"><title>\\Yetti\\API\\ListIterator&#45;&gt;\\Countable</title>
<path fill="none" stroke="black" stroke-dasharray="1,5" d="M724.279,-237.459C713.563,-233.525 702.759,-228.191 694,-221 645.34,-181.047 671.896,-137.398 622,-99 611.285,-90.7541 598.174,-85.0265 585.125,-81.0482"/>
<polygon fill="none" stroke="black" points="585.769,-77.5958 575.2,-78.3341 583.923,-84.3479 585.769,-77.5958"/>
</g>
<!-- \\ArrayAccess -->
<g id="node81" class="node"><title>\\ArrayAccess</title>
<ellipse fill="none" stroke="black" cx="525" cy="-18" rx="63.6773" ry="18"/>
<text text-anchor="middle" x="525" y="-12.4" font-family="Times,serif" font-size="14.00" fill="gray">\ArrayAccess</text>
</g>
<!-- \\Yetti\\API\\ListIterator&#45;&gt;\\ArrayAccess -->
<g id="edge55" class="edge"><title>\\Yetti\\API\\ListIterator&#45;&gt;\\ArrayAccess</title>
<path fill="none" stroke="black" stroke-dasharray="1,5" d="M724.31,-238.625C713.347,-234.647 702.421,-229.002 694,-221 632.733,-162.784 685.073,-101.254 622,-45 613.789,-37.6768 603.739,-32.3256 593.27,-28.4186"/>
<polygon fill="none" stroke="black" points="594.17,-25.0302 583.577,-25.2214 591.977,-31.6779 594.17,-25.0302"/>
</g>
<!-- \\Yetti\\API\\Oauth_Access_Token -->
<g id="node31" class="node"><title>\\Yetti\\API\\Oauth_Access_Token</title>
<polygon fill="none" stroke="black" points="345.319,-806 210.681,-806 210.681,-770 345.319,-770 345.319,-806"/>
<text text-anchor="middle" x="278" y="-783.6" font-family="Courier,monospace" font-size="11.00">Oauth_Access_Token</text>
</g>
<!-- \\Yetti\\API\\Oauth_Access_Token&#45;&gt;\\Yetti\\API\\BaseAbstract -->
<g id="edge57" class="edge"><title>\\Yetti\\API\\Oauth_Access_Token&#45;&gt;\\Yetti\\API\\BaseAbstract</title>
<path fill="none" stroke="black" d="M219.948,-769.888C213.114,-767.167 206.323,-764.192 200,-761 168.207,-744.953 134.937,-721.673 111.685,-704.184"/>
<polygon fill="none" stroke="black" points="113.67,-701.297 103.593,-698.027 109.432,-706.868 113.67,-701.297"/>
</g>
<!-- \\Yetti\\API\\Order_Item -->
<g id="node32" class="node"><title>\\Yetti\\API\\Order_Item</title>
<polygon fill="none" stroke="black" points="319.011,-752 236.989,-752 236.989,-716 319.011,-716 319.011,-752"/>
<text text-anchor="middle" x="278" y="-729.6" font-family="Courier,monospace" font-size="11.00">Order_Item</text>
</g>
<!-- \\Yetti\\API\\Order_Item&#45;&gt;\\Yetti\\API\\BaseAbstract -->
<g id="edge59" class="edge"><title>\\Yetti\\API\\Order_Item&#45;&gt;\\Yetti\\API\\BaseAbstract</title>
<path fill="none" stroke="black" d="M236.864,-722.942C208.466,-715.118 169.969,-704.512 138.34,-695.798"/>
<polygon fill="none" stroke="black" points="138.904,-692.323 128.334,-693.041 137.045,-699.071 138.904,-692.323"/>
</g>
<!-- \\Yetti\\API\\Order_List -->
<g id="node33" class="node"><title>\\Yetti\\API\\Order_List</title>
<polygon fill="none" stroke="black" points="813.011,-428 730.989,-428 730.989,-392 813.011,-392 813.011,-428"/>
<text text-anchor="middle" x="772" y="-405.6" font-family="Courier,monospace" font-size="11.00">Order_List</text>
</g>
<!-- \\Yetti\\API\\Order_List&#45;&gt;\\Yetti\\API\\Resource_ListAbstract -->
<g id="edge61" class="edge"><title>\\Yetti\\API\\Order_List&#45;&gt;\\Yetti\\API\\Resource_ListAbstract</title>
<path fill="none" stroke="black" d="M730.953,-418.686C718.257,-422.78 704.743,-428.662 694,-437 648.427,-472.371 668.666,-511.084 622,-545 618.783,-547.338 615.371,-549.474 611.824,-551.425"/>
<polygon fill="none" stroke="black" points="610.178,-548.334 602.765,-555.904 613.28,-554.609 610.178,-548.334"/>
</g>
<!-- \\Yetti\\API\\Order_Note -->
<g id="node34" class="node"><title>\\Yetti\\API\\Order_Note</title>
<polygon fill="none" stroke="black" points="319.011,-698 236.989,-698 236.989,-662 319.011,-662 319.011,-698"/>
<text text-anchor="middle" x="278" y="-675.6" font-family="Courier,monospace" font-size="11.00">Order_Note</text>
</g>
<!-- \\Yetti\\API\\Order_Note&#45;&gt;\\Yetti\\API\\BaseAbstract -->
<g id="edge63" class="edge"><title>\\Yetti\\API\\Order_Note&#45;&gt;\\Yetti\\API\\BaseAbstract</title>
<path fill="none" stroke="black" d="M236.864,-680C208.466,-680 169.969,-680 138.34,-680"/>
<polygon fill="none" stroke="black" points="138.334,-676.5 128.334,-680 138.334,-683.5 138.334,-676.5"/>
</g>
<!-- \\Yetti\\API\\Order_Shipment -->
<g id="node35" class="node"><title>\\Yetti\\API\\Order_Shipment</title>
<polygon fill="none" stroke="black" points="332.416,-644 223.584,-644 223.584,-608 332.416,-608 332.416,-644"/>
<text text-anchor="middle" x="278" y="-621.6" font-family="Courier,monospace" font-size="11.00">Order_Shipment</text>
</g>
<!-- \\Yetti\\API\\Order_Shipment&#45;&gt;\\Yetti\\API\\BaseAbstract -->
<g id="edge65" class="edge"><title>\\Yetti\\API\\Order_Shipment&#45;&gt;\\Yetti\\API\\BaseAbstract</title>
<path fill="none" stroke="black" d="M223.701,-640.684C197.149,-648 165.024,-656.85 137.984,-664.3"/>
<polygon fill="none" stroke="black" points="136.982,-660.946 128.271,-666.976 138.841,-667.694 136.982,-660.946"/>
</g>
<!-- \\Yetti\\API\\Order_Status_List -->
<g id="node36" class="node"><title>\\Yetti\\API\\Order_Status_List</title>
<polygon fill="none" stroke="black" points="589.218,-752 460.782,-752 460.782,-716 589.218,-716 589.218,-752"/>
<text text-anchor="middle" x="525" y="-729.6" font-family="Courier,monospace" font-size="11.00">Order_Status_List</text>
</g>
<!-- \\Yetti\\API\\Order_Status_List&#45;&gt;\\Yetti\\API\\ListAbstract -->
<g id="edge67" class="edge"><title>\\Yetti\\API\\Order_Status_List&#45;&gt;\\Yetti\\API\\ListAbstract</title>
<path fill="none" stroke="black" d="M460.89,-727.094C448.497,-722.989 436.668,-716.668 428,-707 298.066,-562.068 481.299,-423.957 356,-275 350.494,-268.455 343.303,-263.495 335.527,-259.737"/>
<polygon fill="none" stroke="black" points="336.773,-256.465 326.196,-255.855 334.084,-262.928 336.773,-256.465"/>
</g>
<!-- \\Yetti\\API\\Order_Status -->
<g id="node37" class="node"><title>\\Yetti\\API\\Order_Status</title>
<polygon fill="none" stroke="black" points="325.713,-590 230.287,-590 230.287,-554 325.713,-554 325.713,-590"/>
<text text-anchor="middle" x="278" y="-567.6" font-family="Courier,monospace" font-size="11.00">Order_Status</text>
</g>
<!-- \\Yetti\\API\\Order_Status&#45;&gt;\\Yetti\\API\\BaseAbstract -->
<g id="edge69" class="edge"><title>\\Yetti\\API\\Order_Status&#45;&gt;\\Yetti\\API\\BaseAbstract</title>
<path fill="none" stroke="black" d="M230.179,-586.226C220.021,-589.913 209.485,-594.213 200,-599 168.207,-615.047 134.937,-638.327 111.685,-655.816"/>
<polygon fill="none" stroke="black" points="109.432,-653.132 103.593,-661.973 113.67,-658.703 109.432,-653.132"/>
</g>
<!-- \\Yetti\\API\\Order -->
<g id="node38" class="node"><title>\\Yetti\\API\\Order</title>
<polygon fill="none" stroke="black" points="305,-536 251,-536 251,-500 305,-500 305,-536"/>
<text text-anchor="middle" x="278" y="-513.6" font-family="Courier,monospace" font-size="11.00">Order</text>
</g>
<!-- \\Yetti\\API\\Order&#45;&gt;\\Yetti\\API\\BaseAbstract -->
<g id="edge71" class="edge"><title>\\Yetti\\API\\Order&#45;&gt;\\Yetti\\API\\BaseAbstract</title>
<path fill="none" stroke="black" d="M250.862,-523.61C235.194,-527.805 215.391,-534.632 200,-545 156.604,-574.231 119.06,-622.99 98.2822,-653.219"/>
<polygon fill="none" stroke="black" points="95.3238,-651.345 92.6298,-661.592 101.126,-655.262 95.3238,-651.345"/>
</g>
<!-- \\Yetti\\API\\Resource_Asset_Group -->
<g id="node39" class="node"><title>\\Yetti\\API\\Resource_Asset_Group</title>
<polygon fill="none" stroke="black" points="599.021,-698 450.979,-698 450.979,-662 599.021,-662 599.021,-698"/>
<text text-anchor="middle" x="525" y="-675.6" font-family="Courier,monospace" font-size="11.00">Resource_Asset_Group</text>
</g>
<!-- \\Yetti\\API\\Resource_Asset_Group&#45;&gt;\\Yetti\\API\\ListAbstract -->
<g id="edge73" class="edge"><title>\\Yetti\\API\\Resource_Asset_Group&#45;&gt;\\Yetti\\API\\ListAbstract</title>
<path fill="none" stroke="black" d="M450.819,-668.964C442.246,-665.073 434.321,-659.889 428,-653 312.377,-526.987 467.591,-404.597 356,-275 350.419,-268.519 343.188,-263.593 335.395,-259.849"/>
<polygon fill="none" stroke="black" points="336.633,-256.573 326.055,-255.975 333.951,-263.039 336.633,-256.573"/>
</g>
<!-- \\Yetti\\API\\Resource_Asset -->
<g id="node40" class="node"><title>\\Yetti\\API\\Resource_Asset</title>
<polygon fill="none" stroke="black" points="332.416,-482 223.584,-482 223.584,-446 332.416,-446 332.416,-482"/>
<text text-anchor="middle" x="278" y="-459.6" font-family="Courier,monospace" font-size="11.00">Resource_Asset</text>
</g>
<!-- \\Yetti\\API\\Resource_Asset&#45;&gt;\\Yetti\\API\\BaseAbstract -->
<g id="edge75" class="edge"><title>\\Yetti\\API\\Resource_Asset&#45;&gt;\\Yetti\\API\\BaseAbstract</title>
<path fill="none" stroke="black" d="M223.594,-477.413C215.185,-480.976 206.978,-485.437 200,-491 144.962,-534.879 108.142,-611.564 91.3786,-652.465"/>
<polygon fill="none" stroke="black" points="88.1034,-651.229 87.642,-661.814 94.6035,-653.827 88.1034,-651.229"/>
</g>
<!-- \\Yetti\\API\\Resource_BaseAbstract&#45;&gt;\\Yetti\\API\\BaseAbstract -->
<g id="edge77" class="edge"><title>\\Yetti\\API\\Resource_BaseAbstract&#45;&gt;\\Yetti\\API\\BaseAbstract</title>
<path fill="none" stroke="black" d="M210.994,-320.206C207.008,-322.763 203.288,-325.677 200,-329 108.677,-421.276 87.3859,-586.133 82.4636,-651.841"/>
<polygon fill="none" stroke="black" points="78.9686,-651.649 81.7844,-661.863 85.9526,-652.123 78.9686,-651.649"/>
</g>
<!-- \\Yetti\\API\\Resource_ListAbstract&#45;&gt;\\Yetti\\API\\ListAbstract -->
<g id="edge79" class="edge"><title>\\Yetti\\API\\Resource_ListAbstract&#45;&gt;\\Yetti\\API\\ListAbstract</title>
<path fill="none" stroke="black" d="M447.476,-558.747C440.276,-555.173 433.593,-550.67 428,-545 340.78,-456.588 440.389,-366.118 356,-275 350.258,-268.8 343.01,-264.023 335.271,-260.343"/>
<polygon fill="none" stroke="black" points="336.598,-257.105 326.021,-256.507 333.917,-263.571 336.598,-257.105"/>
</g>
<!-- \\Yetti\\API\\Resource_Property -->
<g id="node43" class="node"><title>\\Yetti\\API\\Resource_Property</title>
<polygon fill="none" stroke="black" points="342.218,-428 213.782,-428 213.782,-392 342.218,-392 342.218,-428"/>
<text text-anchor="middle" x="278" y="-405.6" font-family="Courier,monospace" font-size="11.00">Resource_Property</text>
</g>
<!-- \\Yetti\\API\\Resource_Property&#45;&gt;\\Yetti\\API\\BaseAbstract -->
<g id="edge81" class="edge"><title>\\Yetti\\API\\Resource_Property&#45;&gt;\\Yetti\\API\\BaseAbstract</title>
<path fill="none" stroke="black" d="M213.72,-427.402C208.789,-430.153 204.13,-433.331 200,-437 133.115,-496.416 99.8859,-601.92 87.2547,-652.052"/>
<polygon fill="none" stroke="black" points="83.8286,-651.329 84.8672,-661.872 90.6305,-652.982 83.8286,-651.329"/>
</g>
<!-- \\Yetti\\API\\Result -->
<g id="node44" class="node"><title>\\Yetti\\API\\Result</title>
<polygon fill="none" stroke="black" points="799.608,-320 744.392,-320 744.392,-284 799.608,-284 799.608,-320"/>
<text text-anchor="middle" x="772" y="-297.6" font-family="Courier,monospace" font-size="11.00">Result</text>
</g>
<!-- \\Yetti\\API\\User_Address_List -->
<g id="node45" class="node"><title>\\Yetti\\API\\User_Address_List</title>
<polygon fill="none" stroke="black" points="589.218,-644 460.782,-644 460.782,-608 589.218,-608 589.218,-644"/>
<text text-anchor="middle" x="525" y="-621.6" font-family="Courier,monospace" font-size="11.00">User_Address_List</text>
</g>
<!-- \\Yetti\\API\\User_Address_List&#45;&gt;\\Yetti\\API\\ListAbstract -->
<g id="edge83" class="edge"><title>\\Yetti\\API\\User_Address_List&#45;&gt;\\Yetti\\API\\ListAbstract</title>
<path fill="none" stroke="black" d="M460.777,-618.576C448.54,-614.49 436.804,-608.307 428,-599 326.627,-491.839 453.943,-385.305 356,-275 350.389,-268.681 343.212,-263.84 335.503,-260.133"/>
<polygon fill="none" stroke="black" points="336.847,-256.902 326.271,-256.28 334.151,-263.362 336.847,-256.902"/>
</g>
<!-- \\Yetti\\API\\User_Address -->
<g id="node46" class="node"><title>\\Yetti\\API\\User_Address</title>
<polygon fill="none" stroke="black" points="325.713,-374 230.287,-374 230.287,-338 325.713,-338 325.713,-374"/>
<text text-anchor="middle" x="278" y="-351.6" font-family="Courier,monospace" font-size="11.00">User_Address</text>
</g>
<!-- \\Yetti\\API\\User_Address&#45;&gt;\\Yetti\\API\\BaseAbstract -->
<g id="edge85" class="edge"><title>\\Yetti\\API\\User_Address&#45;&gt;\\Yetti\\API\\BaseAbstract</title>
<path fill="none" stroke="black" d="M230.27,-365.332C219.308,-369.311 208.392,-374.968 200,-383 121.044,-458.569 93.1612,-593.416 84.4842,-651.783"/>
<polygon fill="none" stroke="black" points="81.0079,-651.37 83.0795,-661.76 87.9396,-652.346 81.0079,-651.37"/>
</g>
<!-- \\Yetti\\API\\User_List -->
<g id="node47" class="node"><title>\\Yetti\\API\\User_List</title>
<polygon fill="none" stroke="black" points="809.911,-698 734.089,-698 734.089,-662 809.911,-662 809.911,-698"/>
<text text-anchor="middle" x="772" y="-675.6" font-family="Courier,monospace" font-size="11.00">User_List</text>
</g>
<!-- \\Yetti\\API\\User_List&#45;&gt;\\Yetti\\API\\Resource_ListAbstract -->
<g id="edge87" class="edge"><title>\\Yetti\\API\\User_List&#45;&gt;\\Yetti\\API\\Resource_ListAbstract</title>
<path fill="none" stroke="black" d="M733.99,-669.573C720.98,-665.251 706.497,-659.672 694,-653 658.714,-634.162 657.863,-616.716 622,-599 618.202,-597.124 614.253,-595.359 610.216,-593.703"/>
<polygon fill="none" stroke="black" points="611.259,-590.354 600.669,-590.031 608.746,-596.887 611.259,-590.354"/>
</g>
<!-- \\Yetti\\API\\User -->
<g id="node48" class="node"><title>\\Yetti\\API\\User</title>
<polygon fill="none" stroke="black" points="552,-914 498,-914 498,-878 552,-878 552,-914"/>
<text text-anchor="middle" x="525" y="-891.6" font-family="Courier,monospace" font-size="11.00">User</text>
</g>
<!-- \\Yetti\\API\\User&#45;&gt;\\Yetti\\API\\Resource_BaseAbstract -->
<g id="edge89" class="edge"><title>\\Yetti\\API\\User&#45;&gt;\\Yetti\\API\\Resource_BaseAbstract</title>
<path fill="none" stroke="black" d="M497.88,-896.094C475.855,-894.67 445.245,-888.878 428,-869 269.334,-686.109 508.819,-516.804 356,-329 355.394,-328.255 354.765,-327.53 354.117,-326.826"/>
<polygon fill="none" stroke="black" points="356.26,-324.048 346.463,-320.014 351.606,-329.277 356.26,-324.048"/>
</g>
<!-- \\Yetti\\API\\VAT_List -->
<g id="node49" class="node"><title>\\Yetti\\API\\VAT_List</title>
<polygon fill="none" stroke="black" points="559.309,-536 490.691,-536 490.691,-500 559.309,-500 559.309,-536"/>
<text text-anchor="middle" x="525" y="-513.6" font-family="Courier,monospace" font-size="11.00">VAT_List</text>
</g>
<!-- \\Yetti\\API\\VAT_List&#45;&gt;\\Yetti\\API\\ListAbstract -->
<g id="edge91" class="edge"><title>\\Yetti\\API\\VAT_List&#45;&gt;\\Yetti\\API\\ListAbstract</title>
<path fill="none" stroke="black" d="M490.352,-516.296C469.926,-513.557 444.665,-506.89 428,-491 354.764,-421.168 426.997,-347.107 356,-275 350.206,-269.115 343.058,-264.511 335.472,-260.908"/>
<polygon fill="none" stroke="black" points="336.642,-257.604 326.065,-256.992 333.952,-264.067 336.642,-257.604"/>
</g>
<!-- \\Yetti\\API\\VAT -->
<g id="node50" class="node"><title>\\Yetti\\API\\VAT</title>
<polygon fill="none" stroke="black" points="305,-212 251,-212 251,-176 305,-176 305,-212"/>
<text text-anchor="middle" x="278" y="-189.6" font-family="Courier,monospace" font-size="11.00">VAT</text>
</g>
<!-- \\Yetti\\API\\VAT&#45;&gt;\\Yetti\\API\\BaseAbstract -->
<g id="edge93" class="edge"><title>\\Yetti\\API\\VAT&#45;&gt;\\Yetti\\API\\BaseAbstract</title>
<path fill="none" stroke="black" d="M250.702,-196.889C233.958,-200.086 213.042,-206.82 200,-221 140.425,-285.775 97.3552,-562.523 84.7769,-651.985"/>
<polygon fill="none" stroke="black" points="81.3033,-651.554 83.3951,-661.94 88.2368,-652.516 81.3033,-651.554"/>
</g>
<!-- \\Yetti\\API\\Webservice -->
<g id="node51" class="node"><title>\\Yetti\\API\\Webservice</title>
<polygon fill="none" stroke="black" points="813.011,-212 730.989,-212 730.989,-176 813.011,-176 813.011,-212"/>
<text text-anchor="middle" x="772" y="-189.6" font-family="Courier,monospace" font-size="11.00">Webservice</text>
</g>
</g>
</svg>
