<?xml version="1.0" encoding="UTF-8" standalone="no"?>
<!DOCTYPE svg PUBLIC "-//W3C//DTD SVG 1.1//EN"
 "http://www.w3.org/Graphics/SVG/1.1/DTD/svg11.dtd">
<!-- Generated by graphviz version 2.28.0 (20110509.1545)
 -->
<!-- Title: G Pages: 1 -->
<svg width="836pt" height="764pt"
 viewBox="0.00 0.00 836.00 764.00" xmlns="http://www.w3.org/2000/svg" xmlns:xlink="http://www.w3.org/1999/xlink">
<g id="graph1" class="graph" transform="scale(1 1) rotate(0) translate(4 760)">
<title>G</title>
<polygon fill="white" stroke="white" points="-4,5 -4,-760 833,-760 833,5 -4,5"/>
<g id="graph2" class="cluster"><title>cluster_Yetti</title>
<polyline fill="none" stroke="gray" points="20,-152 808,-152 "/>
<path fill="none" stroke="gray" d="M808,-152C814,-152 820,-158 820,-164"/>
<polyline fill="none" stroke="gray" points="820,-164 820,-736 "/>
<path fill="none" stroke="gray" d="M820,-736C820,-742 814,-748 808,-748"/>
<polyline fill="none" stroke="gray" points="808,-748 20,-748 "/>
<path fill="none" stroke="gray" d="M20,-748C14,-748 8,-742 8,-736"/>
<polyline fill="none" stroke="gray" points="8,-736 8,-164 "/>
<path fill="none" stroke="gray" d="M8,-164C8,-158 14,-152 20,-152"/>
<text text-anchor="middle" x="414" y="-733" font-family="Times,serif" font-size="11.00" fill="gray">Yetti</text>
</g>
<g id="graph3" class="cluster"><title>cluster_Yetti\API</title>
<polyline fill="none" stroke="gray" points="28,-160 800,-160 "/>
<path fill="none" stroke="gray" d="M800,-160C806,-160 812,-166 812,-172"/>
<polyline fill="none" stroke="gray" points="812,-172 812,-707 "/>
<path fill="none" stroke="gray" d="M812,-707C812,-713 806,-719 800,-719"/>
<polyline fill="none" stroke="gray" points="800,-719 28,-719 "/>
<path fill="none" stroke="gray" d="M28,-719C22,-719 16,-713 16,-707"/>
<polyline fill="none" stroke="gray" points="16,-707 16,-172 "/>
<path fill="none" stroke="gray" d="M16,-172C16,-166 22,-160 28,-160"/>
<text text-anchor="middle" x="414" y="-704" font-family="Times,serif" font-size="11.00" fill="gray">API</text>
</g>
<!-- \\Yetti\\API\\Autoloader -->
<g id="node3" class="node"><title>\\Yetti\\API\\Autoloader</title>
<a xlink:href="Autoloader.html" xlink:title="Autoloader" target="_parent">
<polygon fill="none" stroke="black" points="767.011,-690 684.989,-690 684.989,-654 767.011,-654 767.011,-690"/>
<text text-anchor="middle" x="726" y="-667.6" font-family="Courier,monospace" font-size="11.00">Autoloader</text>
</a>
</g>
<!-- \\Yetti\\API\\BaseAbstract -->
<g id="node4" class="node"><title>\\Yetti\\API\\BaseAbstract</title>
<a xlink:href="BaseAbstract.html" xlink:title="BaseAbstract" target="_parent">
<polygon fill="none" stroke="black" points="119.713,-447 24.2869,-447 24.2869,-411 119.713,-411 119.713,-447"/>
<text text-anchor="middle" x="72" y="-424.6" font-family="Courier,monospace" font-size="11.00">BaseAbstract</text>
</a>
</g>
<!-- \\Yetti\\API\\Collection_List -->
<g id="node5" class="node"><title>\\Yetti\\API\\Collection_List</title>
<a xlink:href="Collection.List.html" xlink:title="Collection_List" target="_parent">
<polygon fill="none" stroke="black" points="783.516,-528 668.484,-528 668.484,-492 783.516,-492 783.516,-528"/>
<text text-anchor="middle" x="726" y="-505.6" font-family="Courier,monospace" font-size="11.00">Collection_List</text>
</a>
</g>
<!-- \\Yetti\\API\\Resource_ListAbstract -->
<g id="node28" class="node"><title>\\Yetti\\API\\Resource_ListAbstract</title>
<a xlink:href="Resource.ListAbstract.html" xlink:title="Resource_ListAbstract" target="_parent">
<polygon fill="none" stroke="black" points="575.123,-528 420.877,-528 420.877,-492 575.123,-492 575.123,-528"/>
<text text-anchor="middle" x="498" y="-505.6" font-family="Courier,monospace" font-size="11.00">Resource_ListAbstract</text>
</a>
</g>
<!-- \\Yetti\\API\\Collection_List&#45;&gt;\\Yetti\\API\\Resource_ListAbstract -->
<g id="edge4" class="edge"><title>\\Yetti\\API\\Collection_List&#45;&gt;\\Yetti\\API\\Resource_ListAbstract</title>
<path fill="none" stroke="black" d="M668.262,-510C643.225,-510 613.241,-510 585.511,-510"/>
<polygon fill="none" stroke="black" points="585.411,-506.5 575.41,-510 585.41,-513.5 585.411,-506.5"/>
</g>
<!-- \\Yetti\\API\\Collection -->
<g id="node6" class="node"><title>\\Yetti\\API\\Collection</title>
<a xlink:href="Collection.html" xlink:title="Collection" target="_parent">
<polygon fill="none" stroke="black" points="539.011,-366 456.989,-366 456.989,-330 539.011,-330 539.011,-366"/>
<text text-anchor="middle" x="498" y="-343.6" font-family="Courier,monospace" font-size="11.00">Collection</text>
</a>
</g>
<!-- \\Yetti\\API\\Resource_BaseAbstract -->
<g id="node27" class="node"><title>\\Yetti\\API\\Resource_BaseAbstract</title>
<a xlink:href="Resource.BaseAbstract.html" xlink:title="Resource_BaseAbstract" target="_parent">
<polygon fill="none" stroke="black" points="347.123,-204 192.877,-204 192.877,-168 347.123,-168 347.123,-204"/>
<text text-anchor="middle" x="270" y="-181.6" font-family="Courier,monospace" font-size="11.00">Resource_BaseAbstract</text>
</a>
</g>
<!-- \\Yetti\\API\\Collection&#45;&gt;\\Yetti\\API\\Resource_BaseAbstract -->
<g id="edge6" class="edge"><title>\\Yetti\\API\\Collection&#45;&gt;\\Yetti\\API\\Resource_BaseAbstract</title>
<path fill="none" stroke="black" d="M456.953,-339.314C444.257,-335.22 430.743,-329.338 420,-321 374.427,-285.629 393.573,-248.371 348,-213 346.227,-211.624 344.378,-210.315 342.471,-209.069"/>
<polygon fill="none" stroke="black" points="344.179,-206.014 333.775,-204.009 340.658,-212.064 344.179,-206.014"/>
</g>
<!-- \\Yetti\\API\\Exception_Auth -->
<g id="node7" class="node"><title>\\Yetti\\API\\Exception_Auth</title>
<a xlink:href="Exception.Auth.html" xlink:title="Exception_Auth" target="_parent">
<polygon fill="none" stroke="black" points="780.416,-366 671.584,-366 671.584,-330 780.416,-330 780.416,-366"/>
<text text-anchor="middle" x="726" y="-343.6" font-family="Courier,monospace" font-size="11.00">Exception_Auth</text>
</a>
</g>
<!-- \\Yetti\\API\\Exception -->
<g id="node8" class="node"><title>\\Yetti\\API\\Exception</title>
<a xlink:href="Exception.html" xlink:title="Exception" target="_parent">
<polygon fill="none" stroke="black" points="535.911,-204 460.089,-204 460.089,-168 535.911,-168 535.911,-204"/>
<text text-anchor="middle" x="498" y="-181.6" font-family="Courier,monospace" font-size="11.00">Exception</text>
</a>
</g>
<!-- \\Yetti\\API\\Exception_Auth&#45;&gt;\\Yetti\\API\\Exception -->
<g id="edge8" class="edge"><title>\\Yetti\\API\\Exception_Auth&#45;&gt;\\Yetti\\API\\Exception</title>
<path fill="none" stroke="black" d="M671.716,-334.431C663.294,-330.886 655.05,-326.472 648,-321 602.427,-285.629 621.573,-248.371 576,-213 567.089,-206.084 556.272,-200.858 545.597,-196.94"/>
<polygon fill="none" stroke="black" points="546.486,-193.547 535.892,-193.699 544.268,-200.186 546.486,-193.547"/>
</g>
<!-- \\Exception -->
<g id="node38" class="node"><title>\\Exception</title>
<ellipse fill="none" stroke="black" cx="270" cy="-126" rx="52.7417" ry="18"/>
<text text-anchor="middle" x="270" y="-120.4" font-family="Times,serif" font-size="14.00" fill="gray">\Exception</text>
</g>
<!-- \\Yetti\\API\\Exception&#45;&gt;\\Exception -->
<g id="edge10" class="edge"><title>\\Yetti\\API\\Exception&#45;&gt;\\Exception</title>
<path fill="none" stroke="black" d="M460.186,-176.226C422.669,-166.266 364.179,-150.738 322.166,-139.584"/>
<polygon fill="none" stroke="black" points="322.962,-136.174 312.398,-136.991 321.166,-142.94 322.962,-136.174"/>
</g>
<!-- \\Yetti\\API\\Item_Collections -->
<g id="node9" class="node"><title>\\Yetti\\API\\Item_Collections</title>
<a xlink:href="Item.Collections.html" xlink:title="Item_Collections" target="_parent">
<polygon fill="none" stroke="black" points="330.618,-690 209.382,-690 209.382,-654 330.618,-654 330.618,-690"/>
<text text-anchor="middle" x="270" y="-667.6" font-family="Courier,monospace" font-size="11.00">Item_Collections</text>
</a>
</g>
<!-- \\Yetti\\API\\Item_Collections&#45;&gt;\\Yetti\\API\\BaseAbstract -->
<g id="edge12" class="edge"><title>\\Yetti\\API\\Item_Collections&#45;&gt;\\Yetti\\API\\BaseAbstract</title>
<path fill="none" stroke="black" d="M208.996,-655.996C202.895,-652.932 197.083,-649.301 192,-645 131.076,-593.45 95.7823,-502.452 81.095,-456.783"/>
<polygon fill="none" stroke="black" points="84.4355,-455.739 78.114,-447.236 77.7536,-457.825 84.4355,-455.739"/>
</g>
<!-- \\Yetti\\API\\Item_Combination_List -->
<g id="node10" class="node"><title>\\Yetti\\API\\Item_Combination_List</title>
<a xlink:href="Item.Combination.List.html" xlink:title="Item_Combination_List" target="_parent">
<polygon fill="none" stroke="black" points="803.123,-474 648.877,-474 648.877,-438 803.123,-438 803.123,-474"/>
<text text-anchor="middle" x="726" y="-451.6" font-family="Courier,monospace" font-size="11.00">Item_Combination_List</text>
</a>
</g>
<!-- \\Yetti\\API\\Item_Combination_List&#45;&gt;\\Yetti\\API\\Resource_ListAbstract -->
<g id="edge14" class="edge"><title>\\Yetti\\API\\Item_Combination_List&#45;&gt;\\Yetti\\API\\Resource_ListAbstract</title>
<path fill="none" stroke="black" d="M649.431,-474.056C628.511,-479.055 605.661,-484.515 584.232,-489.635"/>
<polygon fill="none" stroke="black" points="583.411,-486.233 574.498,-491.961 585.037,-493.041 583.411,-486.233"/>
</g>
<!-- \\Yetti\\API\\Item_Combination -->
<g id="node11" class="node"><title>\\Yetti\\API\\Item_Combination</title>
<a xlink:href="Item.Combination.html" xlink:title="Item_Combination" target="_parent">
<polygon fill="none" stroke="black" points="330.618,-636 209.382,-636 209.382,-600 330.618,-600 330.618,-636"/>
<text text-anchor="middle" x="270" y="-613.6" font-family="Courier,monospace" font-size="11.00">Item_Combination</text>
</a>
</g>
<!-- \\Yetti\\API\\Item_Combination&#45;&gt;\\Yetti\\API\\BaseAbstract -->
<g id="edge16" class="edge"><title>\\Yetti\\API\\Item_Combination&#45;&gt;\\Yetti\\API\\BaseAbstract</title>
<path fill="none" stroke="black" d="M209.138,-601.129C203.079,-598.233 197.237,-594.877 192,-591 142.693,-554.499 104.99,-491.739 86.2046,-455.994"/>
<polygon fill="none" stroke="black" points="89.3141,-454.388 81.6268,-447.097 83.0897,-457.59 89.3141,-454.388"/>
</g>
<!-- \\Yetti\\API\\Item_Filter_List -->
<g id="node12" class="node"><title>\\Yetti\\API\\Item_Filter_List</title>
<a xlink:href="Item.Filter.List.html" xlink:title="Item_Filter_List" target="_parent">
<polygon fill="none" stroke="black" points="558.618,-474 437.382,-474 437.382,-438 558.618,-438 558.618,-474"/>
<text text-anchor="middle" x="498" y="-451.6" font-family="Courier,monospace" font-size="11.00">Item_Filter_List</text>
</a>
</g>
<!-- \\Yetti\\API\\ListAbstract -->
<g id="node23" class="node"><title>\\Yetti\\API\\ListAbstract</title>
<a xlink:href="ListAbstract.html" xlink:title="ListAbstract" target="_parent">
<polygon fill="none" stroke="black" points="317.713,-258 222.287,-258 222.287,-222 317.713,-222 317.713,-258"/>
<text text-anchor="middle" x="270" y="-235.6" font-family="Courier,monospace" font-size="11.00">ListAbstract</text>
</a>
</g>
<!-- \\Yetti\\API\\Item_Filter_List&#45;&gt;\\Yetti\\API\\ListAbstract -->
<g id="edge18" class="edge"><title>\\Yetti\\API\\Item_Filter_List&#45;&gt;\\Yetti\\API\\ListAbstract</title>
<path fill="none" stroke="black" d="M437.006,-440.621C430.83,-437.44 424.999,-433.61 420,-429 362.077,-375.587 405.923,-320.413 348,-267 342.069,-261.531 334.966,-257.158 327.505,-253.666"/>
<polygon fill="none" stroke="black" points="328.505,-250.291 317.926,-249.696 325.825,-256.758 328.505,-250.291"/>
</g>
<!-- \\Yetti\\API\\Item_Filter_Type_List -->
<g id="node13" class="node"><title>\\Yetti\\API\\Item_Filter_Type_List</title>
<a xlink:href="Item.Filter.Type.List.html" xlink:title="Item_Filter_Type_List" target="_parent">
<polygon fill="none" stroke="black" points="575.123,-420 420.877,-420 420.877,-384 575.123,-384 575.123,-420"/>
<text text-anchor="middle" x="498" y="-397.6" font-family="Courier,monospace" font-size="11.00">Item_Filter_Type_List</text>
</a>
</g>
<!-- \\Yetti\\API\\Item_Filter_Type_List&#45;&gt;\\Yetti\\API\\ListAbstract -->
<g id="edge20" class="edge"><title>\\Yetti\\API\\Item_Filter_Type_List&#45;&gt;\\Yetti\\API\\ListAbstract</title>
<path fill="none" stroke="black" d="M434.225,-383.991C429.186,-381.369 424.364,-378.387 420,-375 374.427,-339.629 393.573,-302.371 348,-267 341.784,-262.175 334.64,-258.173 327.264,-254.864"/>
<polygon fill="none" stroke="black" points="328.43,-251.56 317.849,-251.033 325.792,-258.044 328.43,-251.56"/>
</g>
<!-- \\Yetti\\API\\Item_Filter_Type -->
<g id="node14" class="node"><title>\\Yetti\\API\\Item_Filter_Type</title>
<a xlink:href="Item.Filter.Type.html" xlink:title="Item_Filter_Type" target="_parent">
<polygon fill="none" stroke="black" points="330.618,-582 209.382,-582 209.382,-546 330.618,-546 330.618,-582"/>
<text text-anchor="middle" x="270" y="-559.6" font-family="Courier,monospace" font-size="11.00">Item_Filter_Type</text>
</a>
</g>
<!-- \\Yetti\\API\\Item_Filter_Type&#45;&gt;\\Yetti\\API\\BaseAbstract -->
<g id="edge22" class="edge"><title>\\Yetti\\API\\Item_Filter_Type&#45;&gt;\\Yetti\\API\\BaseAbstract</title>
<path fill="none" stroke="black" d="M209.464,-545.857C203.408,-543.211 197.477,-540.262 192,-537 154.147,-514.458 117.715,-478.633 95.3524,-454.489"/>
<polygon fill="none" stroke="black" points="97.9284,-452.119 88.6024,-447.092 92.7577,-456.838 97.9284,-452.119"/>
</g>
<!-- \\Yetti\\API\\Item_Filter -->
<g id="node15" class="node"><title>\\Yetti\\API\\Item_Filter</title>
<a xlink:href="Item.Filter.html" xlink:title="Item_Filter" target="_parent">
<polygon fill="none" stroke="black" points="314.113,-528 225.887,-528 225.887,-492 314.113,-492 314.113,-528"/>
<text text-anchor="middle" x="270" y="-505.6" font-family="Courier,monospace" font-size="11.00">Item_Filter</text>
</a>
</g>
<!-- \\Yetti\\API\\Item_Filter&#45;&gt;\\Yetti\\API\\BaseAbstract -->
<g id="edge24" class="edge"><title>\\Yetti\\API\\Item_Filter&#45;&gt;\\Yetti\\API\\BaseAbstract</title>
<path fill="none" stroke="black" d="M225.581,-495.532C214.555,-491.651 202.781,-487.326 192,-483 167.881,-473.321 141.521,-461.492 119.754,-451.376"/>
<polygon fill="none" stroke="black" points="120.956,-448.074 110.415,-447.009 117.991,-454.415 120.956,-448.074"/>
</g>
<!-- \\Yetti\\API\\Item_List -->
<g id="node16" class="node"><title>\\Yetti\\API\\Item_List</title>
<a xlink:href="Item.List.html" xlink:title="Item_List" target="_parent">
<polygon fill="none" stroke="black" points="763.911,-636 688.089,-636 688.089,-600 763.911,-600 763.911,-636"/>
<text text-anchor="middle" x="726" y="-613.6" font-family="Courier,monospace" font-size="11.00">Item_List</text>
</a>
</g>
<!-- \\Yetti\\API\\Item_List&#45;&gt;\\Yetti\\API\\Resource_ListAbstract -->
<g id="edge26" class="edge"><title>\\Yetti\\API\\Item_List&#45;&gt;\\Yetti\\API\\Resource_ListAbstract</title>
<path fill="none" stroke="black" d="M687.99,-607.573C674.98,-603.251 660.497,-597.672 648,-591 612.714,-572.162 611.286,-555.838 576,-537 572.907,-535.349 569.692,-533.764 566.409,-532.25"/>
<polygon fill="none" stroke="black" points="567.581,-528.943 557.014,-528.166 564.79,-535.362 567.581,-528.943"/>
</g>
<!-- \\Yetti\\API\\Item_Type_List -->
<g id="node17" class="node"><title>\\Yetti\\API\\Item_Type_List</title>
<a xlink:href="Item.Type.List.html" xlink:title="Item_Type_List" target="_parent">
<polygon fill="none" stroke="black" points="552.416,-690 443.584,-690 443.584,-654 552.416,-654 552.416,-690"/>
<text text-anchor="middle" x="498" y="-667.6" font-family="Courier,monospace" font-size="11.00">Item_Type_List</text>
</a>
</g>
<!-- \\Yetti\\API\\Item_Type_List&#45;&gt;\\Yetti\\API\\ListAbstract -->
<g id="edge28" class="edge"><title>\\Yetti\\API\\Item_Type_List&#45;&gt;\\Yetti\\API\\ListAbstract</title>
<path fill="none" stroke="black" d="M443.582,-661.513C434.665,-657.626 426.286,-652.3 420,-645 308.409,-515.403 459.591,-396.597 348,-267 342.353,-260.442 335.016,-255.476 327.117,-251.716"/>
<polygon fill="none" stroke="black" points="328.234,-248.391 317.654,-247.833 325.577,-254.867 328.234,-248.391"/>
</g>
<!-- \\Yetti\\API\\Item_Type -->
<g id="node18" class="node"><title>\\Yetti\\API\\Item_Type</title>
<a xlink:href="Item.Type.html" xlink:title="Item_Type" target="_parent">
<polygon fill="none" stroke="black" points="307.911,-474 232.089,-474 232.089,-438 307.911,-438 307.911,-474"/>
<text text-anchor="middle" x="270" y="-451.6" font-family="Courier,monospace" font-size="11.00">Item_Type</text>
</a>
</g>
<!-- \\Yetti\\API\\Item_Type&#45;&gt;\\Yetti\\API\\BaseAbstract -->
<g id="edge30" class="edge"><title>\\Yetti\\API\\Item_Type&#45;&gt;\\Yetti\\API\\BaseAbstract</title>
<path fill="none" stroke="black" d="M232.134,-450.922C203.292,-446.948 162.687,-441.355 129.713,-436.813"/>
<polygon fill="none" stroke="black" points="130.131,-433.337 119.746,-435.44 129.175,-440.272 130.131,-433.337"/>
</g>
<!-- \\Yetti\\API\\Item_Variation -->
<g id="node19" class="node"><title>\\Yetti\\API\\Item_Variation</title>
<a xlink:href="Item.Variation.html" xlink:title="Item_Variation" target="_parent">
<polygon fill="none" stroke="black" points="780.416,-420 671.584,-420 671.584,-384 780.416,-384 780.416,-420"/>
<text text-anchor="middle" x="726" y="-397.6" font-family="Courier,monospace" font-size="11.00">Item_Variation</text>
</a>
</g>
<!-- \\Yetti\\API\\Item -->
<g id="node20" class="node"><title>\\Yetti\\API\\Item</title>
<a xlink:href="Item.html" xlink:title="Item" target="_parent">
<polygon fill="none" stroke="black" points="525,-258 471,-258 471,-222 525,-222 525,-258"/>
<text text-anchor="middle" x="498" y="-235.6" font-family="Courier,monospace" font-size="11.00">Item</text>
</a>
</g>
<!-- \\Yetti\\API\\Item&#45;&gt;\\Yetti\\API\\Resource_BaseAbstract -->
<g id="edge32" class="edge"><title>\\Yetti\\API\\Item&#45;&gt;\\Yetti\\API\\Resource_BaseAbstract</title>
<path fill="none" stroke="black" d="M470.633,-233.7C442.665,-227.017 397.002,-216.107 356.402,-206.406"/>
<polygon fill="none" stroke="black" points="357.015,-202.954 346.476,-204.034 355.388,-209.762 357.015,-202.954"/>
</g>
<!-- \\Yetti\\API\\Language_List -->
<g id="node21" class="node"><title>\\Yetti\\API\\Language_List</title>
<a xlink:href="Language.List.html" xlink:title="Language_List" target="_parent">
<polygon fill="none" stroke="black" points="548.814,-636 447.186,-636 447.186,-600 548.814,-600 548.814,-636"/>
<text text-anchor="middle" x="498" y="-613.6" font-family="Courier,monospace" font-size="11.00">Language_List</text>
</a>
</g>
<!-- \\Yetti\\API\\Language_List&#45;&gt;\\Yetti\\API\\ListAbstract -->
<g id="edge34" class="edge"><title>\\Yetti\\API\\Language_List&#45;&gt;\\Yetti\\API\\ListAbstract</title>
<path fill="none" stroke="black" d="M446.932,-608.666C436.839,-604.701 427.148,-599.051 420,-591 322.057,-480.695 445.943,-377.305 348,-267 342.321,-260.605 335.038,-255.724 327.224,-251.999"/>
<polygon fill="none" stroke="black" points="328.449,-248.719 317.87,-248.137 325.777,-255.189 328.449,-248.719"/>
</g>
<!-- \\Yetti\\API\\Language -->
<g id="node22" class="node"><title>\\Yetti\\API\\Language</title>
<a xlink:href="Language.html" xlink:title="Language" target="_parent">
<polygon fill="none" stroke="black" points="304.309,-420 235.691,-420 235.691,-384 304.309,-384 304.309,-420"/>
<text text-anchor="middle" x="270" y="-397.6" font-family="Courier,monospace" font-size="11.00">Language</text>
</a>
</g>
<!-- \\Yetti\\API\\Language&#45;&gt;\\Yetti\\API\\BaseAbstract -->
<g id="edge36" class="edge"><title>\\Yetti\\API\\Language&#45;&gt;\\Yetti\\API\\BaseAbstract</title>
<path fill="none" stroke="black" d="M235.306,-406.641C206.442,-410.618 164.252,-416.43 130.121,-421.131"/>
<polygon fill="none" stroke="black" points="129.24,-417.719 119.812,-422.551 130.196,-424.654 129.24,-417.719"/>
</g>
<!-- \\Yetti\\API\\ListAbstract&#45;&gt;\\Yetti\\API\\BaseAbstract -->
<g id="edge38" class="edge"><title>\\Yetti\\API\\ListAbstract&#45;&gt;\\Yetti\\API\\BaseAbstract</title>
<path fill="none" stroke="black" d="M222.372,-251.324C211.771,-255.221 200.995,-260.341 192,-267 142.693,-303.501 104.99,-366.261 86.2046,-402.006"/>
<polygon fill="none" stroke="black" points="83.0897,-400.41 81.6268,-410.903 89.3141,-403.612 83.0897,-400.41"/>
</g>
<!-- \\Yetti\\API\\ListIterator -->
<g id="node24" class="node"><title>\\Yetti\\API\\ListIterator</title>
<a xlink:href="ListIterator.html" xlink:title="ListIterator" target="_parent">
<polygon fill="none" stroke="black" points="773.713,-258 678.287,-258 678.287,-222 773.713,-222 773.713,-258"/>
<text text-anchor="middle" x="726" y="-235.6" font-family="Courier,monospace" font-size="11.00">ListIterator</text>
</a>
</g>
<!-- \\Iterator -->
<g id="node61" class="node"><title>\\Iterator</title>
<ellipse fill="none" stroke="black" cx="498" cy="-126" rx="44.6347" ry="18"/>
<text text-anchor="middle" x="498" y="-120.4" font-family="Times,serif" font-size="14.00" fill="gray">\\Iterator</text>
</g>
<!-- \\Yetti\\API\\ListIterator&#45;&gt;\\Iterator -->
<g id="edge54" class="edge"><title>\\Yetti\\API\\ListIterator&#45;&gt;\\Iterator</title>
<path fill="none" stroke="black" stroke-dasharray="1,5" d="M678.316,-226.43C668.048,-222.684 657.43,-218.194 648,-213 612.25,-193.309 611.407,-176.3 576,-156 565.796,-150.15 554.23,-144.97 543.222,-140.631"/>
<polygon fill="none" stroke="black" points="544.331,-137.308 533.74,-137.038 541.851,-143.854 544.331,-137.308"/>
</g>
<!-- \\Countable -->
<g id="node63" class="node"><title>\\Countable</title>
<ellipse fill="none" stroke="black" cx="498" cy="-72" rx="56.1921" ry="18"/>
<text text-anchor="middle" x="498" y="-66.4" font-family="Times,serif" font-size="14.00" fill="gray">\\Countable</text>
</g>
<!-- \\Yetti\\API\\ListIterator&#45;&gt;\\Countable -->
<g id="edge56" class="edge"><title>\\Yetti\\API\\ListIterator&#45;&gt;\\Countable</title>
<path fill="none" stroke="black" stroke-dasharray="1,5" d="M678.029,-229.123C667.44,-225.21 656.755,-219.97 648,-213 601.117,-175.676 622.883,-136.324 576,-99 569.388,-93.7364 561.677,-89.4598 553.737,-85.996"/>
<polygon fill="none" stroke="black" points="554.95,-82.7121 544.364,-82.2927 552.378,-89.2224 554.95,-82.7121"/>
</g>
<!-- \\ArrayAccess -->
<g id="node65" class="node"><title>\\ArrayAccess</title>
<ellipse fill="none" stroke="black" cx="498" cy="-18" rx="66.044" ry="18"/>
<text text-anchor="middle" x="498" y="-12.4" font-family="Times,serif" font-size="14.00" fill="gray">\\ArrayAccess</text>
</g>
<!-- \\Yetti\\API\\ListIterator&#45;&gt;\\ArrayAccess -->
<g id="edge58" class="edge"><title>\\Yetti\\API\\ListIterator&#45;&gt;\\ArrayAccess</title>
<path fill="none" stroke="black" stroke-dasharray="1,5" d="M678.001,-230.382C667.17,-226.415 656.383,-220.835 648,-213 588.649,-157.533 635.351,-100.467 576,-45 571.063,-40.3859 565.292,-36.5539 559.17,-33.3727"/>
<polygon fill="none" stroke="black" points="560.552,-30.1563 550.004,-29.1623 557.63,-36.5172 560.552,-30.1563"/>
</g>
<!-- \\Yetti\\API\\Resource_Asset_Group -->
<g id="node25" class="node"><title>\\Yetti\\API\\Resource_Asset_Group</title>
<a xlink:href="Resource.Asset.Group.html" xlink:title="Resource_Asset_Group" target="_parent">
<polygon fill="none" stroke="black" points="572.021,-582 423.979,-582 423.979,-546 572.021,-546 572.021,-582"/>
<text text-anchor="middle" x="498" y="-559.6" font-family="Courier,monospace" font-size="11.00">Resource_Asset_Group</text>
</a>
</g>
<!-- \\Yetti\\API\\Resource_Asset_Group&#45;&gt;\\Yetti\\API\\ListAbstract -->
<g id="edge40" class="edge"><title>\\Yetti\\API\\Resource_Asset_Group&#45;&gt;\\Yetti\\API\\ListAbstract</title>
<path fill="none" stroke="black" d="M430.384,-545.799C426.594,-543.242 423.08,-540.326 420,-537 335.611,-445.882 432.389,-358.118 348,-267 342.188,-260.725 334.835,-255.908 326.991,-252.21"/>
<polygon fill="none" stroke="black" points="328.2,-248.923 317.62,-248.364 325.542,-255.399 328.2,-248.923"/>
</g>
<!-- \\Yetti\\API\\Resource_Asset -->
<g id="node26" class="node"><title>\\Yetti\\API\\Resource_Asset</title>
<a xlink:href="Resource.Asset.html" xlink:title="Resource_Asset" target="_parent">
<polygon fill="none" stroke="black" points="324.416,-366 215.584,-366 215.584,-330 324.416,-330 324.416,-366"/>
<text text-anchor="middle" x="270" y="-343.6" font-family="Courier,monospace" font-size="11.00">Resource_Asset</text>
</a>
</g>
<!-- \\Yetti\\API\\Resource_Asset&#45;&gt;\\Yetti\\API\\BaseAbstract -->
<g id="edge42" class="edge"><title>\\Yetti\\API\\Resource_Asset&#45;&gt;\\Yetti\\API\\BaseAbstract</title>
<path fill="none" stroke="black" d="M215.751,-365.979C207.748,-368.881 199.625,-371.94 192,-375 167.881,-384.679 141.521,-396.508 119.754,-406.624"/>
<polygon fill="none" stroke="black" points="117.991,-403.585 110.415,-410.991 120.956,-409.926 117.991,-403.585"/>
</g>
<!-- \\Yetti\\API\\Resource_BaseAbstract&#45;&gt;\\Yetti\\API\\BaseAbstract -->
<g id="edge44" class="edge"><title>\\Yetti\\API\\Resource_BaseAbstract&#45;&gt;\\Yetti\\API\\BaseAbstract</title>
<path fill="none" stroke="black" d="M205.145,-204.038C200.454,-206.643 196.001,-209.614 192,-213 131.076,-264.55 95.7823,-355.548 81.095,-401.217"/>
<polygon fill="none" stroke="black" points="77.7536,-400.175 78.114,-410.764 84.4355,-402.261 77.7536,-400.175"/>
</g>
<!-- \\Yetti\\API\\Resource_ListAbstract&#45;&gt;\\Yetti\\API\\ListAbstract -->
<g id="edge46" class="edge"><title>\\Yetti\\API\\Resource_ListAbstract&#45;&gt;\\Yetti\\API\\ListAbstract</title>
<path fill="none" stroke="black" d="M430.975,-491.813C426.994,-489.252 423.28,-486.331 420,-483 349.003,-410.893 418.997,-339.107 348,-267 342.071,-260.978 334.724,-256.297 326.941,-252.658"/>
<polygon fill="none" stroke="black" points="328.244,-249.409 317.664,-248.847 325.585,-255.884 328.244,-249.409"/>
</g>
<!-- \\Yetti\\API\\Resource_Property -->
<g id="node29" class="node"><title>\\Yetti\\API\\Resource_Property</title>
<a xlink:href="Resource.Property.html" xlink:title="Resource_Property" target="_parent">
<polygon fill="none" stroke="black" points="334.218,-312 205.782,-312 205.782,-276 334.218,-276 334.218,-312"/>
<text text-anchor="middle" x="270" y="-289.6" font-family="Courier,monospace" font-size="11.00">Resource_Property</text>
</a>
</g>
<!-- \\Yetti\\API\\Resource_Property&#45;&gt;\\Yetti\\API\\BaseAbstract -->
<g id="edge48" class="edge"><title>\\Yetti\\API\\Resource_Property&#45;&gt;\\Yetti\\API\\BaseAbstract</title>
<path fill="none" stroke="black" d="M209.464,-312.143C203.408,-314.789 197.477,-317.738 192,-321 154.147,-343.542 117.715,-379.367 95.3524,-403.511"/>
<polygon fill="none" stroke="black" points="92.7577,-401.162 88.6024,-410.908 97.9284,-405.881 92.7577,-401.162"/>
</g>
<!-- \\Yetti\\API\\Result -->
<g id="node30" class="node"><title>\\Yetti\\API\\Result</title>
<a xlink:href="Result.html" xlink:title="Result" target="_parent">
<polygon fill="none" stroke="black" points="753.608,-312 698.392,-312 698.392,-276 753.608,-276 753.608,-312"/>
<text text-anchor="middle" x="726" y="-289.6" font-family="Courier,monospace" font-size="11.00">Result</text>
</a>
</g>
<!-- \\Yetti\\API\\User_List -->
<g id="node31" class="node"><title>\\Yetti\\API\\User_List</title>
<a xlink:href="User.List.html" xlink:title="User_List" target="_parent">
<polygon fill="none" stroke="black" points="763.911,-582 688.089,-582 688.089,-546 763.911,-546 763.911,-582"/>
<text text-anchor="middle" x="726" y="-559.6" font-family="Courier,monospace" font-size="11.00">User_List</text>
</a>
</g>
<!-- \\Yetti\\API\\User_List&#45;&gt;\\Yetti\\API\\Resource_ListAbstract -->
<g id="edge50" class="edge"><title>\\Yetti\\API\\User_List&#45;&gt;\\Yetti\\API\\Resource_ListAbstract</title>
<path fill="none" stroke="black" d="M688.186,-555.204C660.176,-548.511 620.475,-539.025 584.669,-530.469"/>
<polygon fill="none" stroke="black" points="585.225,-527.004 574.686,-528.084 583.598,-533.812 585.225,-527.004"/>
</g>
<!-- \\Yetti\\API\\User -->
<g id="node32" class="node"><title>\\Yetti\\API\\User</title>
<a xlink:href="User.html" xlink:title="User" target="_parent">
<polygon fill="none" stroke="black" points="525,-312 471,-312 471,-276 525,-276 525,-312"/>
<text text-anchor="middle" x="498" y="-289.6" font-family="Courier,monospace" font-size="11.00">User</text>
</a>
</g>
<!-- \\Yetti\\API\\User&#45;&gt;\\Yetti\\API\\Resource_BaseAbstract -->
<g id="edge52" class="edge"><title>\\Yetti\\API\\User&#45;&gt;\\Yetti\\API\\Resource_BaseAbstract</title>
<path fill="none" stroke="black" d="M470.854,-287.013C455.547,-282.395 436.121,-275.606 420,-267 384.714,-248.162 383.286,-231.838 348,-213 344.907,-211.349 341.692,-209.764 338.409,-208.25"/>
<polygon fill="none" stroke="black" points="339.581,-204.943 329.014,-204.166 336.79,-211.362 339.581,-204.943"/>
</g>
<!-- \\Yetti\\API\\Webservice -->
<g id="node33" class="node"><title>\\Yetti\\API\\Webservice</title>
<a xlink:href="Webservice.html" xlink:title="Webservice" target="_parent">
<polygon fill="none" stroke="black" points="767.011,-204 684.989,-204 684.989,-168 767.011,-168 767.011,-204"/>
<text text-anchor="middle" x="726" y="-181.6" font-family="Courier,monospace" font-size="11.00">Webservice</text>
</a>
</g>
</g>
</svg>
