<?xml version="1.0" encoding="UTF-8" standalone="no"?>
<!DOCTYPE svg PUBLIC "-//W3C//DTD SVG 1.1//EN"
 "http://www.w3.org/Graphics/SVG/1.1/DTD/svg11.dtd">
<!-- Generated by graphviz version 2.28.0 (20110509.1545)
 -->
<!-- Title: G Pages: 1 -->
<svg width="768pt" height="494pt"
 viewBox="0.00 0.00 768.00 494.00" xmlns="http://www.w3.org/2000/svg" xmlns:xlink="http://www.w3.org/1999/xlink">
<g id="graph1" class="graph" transform="scale(1 1) rotate(0) translate(4 490)">
<title>G</title>
<polygon fill="white" stroke="white" points="-4,5 -4,-490 765,-490 765,5 -4,5"/>
<g id="graph2" class="cluster"><title>cluster_Yetti</title>
<polyline fill="none" stroke="gray" points="20,-44 740,-44 "/>
<path fill="none" stroke="gray" d="M740,-44C746,-44 752,-50 752,-56"/>
<polyline fill="none" stroke="gray" points="752,-56 752,-466 "/>
<path fill="none" stroke="gray" d="M752,-466C752,-472 746,-478 740,-478"/>
<polyline fill="none" stroke="gray" points="740,-478 20,-478 "/>
<path fill="none" stroke="gray" d="M20,-478C14,-478 8,-472 8,-466"/>
<polyline fill="none" stroke="gray" points="8,-466 8,-56 "/>
<path fill="none" stroke="gray" d="M8,-56C8,-50 14,-44 20,-44"/>
<text text-anchor="middle" x="380" y="-463" font-family="Times,serif" font-size="11.00" fill="gray">Yetti</text>
</g>
<g id="graph3" class="cluster"><title>cluster_Yetti\API</title>
<polyline fill="none" stroke="gray" points="28,-52 732,-52 "/>
<path fill="none" stroke="gray" d="M732,-52C738,-52 744,-58 744,-64"/>
<polyline fill="none" stroke="gray" points="744,-64 744,-437 "/>
<path fill="none" stroke="gray" d="M744,-437C744,-443 738,-449 732,-449"/>
<polyline fill="none" stroke="gray" points="732,-449 28,-449 "/>
<path fill="none" stroke="gray" d="M28,-449C22,-449 16,-443 16,-437"/>
<polyline fill="none" stroke="gray" points="16,-437 16,-64 "/>
<path fill="none" stroke="gray" d="M16,-64C16,-58 22,-52 28,-52"/>
<text text-anchor="middle" x="380" y="-434" font-family="Times,serif" font-size="11.00" fill="gray">API</text>
</g>
<!-- \\Yetti\\API\\BaseAbstract -->
<g id="node3" class="node"><title>\\Yetti\\API\\BaseAbstract</title>
<a xlink:href="BaseAbstract.inc.html" xlink:title="BaseAbstract" target="_parent">
<polygon fill="none" stroke="black" points="119.713,-285 24.2869,-285 24.2869,-249 119.713,-249 119.713,-285"/>
<text text-anchor="middle" x="72" y="-262.6" font-family="Courier,monospace" font-size="11.00">BaseAbstract</text>
</a>
</g>
<!-- \\Yetti\\API\\Collection_List -->
<g id="node4" class="node"><title>\\Yetti\\API\\Collection_List</title>
<a xlink:href="Collection.List.inc.html" xlink:title="Collection_List" target="_parent">
<polygon fill="none" stroke="black" points="735.516,-366 620.484,-366 620.484,-330 735.516,-330 735.516,-366"/>
<text text-anchor="middle" x="678" y="-343.6" font-family="Courier,monospace" font-size="11.00">Collection_List</text>
</a>
</g>
<!-- \\Yetti\\API\\Resource_ListAbstract -->
<g id="node17" class="node"><title>\\Yetti\\API\\Resource_ListAbstract</title>
<a xlink:href="Resource.ListAbstract.inc.html" xlink:title="Resource_ListAbstract" target="_parent">
<polygon fill="none" stroke="black" points="547.123,-258 392.877,-258 392.877,-222 547.123,-222 547.123,-258"/>
<text text-anchor="middle" x="470" y="-235.6" font-family="Courier,monospace" font-size="11.00">Resource_ListAbstract</text>
</a>
</g>
<!-- \\Yetti\\API\\Collection_List&#45;&gt;\\Yetti\\API\\Resource_ListAbstract -->
<g id="edge4" class="edge"><title>\\Yetti\\API\\Collection_List&#45;&gt;\\Yetti\\API\\Resource_ListAbstract</title>
<path fill="none" stroke="black" d="M636.299,-329.958C630.728,-327.132 625.156,-324.112 620,-321 585.752,-300.334 583.286,-285.838 548,-267 544.907,-265.349 541.692,-263.764 538.409,-262.25"/>
<polygon fill="none" stroke="black" points="539.581,-258.943 529.014,-258.166 536.79,-265.362 539.581,-258.943"/>
</g>
<!-- \\Yetti\\API\\Collection -->
<g id="node5" class="node"><title>\\Yetti\\API\\Collection</title>
<a xlink:href="Collection.inc.html" xlink:title="Collection" target="_parent">
<polygon fill="none" stroke="black" points="511.011,-366 428.989,-366 428.989,-330 511.011,-330 511.011,-366"/>
<text text-anchor="middle" x="470" y="-343.6" font-family="Courier,monospace" font-size="11.00">Collection</text>
</a>
</g>
<!-- \\Yetti\\API\\Resource_Abstract -->
<g id="node14" class="node"><title>\\Yetti\\API\\Resource_Abstract</title>
<a xlink:href="Resource.Abstract.inc.html" xlink:title="Resource_Abstract" target="_parent">
<polygon fill="none" stroke="black" points="320.218,-204 191.782,-204 191.782,-168 320.218,-168 320.218,-204"/>
<text text-anchor="middle" x="256" y="-181.6" font-family="Courier,monospace" font-size="11.00">Resource_Abstract</text>
</a>
</g>
<!-- \\Yetti\\API\\Collection&#45;&gt;\\Yetti\\API\\Resource_Abstract -->
<g id="edge6" class="edge"><title>\\Yetti\\API\\Collection&#45;&gt;\\Yetti\\API\\Resource_Abstract</title>
<path fill="none" stroke="black" d="M428.953,-339.314C416.257,-335.22 402.743,-329.338 392,-321 346.427,-285.629 364.351,-249.892 320,-213 318.648,-211.875 317.242,-210.79 315.792,-209.744"/>
<polygon fill="none" stroke="black" points="317.404,-206.62 307.095,-204.175 313.629,-212.515 317.404,-206.62"/>
</g>
<!-- \\Yetti\\API\\Exception_Auth -->
<g id="node6" class="node"><title>\\Yetti\\API\\Exception_Auth</title>
<a xlink:href="Exception.Auth.inc.html" xlink:title="Exception_Auth" target="_parent">
<polygon fill="none" stroke="black" points="732.416,-150 623.584,-150 623.584,-114 732.416,-114 732.416,-150"/>
<text text-anchor="middle" x="678" y="-127.6" font-family="Courier,monospace" font-size="11.00">Exception_Auth</text>
</a>
</g>
<!-- \\Yetti\\API\\Exception -->
<g id="node7" class="node"><title>\\Yetti\\API\\Exception</title>
<a xlink:href="Exception.inc.html" xlink:title="Exception" target="_parent">
<polygon fill="none" stroke="black" points="507.911,-96 432.089,-96 432.089,-60 507.911,-60 507.911,-96"/>
<text text-anchor="middle" x="470" y="-73.6" font-family="Courier,monospace" font-size="11.00">Exception</text>
</a>
</g>
<!-- \\Yetti\\API\\Exception_Auth&#45;&gt;\\Yetti\\API\\Exception -->
<g id="edge8" class="edge"><title>\\Yetti\\API\\Exception_Auth&#45;&gt;\\Yetti\\API\\Exception</title>
<path fill="none" stroke="black" d="M623.682,-118.023C590.873,-109.423 549.22,-98.5042 517.711,-90.2445"/>
<polygon fill="none" stroke="black" points="518.421,-86.8127 507.861,-87.6625 516.646,-93.5839 518.421,-86.8127"/>
</g>
<!-- \\Exception -->
<g id="node27" class="node"><title>\\Exception</title>
<ellipse fill="none" stroke="black" cx="256" cy="-18" rx="52.7417" ry="18"/>
<text text-anchor="middle" x="256" y="-12.4" font-family="Times,serif" font-size="14.00" fill="gray">\Exception</text>
</g>
<!-- \\Yetti\\API\\Exception&#45;&gt;\\Exception -->
<g id="edge10" class="edge"><title>\\Yetti\\API\\Exception&#45;&gt;\\Exception</title>
<path fill="none" stroke="black" d="M432.072,-67.5488C397.442,-57.7478 345.391,-43.0162 307.04,-32.1623"/>
<polygon fill="none" stroke="black" points="307.684,-28.7072 297.109,-29.3517 305.778,-35.4427 307.684,-28.7072"/>
</g>
<!-- \\Yetti\\API\\Item_Collections -->
<g id="node8" class="node"><title>\\Yetti\\API\\Item_Collections</title>
<a xlink:href="Item.Collections.inc.html" xlink:title="Item_Collections" target="_parent">
<polygon fill="none" stroke="black" points="316.618,-420 195.382,-420 195.382,-384 316.618,-384 316.618,-420"/>
<text text-anchor="middle" x="256" y="-397.6" font-family="Courier,monospace" font-size="11.00">Item_Collections</text>
</a>
</g>
<!-- \\Yetti\\API\\Item_Collections&#45;&gt;\\Yetti\\API\\BaseAbstract -->
<g id="edge12" class="edge"><title>\\Yetti\\API\\Item_Collections&#45;&gt;\\Yetti\\API\\BaseAbstract</title>
<path fill="none" stroke="black" d="M207.996,-383.934C202.46,-381.205 197.006,-378.215 192,-375 155.303,-351.43 119.049,-316.373 96.3816,-292.647"/>
<polygon fill="none" stroke="black" points="98.6416,-289.942 89.2342,-285.069 93.549,-294.745 98.6416,-289.942"/>
</g>
<!-- \\Yetti\\API\\Item_List -->
<g id="node9" class="node"><title>\\Yetti\\API\\Item_List</title>
<a xlink:href="Item.List.inc.html" xlink:title="Item_List" target="_parent">
<polygon fill="none" stroke="black" points="715.911,-312 640.089,-312 640.089,-276 715.911,-276 715.911,-312"/>
<text text-anchor="middle" x="678" y="-289.6" font-family="Courier,monospace" font-size="11.00">Item_List</text>
</a>
</g>
<!-- \\Yetti\\API\\Item_List&#45;&gt;\\Yetti\\API\\Resource_ListAbstract -->
<g id="edge14" class="edge"><title>\\Yetti\\API\\Item_List&#45;&gt;\\Yetti\\API\\Resource_ListAbstract</title>
<path fill="none" stroke="black" d="M640.171,-284.346C615.109,-277.776 580.982,-268.83 549.943,-260.694"/>
<polygon fill="none" stroke="black" points="550.55,-257.235 539.989,-258.084 548.775,-264.006 550.55,-257.235"/>
</g>
<!-- \\Yetti\\API\\Item -->
<g id="node10" class="node"><title>\\Yetti\\API\\Item</title>
<a xlink:href="Item.inc.html" xlink:title="Item" target="_parent">
<polygon fill="none" stroke="black" points="497,-312 443,-312 443,-276 497,-276 497,-312"/>
<text text-anchor="middle" x="470" y="-289.6" font-family="Courier,monospace" font-size="11.00">Item</text>
</a>
</g>
<!-- \\Yetti\\API\\Item&#45;&gt;\\Yetti\\API\\Resource_Abstract -->
<g id="edge16" class="edge"><title>\\Yetti\\API\\Item&#45;&gt;\\Yetti\\API\\Resource_Abstract</title>
<path fill="none" stroke="black" d="M442.854,-287.013C427.547,-282.395 408.121,-275.606 392,-267 356.714,-248.162 354.629,-233.021 320,-213 317.355,-211.471 314.608,-209.977 311.804,-208.527"/>
<polygon fill="none" stroke="black" points="313.235,-205.33 302.718,-204.053 310.143,-211.61 313.235,-205.33"/>
</g>
<!-- \\Yetti\\API\\Language_List -->
<g id="node11" class="node"><title>\\Yetti\\API\\Language_List</title>
<a xlink:href="Language.List.inc.html" xlink:title="Language_List" target="_parent">
<polygon fill="none" stroke="black" points="520.814,-204 419.186,-204 419.186,-168 520.814,-168 520.814,-204"/>
<text text-anchor="middle" x="470" y="-181.6" font-family="Courier,monospace" font-size="11.00">Language_List</text>
</a>
</g>
<!-- \\Yetti\\API\\ListAbstract -->
<g id="node13" class="node"><title>\\Yetti\\API\\ListAbstract</title>
<a xlink:href="ListAbstract.inc.html" xlink:title="ListAbstract" target="_parent">
<polygon fill="none" stroke="black" points="303.713,-150 208.287,-150 208.287,-114 303.713,-114 303.713,-150"/>
<text text-anchor="middle" x="256" y="-127.6" font-family="Courier,monospace" font-size="11.00">ListAbstract</text>
</a>
</g>
<!-- \\Yetti\\API\\Language_List&#45;&gt;\\Yetti\\API\\ListAbstract -->
<g id="edge18" class="edge"><title>\\Yetti\\API\\Language_List&#45;&gt;\\Yetti\\API\\ListAbstract</title>
<path fill="none" stroke="black" d="M419.027,-173.271C387.41,-165.218 346.46,-154.787 313.638,-146.427"/>
<polygon fill="none" stroke="black" points="314.287,-142.98 303.733,-143.904 312.56,-149.764 314.287,-142.98"/>
</g>
<!-- \\Yetti\\API\\Language -->
<g id="node12" class="node"><title>\\Yetti\\API\\Language</title>
<a xlink:href="Language.inc.html" xlink:title="Language" target="_parent">
<polygon fill="none" stroke="black" points="290.309,-366 221.691,-366 221.691,-330 290.309,-330 290.309,-366"/>
<text text-anchor="middle" x="256" y="-343.6" font-family="Courier,monospace" font-size="11.00">Language</text>
</a>
</g>
<!-- \\Yetti\\API\\Language&#45;&gt;\\Yetti\\API\\BaseAbstract -->
<g id="edge20" class="edge"><title>\\Yetti\\API\\Language&#45;&gt;\\Yetti\\API\\BaseAbstract</title>
<path fill="none" stroke="black" d="M221.594,-333.838C212.019,-329.737 201.581,-325.226 192,-321 168.765,-310.751 143.098,-299.14 121.568,-289.319"/>
<polygon fill="none" stroke="black" points="122.853,-286.058 112.302,-285.086 119.944,-292.425 122.853,-286.058"/>
</g>
<!-- \\Yetti\\API\\ListAbstract&#45;&gt;\\Yetti\\API\\BaseAbstract -->
<g id="edge22" class="edge"><title>\\Yetti\\API\\ListAbstract&#45;&gt;\\Yetti\\API\\BaseAbstract</title>
<path fill="none" stroke="black" d="M208.328,-149.903C202.678,-152.676 197.106,-155.72 192,-159 155.303,-182.57 119.049,-217.627 96.3816,-241.353"/>
<polygon fill="none" stroke="black" points="93.549,-239.255 89.2342,-248.931 98.6416,-244.058 93.549,-239.255"/>
</g>
<!-- \\Yetti\\API\\Resource_Abstract&#45;&gt;\\Yetti\\API\\BaseAbstract -->
<g id="edge24" class="edge"><title>\\Yetti\\API\\Resource_Abstract&#45;&gt;\\Yetti\\API\\BaseAbstract</title>
<path fill="none" stroke="black" d="M212.587,-204.032C205.695,-207.004 198.641,-210.07 192,-213 168.765,-223.249 143.098,-234.86 121.568,-244.681"/>
<polygon fill="none" stroke="black" points="119.944,-241.575 112.302,-248.914 122.853,-247.942 119.944,-241.575"/>
</g>
<!-- \\Yetti\\API\\Resource_Asset_Group -->
<g id="node15" class="node"><title>\\Yetti\\API\\Resource_Asset_Group</title>
<a xlink:href="Resource.Asset.Group.inc.html" xlink:title="Resource_Asset_Group" target="_parent">
<polygon fill="none" stroke="black" points="544.021,-150 395.979,-150 395.979,-114 544.021,-114 544.021,-150"/>
<text text-anchor="middle" x="470" y="-127.6" font-family="Courier,monospace" font-size="11.00">Resource_Asset_Group</text>
</a>
</g>
<!-- \\Yetti\\API\\Resource_Asset_Group&#45;&gt;\\Yetti\\API\\ListAbstract -->
<g id="edge26" class="edge"><title>\\Yetti\\API\\Resource_Asset_Group&#45;&gt;\\Yetti\\API\\ListAbstract</title>
<path fill="none" stroke="black" d="M395.745,-132C368.921,-132 338.996,-132 313.824,-132"/>
<polygon fill="none" stroke="black" points="313.71,-128.5 303.71,-132 313.71,-135.5 313.71,-128.5"/>
</g>
<!-- \\Yetti\\API\\Resource_Asset -->
<g id="node16" class="node"><title>\\Yetti\\API\\Resource_Asset</title>
<a xlink:href="Resource.Asset.inc.html" xlink:title="Resource_Asset" target="_parent">
<polygon fill="none" stroke="black" points="310.416,-312 201.584,-312 201.584,-276 310.416,-276 310.416,-312"/>
<text text-anchor="middle" x="256" y="-289.6" font-family="Courier,monospace" font-size="11.00">Resource_Asset</text>
</a>
</g>
<!-- \\Yetti\\API\\Resource_Asset&#45;&gt;\\Yetti\\API\\BaseAbstract -->
<g id="edge28" class="edge"><title>\\Yetti\\API\\Resource_Asset&#45;&gt;\\Yetti\\API\\BaseAbstract</title>
<path fill="none" stroke="black" d="M201.378,-286.045C178.818,-282.698 152.548,-278.801 129.669,-275.407"/>
<polygon fill="none" stroke="black" points="130.164,-271.942 119.759,-273.937 129.137,-278.866 130.164,-271.942"/>
</g>
<!-- \\Yetti\\API\\Resource_ListAbstract&#45;&gt;\\Yetti\\API\\ListAbstract -->
<g id="edge30" class="edge"><title>\\Yetti\\API\\Resource_ListAbstract&#45;&gt;\\Yetti\\API\\ListAbstract</title>
<path fill="none" stroke="black" d="M410.986,-221.834C404.454,-219.153 397.998,-216.202 392,-213 356.714,-194.162 354.629,-179.021 320,-159 317.355,-157.471 314.608,-155.977 311.804,-154.527"/>
<polygon fill="none" stroke="black" points="313.235,-151.33 302.718,-150.053 310.143,-157.61 313.235,-151.33"/>
</g>
<!-- \\Yetti\\API\\Resource_Property -->
<g id="node18" class="node"><title>\\Yetti\\API\\Resource_Property</title>
<a xlink:href="Resource.Property.inc.html" xlink:title="Resource_Property" target="_parent">
<polygon fill="none" stroke="black" points="320.218,-258 191.782,-258 191.782,-222 320.218,-222 320.218,-258"/>
<text text-anchor="middle" x="256" y="-235.6" font-family="Courier,monospace" font-size="11.00">Resource_Property</text>
</a>
</g>
<!-- \\Yetti\\API\\Resource_Property&#45;&gt;\\Yetti\\API\\BaseAbstract -->
<g id="edge32" class="edge"><title>\\Yetti\\API\\Resource_Property&#45;&gt;\\Yetti\\API\\BaseAbstract</title>
<path fill="none" stroke="black" d="M191.856,-249.368C171.66,-252.364 149.438,-255.66 129.729,-258.584"/>
<polygon fill="none" stroke="black" points="129.053,-255.146 119.675,-260.076 130.08,-262.07 129.053,-255.146"/>
</g>
<!-- \\Yetti\\API\\Result -->
<g id="node19" class="node"><title>\\Yetti\\API\\Result</title>
<a xlink:href="Result.inc.html" xlink:title="Result" target="_parent">
<polygon fill="none" stroke="black" points="705.608,-204 650.392,-204 650.392,-168 705.608,-168 705.608,-204"/>
<text text-anchor="middle" x="678" y="-181.6" font-family="Courier,monospace" font-size="11.00">Result</text>
</a>
</g>
<!-- \\Yetti\\API\\User_List -->
<g id="node20" class="node"><title>\\Yetti\\API\\User_List</title>
<a xlink:href="User.List.inc.html" xlink:title="User_List" target="_parent">
<polygon fill="none" stroke="black" points="715.911,-258 640.089,-258 640.089,-222 715.911,-222 715.911,-258"/>
<text text-anchor="middle" x="678" y="-235.6" font-family="Courier,monospace" font-size="11.00">User_List</text>
</a>
</g>
<!-- \\Yetti\\API\\User_List&#45;&gt;\\Yetti\\API\\Resource_ListAbstract -->
<g id="edge34" class="edge"><title>\\Yetti\\API\\User_List&#45;&gt;\\Yetti\\API\\Resource_ListAbstract</title>
<path fill="none" stroke="black" d="M640.171,-240C617.086,-240 586.309,-240 557.339,-240"/>
<polygon fill="none" stroke="black" points="557.183,-236.5 547.183,-240 557.183,-243.5 557.183,-236.5"/>
</g>
<!-- \\Yetti\\API\\User -->
<g id="node21" class="node"><title>\\Yetti\\API\\User</title>
<a xlink:href="User.inc.html" xlink:title="User" target="_parent">
<polygon fill="none" stroke="black" points="497,-420 443,-420 443,-384 497,-384 497,-420"/>
<text text-anchor="middle" x="470" y="-397.6" font-family="Courier,monospace" font-size="11.00">User</text>
</a>
</g>
<!-- \\Yetti\\API\\User&#45;&gt;\\Yetti\\API\\Resource_Abstract -->
<g id="edge36" class="edge"><title>\\Yetti\\API\\User&#45;&gt;\\Yetti\\API\\Resource_Abstract</title>
<path fill="none" stroke="black" d="M442.713,-398.216C426.398,-394.663 405.955,-387.868 392,-375 334.077,-321.587 376.084,-268.341 320,-213 319.047,-212.06 318.056,-211.15 317.033,-210.27"/>
<polygon fill="none" stroke="black" points="318.759,-207.195 308.63,-204.088 314.611,-212.833 318.759,-207.195"/>
</g>
<!-- \\Yetti\\API\\Webservice -->
<g id="node22" class="node"><title>\\Yetti\\API\\Webservice</title>
<a xlink:href="Webservice.inc.html" xlink:title="Webservice" target="_parent">
<polygon fill="none" stroke="black" points="719.011,-96 636.989,-96 636.989,-60 719.011,-60 719.011,-96"/>
<text text-anchor="middle" x="678" y="-73.6" font-family="Courier,monospace" font-size="11.00">Webservice</text>
</a>
</g>
</g>
</svg>
