<?xml version="1.0" encoding="UTF-8" standalone="no"?>
<!DOCTYPE svg PUBLIC "-//W3C//DTD SVG 1.1//EN"
 "http://www.w3.org/Graphics/SVG/1.1/DTD/svg11.dtd">
<!-- Generated by graphviz version 2.28.0 (20110509.1545)
 -->
<!-- Title: G Pages: 1 -->
<svg width="796pt" height="764pt"
 viewBox="0.00 0.00 796.00 764.00" xmlns="http://www.w3.org/2000/svg" xmlns:xlink="http://www.w3.org/1999/xlink">
<g id="graph1" class="graph" transform="scale(1 1) rotate(0) translate(4 760)">
<title>G</title>
<polygon fill="white" stroke="white" points="-4,5 -4,-760 793,-760 793,5 -4,5"/>
<g id="graph2" class="cluster"><title>cluster_Yetti</title>
<polyline fill="none" stroke="gray" points="20,-152 768,-152 "/>
<path fill="none" stroke="gray" d="M768,-152C774,-152 780,-158 780,-164"/>
<polyline fill="none" stroke="gray" points="780,-164 780,-736 "/>
<path fill="none" stroke="gray" d="M780,-736C780,-742 774,-748 768,-748"/>
<polyline fill="none" stroke="gray" points="768,-748 20,-748 "/>
<path fill="none" stroke="gray" d="M20,-748C14,-748 8,-742 8,-736"/>
<polyline fill="none" stroke="gray" points="8,-736 8,-164 "/>
<path fill="none" stroke="gray" d="M8,-164C8,-158 14,-152 20,-152"/>
<text text-anchor="middle" x="394" y="-733" font-family="Times,serif" font-size="11.00" fill="gray">Yetti</text>
</g>
<g id="graph3" class="cluster"><title>cluster_Yetti\API</title>
<polyline fill="none" stroke="gray" points="28,-160 760,-160 "/>
<path fill="none" stroke="gray" d="M760,-160C766,-160 772,-166 772,-172"/>
<polyline fill="none" stroke="gray" points="772,-172 772,-707 "/>
<path fill="none" stroke="gray" d="M772,-707C772,-713 766,-719 760,-719"/>
<polyline fill="none" stroke="gray" points="760,-719 28,-719 "/>
<path fill="none" stroke="gray" d="M28,-719C22,-719 16,-713 16,-707"/>
<polyline fill="none" stroke="gray" points="16,-707 16,-172 "/>
<path fill="none" stroke="gray" d="M16,-172C16,-166 22,-160 28,-160"/>
<text text-anchor="middle" x="394" y="-704" font-family="Times,serif" font-size="11.00" fill="gray">API</text>
</g>
<!-- \\Yetti\\API\\BaseAbstract -->
<g id="node3" class="node"><title>\\Yetti\\API\\BaseAbstract</title>
<a xlink:href="BaseAbstract.inc.html" xlink:title="BaseAbstract" target="_parent">
<polygon fill="none" stroke="black" points="119.713,-474 24.2869,-474 24.2869,-438 119.713,-438 119.713,-474"/>
<text text-anchor="middle" x="72" y="-451.6" font-family="Courier,monospace" font-size="11.00">BaseAbstract</text>
</a>
</g>
<!-- \\Yetti\\API\\Collection_List -->
<g id="node4" class="node"><title>\\Yetti\\API\\Collection_List</title>
<a xlink:href="Collection.List.inc.html" xlink:title="Collection_List" target="_parent">
<polygon fill="none" stroke="black" points="763.516,-474 648.484,-474 648.484,-438 763.516,-438 763.516,-474"/>
<text text-anchor="middle" x="706" y="-451.6" font-family="Courier,monospace" font-size="11.00">Collection_List</text>
</a>
</g>
<!-- \\Yetti\\API\\Resource_ListAbstract -->
<g id="node24" class="node"><title>\\Yetti\\API\\Resource_ListAbstract</title>
<a xlink:href="Resource.ListAbstract.inc.html" xlink:title="Resource_ListAbstract" target="_parent">
<polygon fill="none" stroke="black" points="575.123,-366 420.877,-366 420.877,-330 575.123,-330 575.123,-366"/>
<text text-anchor="middle" x="498" y="-343.6" font-family="Courier,monospace" font-size="11.00">Resource_ListAbstract</text>
</a>
</g>
<!-- \\Yetti\\API\\Collection_List&#45;&gt;\\Yetti\\API\\Resource_ListAbstract -->
<g id="edge4" class="edge"><title>\\Yetti\\API\\Collection_List&#45;&gt;\\Yetti\\API\\Resource_ListAbstract</title>
<path fill="none" stroke="black" d="M664.299,-437.958C658.728,-435.132 653.156,-432.112 648,-429 613.752,-408.334 611.286,-393.838 576,-375 572.907,-373.349 569.692,-371.764 566.409,-370.25"/>
<polygon fill="none" stroke="black" points="567.581,-366.943 557.014,-366.166 564.79,-373.362 567.581,-366.943"/>
</g>
<!-- \\Yetti\\API\\Collection -->
<g id="node5" class="node"><title>\\Yetti\\API\\Collection</title>
<a xlink:href="Collection.inc.html" xlink:title="Collection" target="_parent">
<polygon fill="none" stroke="black" points="539.011,-636 456.989,-636 456.989,-600 539.011,-600 539.011,-636"/>
<text text-anchor="middle" x="498" y="-613.6" font-family="Courier,monospace" font-size="11.00">Collection</text>
</a>
</g>
<!-- \\Yetti\\API\\Resource_BaseAbstract -->
<g id="node23" class="node"><title>\\Yetti\\API\\Resource_BaseAbstract</title>
<a xlink:href="Resource.BaseAbstract.inc.html" xlink:title="Resource_BaseAbstract" target="_parent">
<polygon fill="none" stroke="black" points="347.123,-312 192.877,-312 192.877,-276 347.123,-276 347.123,-312"/>
<text text-anchor="middle" x="270" y="-289.6" font-family="Courier,monospace" font-size="11.00">Resource_BaseAbstract</text>
</a>
</g>
<!-- \\Yetti\\API\\Collection&#45;&gt;\\Yetti\\API\\Resource_BaseAbstract -->
<g id="edge6" class="edge"><title>\\Yetti\\API\\Collection&#45;&gt;\\Yetti\\API\\Resource_BaseAbstract</title>
<path fill="none" stroke="black" d="M456.792,-611.719C443.481,-607.787 429.626,-601.393 420,-591 335.611,-499.882 432.389,-412.118 348,-321 347.23,-320.169 346.433,-319.363 345.611,-318.582"/>
<polygon fill="none" stroke="black" points="347.616,-315.703 337.616,-312.201 343.249,-321.174 347.616,-315.703"/>
</g>
<!-- \\Yetti\\API\\Exception_Auth -->
<g id="node6" class="node"><title>\\Yetti\\API\\Exception_Auth</title>
<a xlink:href="Exception.Auth.inc.html" xlink:title="Exception_Auth" target="_parent">
<polygon fill="none" stroke="black" points="760.416,-366 651.584,-366 651.584,-330 760.416,-330 760.416,-366"/>
<text text-anchor="middle" x="706" y="-343.6" font-family="Courier,monospace" font-size="11.00">Exception_Auth</text>
</a>
</g>
<!-- \\Yetti\\API\\Exception -->
<g id="node7" class="node"><title>\\Yetti\\API\\Exception</title>
<a xlink:href="Exception.inc.html" xlink:title="Exception" target="_parent">
<polygon fill="none" stroke="black" points="535.911,-204 460.089,-204 460.089,-168 535.911,-168 535.911,-204"/>
<text text-anchor="middle" x="498" y="-181.6" font-family="Courier,monospace" font-size="11.00">Exception</text>
</a>
</g>
<!-- \\Yetti\\API\\Exception_Auth&#45;&gt;\\Yetti\\API\\Exception -->
<g id="edge8" class="edge"><title>\\Yetti\\API\\Exception_Auth&#45;&gt;\\Yetti\\API\\Exception</title>
<path fill="none" stroke="black" d="M660.554,-329.95C656.093,-327.275 651.811,-324.293 648,-321 604.348,-283.284 621.573,-248.371 576,-213 567.089,-206.084 556.272,-200.858 545.597,-196.94"/>
<polygon fill="none" stroke="black" points="546.486,-193.547 535.892,-193.699 544.268,-200.186 546.486,-193.547"/>
</g>
<!-- \\Exception -->
<g id="node34" class="node"><title>\\Exception</title>
<ellipse fill="none" stroke="black" cx="270" cy="-126" rx="52.7417" ry="18"/>
<text text-anchor="middle" x="270" y="-120.4" font-family="Times,serif" font-size="14.00" fill="gray">\Exception</text>
</g>
<!-- \\Yetti\\API\\Exception&#45;&gt;\\Exception -->
<g id="edge10" class="edge"><title>\\Yetti\\API\\Exception&#45;&gt;\\Exception</title>
<path fill="none" stroke="black" d="M460.186,-176.226C422.669,-166.266 364.179,-150.738 322.166,-139.584"/>
<polygon fill="none" stroke="black" points="322.962,-136.174 312.398,-136.991 321.166,-142.94 322.962,-136.174"/>
</g>
<!-- \\Yetti\\API\\Item_Collections -->
<g id="node8" class="node"><title>\\Yetti\\API\\Item_Collections</title>
<a xlink:href="Item.Collections.inc.html" xlink:title="Item_Collections" target="_parent">
<polygon fill="none" stroke="black" points="330.618,-690 209.382,-690 209.382,-654 330.618,-654 330.618,-690"/>
<text text-anchor="middle" x="270" y="-667.6" font-family="Courier,monospace" font-size="11.00">Item_Collections</text>
</a>
</g>
<!-- \\Yetti\\API\\Item_Collections&#45;&gt;\\Yetti\\API\\BaseAbstract -->
<g id="edge12" class="edge"><title>\\Yetti\\API\\Item_Collections&#45;&gt;\\Yetti\\API\\BaseAbstract</title>
<path fill="none" stroke="black" d="M209.243,-655.695C203.096,-652.687 197.206,-649.151 192,-645 136.962,-601.121 100.142,-524.436 83.3786,-483.535"/>
<polygon fill="none" stroke="black" points="86.6035,-482.173 79.642,-474.186 80.1034,-484.771 86.6035,-482.173"/>
</g>
<!-- \\Yetti\\API\\Item_Filter_List -->
<g id="node9" class="node"><title>\\Yetti\\API\\Item_Filter_List</title>
<a xlink:href="Item.Filter.List.inc.html" xlink:title="Item_Filter_List" target="_parent">
<polygon fill="none" stroke="black" points="558.618,-312 437.382,-312 437.382,-276 558.618,-276 558.618,-312"/>
<text text-anchor="middle" x="498" y="-289.6" font-family="Courier,monospace" font-size="11.00">Item_Filter_List</text>
</a>
</g>
<!-- \\Yetti\\API\\ListAbstract -->
<g id="node19" class="node"><title>\\Yetti\\API\\ListAbstract</title>
<a xlink:href="ListAbstract.inc.html" xlink:title="ListAbstract" target="_parent">
<polygon fill="none" stroke="black" points="317.713,-258 222.287,-258 222.287,-222 317.713,-222 317.713,-258"/>
<text text-anchor="middle" x="270" y="-235.6" font-family="Courier,monospace" font-size="11.00">ListAbstract</text>
</a>
</g>
<!-- \\Yetti\\API\\Item_Filter_List&#45;&gt;\\Yetti\\API\\ListAbstract -->
<g id="edge14" class="edge"><title>\\Yetti\\API\\Item_Filter_List&#45;&gt;\\Yetti\\API\\ListAbstract</title>
<path fill="none" stroke="black" d="M437.326,-279.742C403.43,-271.643 361.229,-261.559 327.817,-253.576"/>
<polygon fill="none" stroke="black" points="328.289,-250.09 317.749,-251.17 326.662,-256.898 328.289,-250.09"/>
</g>
<!-- \\Yetti\\API\\Item_Filter_Type_List -->
<g id="node10" class="node"><title>\\Yetti\\API\\Item_Filter_Type_List</title>
<a xlink:href="Item.Filter.Type.List.inc.html" xlink:title="Item_Filter_Type_List" target="_parent">
<polygon fill="none" stroke="black" points="575.123,-258 420.877,-258 420.877,-222 575.123,-222 575.123,-258"/>
<text text-anchor="middle" x="498" y="-235.6" font-family="Courier,monospace" font-size="11.00">Item_Filter_Type_List</text>
</a>
</g>
<!-- \\Yetti\\API\\Item_Filter_Type_List&#45;&gt;\\Yetti\\API\\ListAbstract -->
<g id="edge16" class="edge"><title>\\Yetti\\API\\Item_Filter_Type_List&#45;&gt;\\Yetti\\API\\ListAbstract</title>
<path fill="none" stroke="black" d="M420.802,-240C390.443,-240 356.107,-240 327.973,-240"/>
<polygon fill="none" stroke="black" points="327.908,-236.5 317.908,-240 327.908,-243.5 327.908,-236.5"/>
</g>
<!-- \\Yetti\\API\\Item_Filter_Type -->
<g id="node11" class="node"><title>\\Yetti\\API\\Item_Filter_Type</title>
<a xlink:href="Item.Filter.Type.inc.html" xlink:title="Item_Filter_Type" target="_parent">
<polygon fill="none" stroke="black" points="330.618,-636 209.382,-636 209.382,-600 330.618,-600 330.618,-636"/>
<text text-anchor="middle" x="270" y="-613.6" font-family="Courier,monospace" font-size="11.00">Item_Filter_Type</text>
</a>
</g>
<!-- \\Yetti\\API\\Item_Filter_Type&#45;&gt;\\Yetti\\API\\BaseAbstract -->
<g id="edge18" class="edge"><title>\\Yetti\\API\\Item_Filter_Type&#45;&gt;\\Yetti\\API\\BaseAbstract</title>
<path fill="none" stroke="black" d="M209.076,-600.468C203.095,-597.705 197.287,-594.561 192,-591 148.604,-561.769 111.06,-513.01 90.2822,-482.781"/>
<polygon fill="none" stroke="black" points="93.1257,-480.738 84.6298,-474.408 87.3238,-484.655 93.1257,-480.738"/>
</g>
<!-- \\Yetti\\API\\Item_Filter -->
<g id="node12" class="node"><title>\\Yetti\\API\\Item_Filter</title>
<a xlink:href="Item.Filter.inc.html" xlink:title="Item_Filter" target="_parent">
<polygon fill="none" stroke="black" points="314.113,-582 225.887,-582 225.887,-546 314.113,-546 314.113,-582"/>
<text text-anchor="middle" x="270" y="-559.6" font-family="Courier,monospace" font-size="11.00">Item_Filter</text>
</a>
</g>
<!-- \\Yetti\\API\\Item_Filter&#45;&gt;\\Yetti\\API\\BaseAbstract -->
<g id="edge20" class="edge"><title>\\Yetti\\API\\Item_Filter&#45;&gt;\\Yetti\\API\\BaseAbstract</title>
<path fill="none" stroke="black" d="M225.816,-551.075C214.565,-547.112 202.623,-542.362 192,-537 160.207,-520.953 126.937,-497.673 103.685,-480.184"/>
<polygon fill="none" stroke="black" points="105.67,-477.297 95.5927,-474.027 101.432,-482.868 105.67,-477.297"/>
</g>
<!-- \\Yetti\\API\\Item_List -->
<g id="node13" class="node"><title>\\Yetti\\API\\Item_List</title>
<a xlink:href="Item.List.inc.html" xlink:title="Item_List" target="_parent">
<polygon fill="none" stroke="black" points="743.911,-420 668.089,-420 668.089,-384 743.911,-384 743.911,-420"/>
<text text-anchor="middle" x="706" y="-397.6" font-family="Courier,monospace" font-size="11.00">Item_List</text>
</a>
</g>
<!-- \\Yetti\\API\\Item_List&#45;&gt;\\Yetti\\API\\Resource_ListAbstract -->
<g id="edge22" class="edge"><title>\\Yetti\\API\\Item_List&#45;&gt;\\Yetti\\API\\Resource_ListAbstract</title>
<path fill="none" stroke="black" d="M668.171,-392.346C643.109,-385.776 608.982,-376.83 577.943,-368.694"/>
<polygon fill="none" stroke="black" points="578.55,-365.235 567.989,-366.084 576.775,-372.006 578.55,-365.235"/>
</g>
<!-- \\Yetti\\API\\Item_Type_List -->
<g id="node14" class="node"><title>\\Yetti\\API\\Item_Type_List</title>
<a xlink:href="Item.Type.List.inc.html" xlink:title="Item_Type_List" target="_parent">
<polygon fill="none" stroke="black" points="552.416,-528 443.584,-528 443.584,-492 552.416,-492 552.416,-528"/>
<text text-anchor="middle" x="498" y="-505.6" font-family="Courier,monospace" font-size="11.00">Item_Type_List</text>
</a>
</g>
<!-- \\Yetti\\API\\Item_Type_List&#45;&gt;\\Yetti\\API\\ListAbstract -->
<g id="edge24" class="edge"><title>\\Yetti\\API\\Item_Type_List&#45;&gt;\\Yetti\\API\\ListAbstract</title>
<path fill="none" stroke="black" d="M443.555,-498.468C434.855,-494.684 426.56,-489.662 420,-483 349.003,-410.893 418.997,-339.107 348,-267 342.071,-260.978 334.724,-256.297 326.941,-252.658"/>
<polygon fill="none" stroke="black" points="328.244,-249.409 317.664,-248.847 325.585,-255.884 328.244,-249.409"/>
</g>
<!-- \\Yetti\\API\\Item_Type -->
<g id="node15" class="node"><title>\\Yetti\\API\\Item_Type</title>
<a xlink:href="Item.Type.inc.html" xlink:title="Item_Type" target="_parent">
<polygon fill="none" stroke="black" points="307.911,-528 232.089,-528 232.089,-492 307.911,-492 307.911,-528"/>
<text text-anchor="middle" x="270" y="-505.6" font-family="Courier,monospace" font-size="11.00">Item_Type</text>
</a>
</g>
<!-- \\Yetti\\API\\Item_Type&#45;&gt;\\Yetti\\API\\BaseAbstract -->
<g id="edge26" class="edge"><title>\\Yetti\\API\\Item_Type&#45;&gt;\\Yetti\\API\\BaseAbstract</title>
<path fill="none" stroke="black" d="M232.134,-499.843C203.292,-491.897 162.687,-480.71 129.713,-471.625"/>
<polygon fill="none" stroke="black" points="130.317,-468.161 119.746,-468.879 128.458,-474.91 130.317,-468.161"/>
</g>
<!-- \\Yetti\\API\\Item -->
<g id="node16" class="node"><title>\\Yetti\\API\\Item</title>
<a xlink:href="Item.inc.html" xlink:title="Item" target="_parent">
<polygon fill="none" stroke="black" points="525,-582 471,-582 471,-546 525,-546 525,-582"/>
<text text-anchor="middle" x="498" y="-559.6" font-family="Courier,monospace" font-size="11.00">Item</text>
</a>
</g>
<!-- \\Yetti\\API\\Item&#45;&gt;\\Yetti\\API\\Resource_BaseAbstract -->
<g id="edge28" class="edge"><title>\\Yetti\\API\\Item&#45;&gt;\\Yetti\\API\\Resource_BaseAbstract</title>
<path fill="none" stroke="black" d="M470.648,-560.739C454.097,-557.39 433.418,-550.627 420,-537 349.003,-464.893 418.997,-393.107 348,-321 347.078,-320.063 346.121,-319.159 345.133,-318.286"/>
<polygon fill="none" stroke="black" points="347.121,-315.401 337.025,-312.187 342.913,-320.995 347.121,-315.401"/>
</g>
<!-- \\Yetti\\API\\Language_List -->
<g id="node17" class="node"><title>\\Yetti\\API\\Language_List</title>
<a xlink:href="Language.List.inc.html" xlink:title="Language_List" target="_parent">
<polygon fill="none" stroke="black" points="548.814,-474 447.186,-474 447.186,-438 548.814,-438 548.814,-474"/>
<text text-anchor="middle" x="498" y="-451.6" font-family="Courier,monospace" font-size="11.00">Language_List</text>
</a>
</g>
<!-- \\Yetti\\API\\Language_List&#45;&gt;\\Yetti\\API\\ListAbstract -->
<g id="edge30" class="edge"><title>\\Yetti\\API\\Language_List&#45;&gt;\\Yetti\\API\\ListAbstract</title>
<path fill="none" stroke="black" d="M446.867,-445.081C437.13,-441.218 427.602,-436.01 420,-429 362.077,-375.587 405.923,-320.413 348,-267 342.069,-261.531 334.966,-257.158 327.505,-253.666"/>
<polygon fill="none" stroke="black" points="328.505,-250.291 317.926,-249.696 325.825,-256.758 328.505,-250.291"/>
</g>
<!-- \\Yetti\\API\\Language -->
<g id="node18" class="node"><title>\\Yetti\\API\\Language</title>
<a xlink:href="Language.inc.html" xlink:title="Language" target="_parent">
<polygon fill="none" stroke="black" points="304.309,-474 235.691,-474 235.691,-438 304.309,-438 304.309,-474"/>
<text text-anchor="middle" x="270" y="-451.6" font-family="Courier,monospace" font-size="11.00">Language</text>
</a>
</g>
<!-- \\Yetti\\API\\Language&#45;&gt;\\Yetti\\API\\BaseAbstract -->
<g id="edge32" class="edge"><title>\\Yetti\\API\\Language&#45;&gt;\\Yetti\\API\\BaseAbstract</title>
<path fill="none" stroke="black" d="M235.306,-456C206.442,-456 164.252,-456 130.121,-456"/>
<polygon fill="none" stroke="black" points="129.812,-452.5 119.812,-456 129.812,-459.5 129.812,-452.5"/>
</g>
<!-- \\Yetti\\API\\ListAbstract&#45;&gt;\\Yetti\\API\\BaseAbstract -->
<g id="edge34" class="edge"><title>\\Yetti\\API\\ListAbstract&#45;&gt;\\Yetti\\API\\BaseAbstract</title>
<path fill="none" stroke="black" d="M222.022,-250.868C211.433,-254.782 200.751,-260.024 192,-267 136.962,-310.879 100.142,-387.564 83.3786,-428.465"/>
<polygon fill="none" stroke="black" points="80.1034,-427.229 79.642,-437.814 86.6035,-429.827 80.1034,-427.229"/>
</g>
<!-- \\Yetti\\API\\ListIterator -->
<g id="node20" class="node"><title>\\Yetti\\API\\ListIterator</title>
<a xlink:href="ListIterator.inc.html" xlink:title="ListIterator" target="_parent">
<polygon fill="none" stroke="black" points="753.713,-258 658.287,-258 658.287,-222 753.713,-222 753.713,-258"/>
<text text-anchor="middle" x="706" y="-235.6" font-family="Courier,monospace" font-size="11.00">ListIterator</text>
</a>
</g>
<!-- \\Iterator -->
<g id="node55" class="node"><title>\\Iterator</title>
<ellipse fill="none" stroke="black" cx="498" cy="-126" rx="44.6347" ry="18"/>
<text text-anchor="middle" x="498" y="-120.4" font-family="Times,serif" font-size="14.00" fill="gray">\\Iterator</text>
</g>
<!-- \\Yetti\\API\\ListIterator&#45;&gt;\\Iterator -->
<g id="edge50" class="edge"><title>\\Yetti\\API\\ListIterator&#45;&gt;\\Iterator</title>
<path fill="none" stroke="black" stroke-dasharray="1,5" d="M663.92,-221.927C658.462,-219.126 653.022,-216.121 648,-213 613.334,-191.458 611.407,-176.3 576,-156 565.796,-150.15 554.23,-144.97 543.222,-140.631"/>
<polygon fill="none" stroke="black" points="544.331,-137.308 533.74,-137.038 541.851,-143.854 544.331,-137.308"/>
</g>
<!-- \\Countable -->
<g id="node57" class="node"><title>\\Countable</title>
<ellipse fill="none" stroke="black" cx="498" cy="-72" rx="56.1921" ry="18"/>
<text text-anchor="middle" x="498" y="-66.4" font-family="Times,serif" font-size="14.00" fill="gray">\\Countable</text>
</g>
<!-- \\Yetti\\API\\ListIterator&#45;&gt;\\Countable -->
<g id="edge52" class="edge"><title>\\Yetti\\API\\ListIterator&#45;&gt;\\Countable</title>
<path fill="none" stroke="black" stroke-dasharray="1,5" d="M660.182,-221.868C655.841,-219.22 651.688,-216.267 648,-213 603.143,-173.264 622.883,-136.324 576,-99 569.388,-93.7364 561.677,-89.4598 553.737,-85.996"/>
<polygon fill="none" stroke="black" points="554.95,-82.7121 544.364,-82.2927 552.378,-89.2224 554.95,-82.7121"/>
</g>
<!-- \\ArrayAccess -->
<g id="node59" class="node"><title>\\ArrayAccess</title>
<ellipse fill="none" stroke="black" cx="498" cy="-18" rx="66.044" ry="18"/>
<text text-anchor="middle" x="498" y="-12.4" font-family="Times,serif" font-size="14.00" fill="gray">\\ArrayAccess</text>
</g>
<!-- \\Yetti\\API\\ListIterator&#45;&gt;\\ArrayAccess -->
<g id="edge54" class="edge"><title>\\Yetti\\API\\ListIterator&#45;&gt;\\ArrayAccess</title>
<path fill="none" stroke="black" stroke-dasharray="1,5" d="M658.788,-221.886C654.868,-219.265 651.19,-216.312 648,-213 591.645,-154.492 635.351,-100.467 576,-45 571.063,-40.3859 565.292,-36.5539 559.17,-33.3727"/>
<polygon fill="none" stroke="black" points="560.552,-30.1563 550.004,-29.1623 557.63,-36.5172 560.552,-30.1563"/>
</g>
<!-- \\Yetti\\API\\Resource_Asset_Group -->
<g id="node21" class="node"><title>\\Yetti\\API\\Resource_Asset_Group</title>
<a xlink:href="Resource.Asset.Group.inc.html" xlink:title="Resource_Asset_Group" target="_parent">
<polygon fill="none" stroke="black" points="572.021,-420 423.979,-420 423.979,-384 572.021,-384 572.021,-420"/>
<text text-anchor="middle" x="498" y="-397.6" font-family="Courier,monospace" font-size="11.00">Resource_Asset_Group</text>
</a>
</g>
<!-- \\Yetti\\API\\Resource_Asset_Group&#45;&gt;\\Yetti\\API\\ListAbstract -->
<g id="edge36" class="edge"><title>\\Yetti\\API\\Resource_Asset_Group&#45;&gt;\\Yetti\\API\\ListAbstract</title>
<path fill="none" stroke="black" d="M434.225,-383.991C429.186,-381.369 424.364,-378.387 420,-375 374.427,-339.629 393.573,-302.371 348,-267 341.784,-262.175 334.64,-258.173 327.264,-254.864"/>
<polygon fill="none" stroke="black" points="328.43,-251.56 317.849,-251.033 325.792,-258.044 328.43,-251.56"/>
</g>
<!-- \\Yetti\\API\\Resource_Asset -->
<g id="node22" class="node"><title>\\Yetti\\API\\Resource_Asset</title>
<a xlink:href="Resource.Asset.inc.html" xlink:title="Resource_Asset" target="_parent">
<polygon fill="none" stroke="black" points="324.416,-420 215.584,-420 215.584,-384 324.416,-384 324.416,-420"/>
<text text-anchor="middle" x="270" y="-397.6" font-family="Courier,monospace" font-size="11.00">Resource_Asset</text>
</a>
</g>
<!-- \\Yetti\\API\\Resource_Asset&#45;&gt;\\Yetti\\API\\BaseAbstract -->
<g id="edge38" class="edge"><title>\\Yetti\\API\\Resource_Asset&#45;&gt;\\Yetti\\API\\BaseAbstract</title>
<path fill="none" stroke="black" d="M215.701,-416.684C188.947,-424.056 156.535,-432.985 129.368,-440.47"/>
<polygon fill="none" stroke="black" points="128.327,-437.126 119.616,-443.157 130.186,-443.875 128.327,-437.126"/>
</g>
<!-- \\Yetti\\API\\Resource_BaseAbstract&#45;&gt;\\Yetti\\API\\BaseAbstract -->
<g id="edge40" class="edge"><title>\\Yetti\\API\\Resource_BaseAbstract&#45;&gt;\\Yetti\\API\\BaseAbstract</title>
<path fill="none" stroke="black" d="M207.883,-312.09C202.323,-314.716 196.935,-317.676 192,-321 148.604,-350.231 111.06,-398.99 90.2822,-429.219"/>
<polygon fill="none" stroke="black" points="87.3238,-427.345 84.6298,-437.592 93.1257,-431.262 87.3238,-427.345"/>
</g>
<!-- \\Yetti\\API\\Resource_ListAbstract&#45;&gt;\\Yetti\\API\\ListAbstract -->
<g id="edge42" class="edge"><title>\\Yetti\\API\\Resource_ListAbstract&#45;&gt;\\Yetti\\API\\ListAbstract</title>
<path fill="none" stroke="black" d="M438.986,-329.834C432.454,-327.153 425.998,-324.202 420,-321 384.714,-302.162 383.286,-285.838 348,-267 341.556,-263.56 334.585,-260.41 327.559,-257.574"/>
<polygon fill="none" stroke="black" points="328.58,-254.217 317.99,-253.902 326.072,-260.752 328.58,-254.217"/>
</g>
<!-- \\Yetti\\API\\Resource_Property -->
<g id="node25" class="node"><title>\\Yetti\\API\\Resource_Property</title>
<a xlink:href="Resource.Property.inc.html" xlink:title="Resource_Property" target="_parent">
<polygon fill="none" stroke="black" points="334.218,-366 205.782,-366 205.782,-330 334.218,-330 334.218,-366"/>
<text text-anchor="middle" x="270" y="-343.6" font-family="Courier,monospace" font-size="11.00">Resource_Property</text>
</a>
</g>
<!-- \\Yetti\\API\\Resource_Property&#45;&gt;\\Yetti\\API\\BaseAbstract -->
<g id="edge44" class="edge"><title>\\Yetti\\API\\Resource_Property&#45;&gt;\\Yetti\\API\\BaseAbstract</title>
<path fill="none" stroke="black" d="M211.948,-366.112C205.114,-368.833 198.323,-371.808 192,-375 160.207,-391.047 126.937,-414.327 103.685,-431.816"/>
<polygon fill="none" stroke="black" points="101.432,-429.132 95.5927,-437.973 105.67,-434.703 101.432,-429.132"/>
</g>
<!-- \\Yetti\\API\\Result -->
<g id="node26" class="node"><title>\\Yetti\\API\\Result</title>
<a xlink:href="Result.inc.html" xlink:title="Result" target="_parent">
<polygon fill="none" stroke="black" points="733.608,-312 678.392,-312 678.392,-276 733.608,-276 733.608,-312"/>
<text text-anchor="middle" x="706" y="-289.6" font-family="Courier,monospace" font-size="11.00">Result</text>
</a>
</g>
<!-- \\Yetti\\API\\User_List -->
<g id="node27" class="node"><title>\\Yetti\\API\\User_List</title>
<a xlink:href="User.List.inc.html" xlink:title="User_List" target="_parent">
<polygon fill="none" stroke="black" points="743.911,-528 668.089,-528 668.089,-492 743.911,-492 743.911,-528"/>
<text text-anchor="middle" x="706" y="-505.6" font-family="Courier,monospace" font-size="11.00">User_List</text>
</a>
</g>
<!-- \\Yetti\\API\\User_List&#45;&gt;\\Yetti\\API\\Resource_ListAbstract -->
<g id="edge46" class="edge"><title>\\Yetti\\API\\User_List&#45;&gt;\\Yetti\\API\\Resource_ListAbstract</title>
<path fill="none" stroke="black" d="M668.236,-496.194C661.084,-492.545 653.966,-488.154 648,-483 604.348,-445.284 621.573,-410.371 576,-375 574.227,-373.624 572.378,-372.315 570.471,-371.069"/>
<polygon fill="none" stroke="black" points="572.179,-368.014 561.775,-366.009 568.658,-374.064 572.179,-368.014"/>
</g>
<!-- \\Yetti\\API\\User -->
<g id="node28" class="node"><title>\\Yetti\\API\\User</title>
<a xlink:href="User.inc.html" xlink:title="User" target="_parent">
<polygon fill="none" stroke="black" points="525,-690 471,-690 471,-654 525,-654 525,-690"/>
<text text-anchor="middle" x="498" y="-667.6" font-family="Courier,monospace" font-size="11.00">User</text>
</a>
</g>
<!-- \\Yetti\\API\\User&#45;&gt;\\Yetti\\API\\Resource_BaseAbstract -->
<g id="edge48" class="edge"><title>\\Yetti\\API\\User&#45;&gt;\\Yetti\\API\\Resource_BaseAbstract</title>
<path fill="none" stroke="black" d="M470.907,-669.329C454.032,-666.224 432.886,-659.512 420,-645 322.057,-534.695 445.943,-431.305 348,-321 347.248,-320.153 346.467,-319.332 345.661,-318.537"/>
<polygon fill="none" stroke="black" points="347.725,-315.703 337.778,-312.054 343.279,-321.109 347.725,-315.703"/>
</g>
<!-- \\Yetti\\API\\Webservice -->
<g id="node29" class="node"><title>\\Yetti\\API\\Webservice</title>
<a xlink:href="Webservice.inc.html" xlink:title="Webservice" target="_parent">
<polygon fill="none" stroke="black" points="747.011,-204 664.989,-204 664.989,-168 747.011,-168 747.011,-204"/>
<text text-anchor="middle" x="706" y="-181.6" font-family="Courier,monospace" font-size="11.00">Webservice</text>
</a>
</g>
</g>
</svg>
