<?xml version="1.0" encoding="UTF-8" standalone="no"?>
<!DOCTYPE svg PUBLIC "-//W3C//DTD SVG 1.1//EN"
 "http://www.w3.org/Graphics/SVG/1.1/DTD/svg11.dtd">
<!-- Generated by graphviz version 2.28.0 (20110509.1545)
 -->
<!-- Title: G Pages: 1 -->
<svg width="874pt" height="1250pt"
 viewBox="0.00 0.00 874.00 1250.00" xmlns="http://www.w3.org/2000/svg" xmlns:xlink="http://www.w3.org/1999/xlink">
<g id="graph1" class="graph" transform="scale(1 1) rotate(0) translate(4 1246)">
<title>G</title>
<polygon fill="white" stroke="white" points="-4,5 -4,-1246 871,-1246 871,5 -4,5"/>
<g id="graph2" class="cluster"><title>cluster_Yetti</title>
<polyline fill="none" stroke="gray" points="20,-152 846,-152 "/>
<path fill="none" stroke="gray" d="M846,-152C852,-152 858,-158 858,-164"/>
<polyline fill="none" stroke="gray" points="858,-164 858,-1222 "/>
<path fill="none" stroke="gray" d="M858,-1222C858,-1228 852,-1234 846,-1234"/>
<polyline fill="none" stroke="gray" points="846,-1234 20,-1234 "/>
<path fill="none" stroke="gray" d="M20,-1234C14,-1234 8,-1228 8,-1222"/>
<polyline fill="none" stroke="gray" points="8,-1222 8,-164 "/>
<path fill="none" stroke="gray" d="M8,-164C8,-158 14,-152 20,-152"/>
<text text-anchor="middle" x="433" y="-1219" font-family="Times,serif" font-size="11.00" fill="gray">Yetti</text>
</g>
<g id="graph3" class="cluster"><title>cluster_Yetti\API</title>
<polyline fill="none" stroke="gray" points="28,-160 838,-160 "/>
<path fill="none" stroke="gray" d="M838,-160C844,-160 850,-166 850,-172"/>
<polyline fill="none" stroke="gray" points="850,-172 850,-1193 "/>
<path fill="none" stroke="gray" d="M850,-1193C850,-1199 844,-1205 838,-1205"/>
<polyline fill="none" stroke="gray" points="838,-1205 28,-1205 "/>
<path fill="none" stroke="gray" d="M28,-1205C22,-1205 16,-1199 16,-1193"/>
<polyline fill="none" stroke="gray" points="16,-1193 16,-172 "/>
<path fill="none" stroke="gray" d="M16,-172C16,-166 22,-160 28,-160"/>
<text text-anchor="middle" x="433" y="-1190" font-family="Times,serif" font-size="11.00" fill="gray">API</text>
</g>
<!-- \\Yetti\\API\\Auth_Details -->
<g id="node3" class="node"><title>\\Yetti\\API\\Auth_Details</title>
<a xlink:href="Auth.Details.html" xlink:title="Auth_Details" target="_parent">
<polygon fill="none" stroke="black" points="317.713,-1176 222.287,-1176 222.287,-1140 317.713,-1140 317.713,-1176"/>
<text text-anchor="middle" x="270" y="-1153.6" font-family="Courier,monospace" font-size="11.00">Auth_Details</text>
</a>
</g>
<!-- \\Yetti\\API\\BaseAbstract -->
<g id="node5" class="node"><title>\\Yetti\\API\\BaseAbstract</title>
<a xlink:href="BaseAbstract.html" xlink:title="«abstract»&lt;br/&gt;BaseAbstract" target="_parent">
<polygon fill="none" stroke="black" points="120,-690 24,-690 24,-654 120,-654 120,-690"/>
<text text-anchor="start" x="39" y="-673.5" font-family="Courier,monospace" font-size="11.00">«abstract»</text>
<text text-anchor="start" x="32.5" y="-662.5" font-family="Courier,monospace" font-size="11.00">BaseAbstract</text>
</a>
</g>
<!-- \\Yetti\\API\\Auth_Details&#45;&gt;\\Yetti\\API\\BaseAbstract -->
<g id="edge4" class="edge"><title>\\Yetti\\API\\Auth_Details&#45;&gt;\\Yetti\\API\\BaseAbstract</title>
<path fill="none" stroke="black" d="M222.339,-1149.67C211.115,-1145.68 200.055,-1139.76 192,-1131 132.425,-1066.23 89.3552,-789.477 76.7769,-700.015"/>
<polygon fill="none" stroke="black" points="80.2368,-699.484 75.3951,-690.06 73.3033,-700.446 80.2368,-699.484"/>
</g>
<!-- \\Yetti\\API\\Autoloader -->
<g id="node4" class="node"><title>\\Yetti\\API\\Autoloader</title>
<a xlink:href="Autoloader.html" xlink:title="Autoloader" target="_parent">
<polygon fill="none" stroke="black" points="805.011,-960 722.989,-960 722.989,-924 805.011,-924 805.011,-960"/>
<text text-anchor="middle" x="764" y="-937.6" font-family="Courier,monospace" font-size="11.00">Autoloader</text>
</a>
</g>
<!-- \\Yetti\\API\\Collection_Filter_List -->
<g id="node6" class="node"><title>\\Yetti\\API\\Collection_Filter_List</title>
<a xlink:href="Collection.Filter.List.html" xlink:title="Collection_Filter_List" target="_parent">
<polygon fill="none" stroke="black" points="597.724,-474 436.276,-474 436.276,-438 597.724,-438 597.724,-474"/>
<text text-anchor="middle" x="517" y="-451.6" font-family="Courier,monospace" font-size="11.00">Collection_Filter_List</text>
</a>
</g>
<!-- \\Yetti\\API\\ListAbstract -->
<g id="node28" class="node"><title>\\Yetti\\API\\ListAbstract</title>
<a xlink:href="ListAbstract.html" xlink:title="«abstract»&lt;br/&gt;ListAbstract" target="_parent">
<polygon fill="none" stroke="black" points="318,-258 222,-258 222,-222 318,-222 318,-258"/>
<text text-anchor="start" x="237" y="-241.5" font-family="Courier,monospace" font-size="11.00">«abstract»</text>
<text text-anchor="start" x="230.5" y="-230.5" font-family="Courier,monospace" font-size="11.00">ListAbstract</text>
</a>
</g>
<!-- \\Yetti\\API\\Collection_Filter_List&#45;&gt;\\Yetti\\API\\ListAbstract -->
<g id="edge6" class="edge"><title>\\Yetti\\API\\Collection_Filter_List&#45;&gt;\\Yetti\\API\\ListAbstract</title>
<path fill="none" stroke="black" d="M436.071,-439.732C430.293,-436.736 424.844,-433.192 420,-429 360.421,-377.44 405.923,-320.413 348,-267 342.142,-261.598 335.141,-257.267 327.782,-253.796"/>
<polygon fill="none" stroke="black" points="328.904,-250.471 318.328,-249.844 326.204,-256.93 328.904,-250.471"/>
</g>
<!-- \\Yetti\\API\\Collection_Filter_Type_List -->
<g id="node7" class="node"><title>\\Yetti\\API\\Collection_Filter_Type_List</title>
<a xlink:href="Collection.Filter.Type.List.html" xlink:title="Collection_Filter_Type_List" target="_parent">
<polygon fill="none" stroke="black" points="614.229,-420 419.771,-420 419.771,-384 614.229,-384 614.229,-420"/>
<text text-anchor="middle" x="517" y="-397.6" font-family="Courier,monospace" font-size="11.00">Collection_Filter_Type_List</text>
</a>
</g>
<!-- \\Yetti\\API\\Collection_Filter_Type_List&#45;&gt;\\Yetti\\API\\ListAbstract -->
<g id="edge8" class="edge"><title>\\Yetti\\API\\Collection_Filter_Type_List&#45;&gt;\\Yetti\\API\\ListAbstract</title>
<path fill="none" stroke="black" d="M434.895,-383.877C429.647,-381.301 424.622,-378.359 420,-375 373.334,-341.084 393.573,-302.371 348,-267 341.863,-262.236 334.821,-258.275 327.544,-254.99"/>
<polygon fill="none" stroke="black" points="328.831,-251.735 318.251,-251.182 326.177,-258.212 328.831,-251.735"/>
</g>
<!-- \\Yetti\\API\\Collection_Filter_Type -->
<g id="node8" class="node"><title>\\Yetti\\API\\Collection_Filter_Type</title>
<a xlink:href="Collection.Filter.Type.html" xlink:title="Collection_Filter_Type" target="_parent">
<polygon fill="none" stroke="black" points="597.724,-1122 436.276,-1122 436.276,-1086 597.724,-1086 597.724,-1122"/>
<text text-anchor="middle" x="517" y="-1099.6" font-family="Courier,monospace" font-size="11.00">Collection_Filter_Type</text>
</a>
</g>
<!-- \\Yetti\\API\\Item_Filter_Type -->
<g id="node19" class="node"><title>\\Yetti\\API\\Item_Filter_Type</title>
<a xlink:href="Item.Filter.Type.html" xlink:title="Item_Filter_Type" target="_parent">
<polygon fill="none" stroke="black" points="330.618,-1122 209.382,-1122 209.382,-1086 330.618,-1086 330.618,-1122"/>
<text text-anchor="middle" x="270" y="-1099.6" font-family="Courier,monospace" font-size="11.00">Item_Filter_Type</text>
</a>
</g>
<!-- \\Yetti\\API\\Collection_Filter_Type&#45;&gt;\\Yetti\\API\\Item_Filter_Type -->
<g id="edge10" class="edge"><title>\\Yetti\\API\\Collection_Filter_Type&#45;&gt;\\Yetti\\API\\Item_Filter_Type</title>
<path fill="none" stroke="black" d="M436.117,-1104C405.513,-1104 370.856,-1104 341.222,-1104"/>
<polygon fill="none" stroke="black" points="340.965,-1100.5 330.965,-1104 340.965,-1107.5 340.965,-1100.5"/>
</g>
<!-- \\Yetti\\API\\Collection_Filter -->
<g id="node9" class="node"><title>\\Yetti\\API\\Collection_Filter</title>
<a xlink:href="Collection.Filter.html" xlink:title="Collection_Filter" target="_parent">
<polygon fill="none" stroke="black" points="581.218,-1068 452.782,-1068 452.782,-1032 581.218,-1032 581.218,-1068"/>
<text text-anchor="middle" x="517" y="-1045.6" font-family="Courier,monospace" font-size="11.00">Collection_Filter</text>
</a>
</g>
<!-- \\Yetti\\API\\Item_Filter -->
<g id="node20" class="node"><title>\\Yetti\\API\\Item_Filter</title>
<a xlink:href="Item.Filter.html" xlink:title="Item_Filter" target="_parent">
<polygon fill="none" stroke="black" points="314.113,-1068 225.887,-1068 225.887,-1032 314.113,-1032 314.113,-1068"/>
<text text-anchor="middle" x="270" y="-1045.6" font-family="Courier,monospace" font-size="11.00">Item_Filter</text>
</a>
</g>
<!-- \\Yetti\\API\\Collection_Filter&#45;&gt;\\Yetti\\API\\Item_Filter -->
<g id="edge12" class="edge"><title>\\Yetti\\API\\Collection_Filter&#45;&gt;\\Yetti\\API\\Item_Filter</title>
<path fill="none" stroke="black" d="M452.588,-1050C412.931,-1050 362.41,-1050 324.73,-1050"/>
<polygon fill="none" stroke="black" points="324.463,-1046.5 314.463,-1050 324.463,-1053.5 324.463,-1046.5"/>
</g>
<!-- \\Yetti\\API\\Collection_List -->
<g id="node10" class="node"><title>\\Yetti\\API\\Collection_List</title>
<a xlink:href="Collection.List.html" xlink:title="Collection_List" target="_parent">
<polygon fill="none" stroke="black" points="821.516,-636 706.484,-636 706.484,-600 821.516,-600 821.516,-636"/>
<text text-anchor="middle" x="764" y="-613.6" font-family="Courier,monospace" font-size="11.00">Collection_List</text>
</a>
</g>
<!-- \\Yetti\\API\\Resource_ListAbstract -->
<g id="node41" class="node"><title>\\Yetti\\API\\Resource_ListAbstract</title>
<a xlink:href="Resource.ListAbstract.html" xlink:title="«abstract»&lt;br/&gt;Resource_ListAbstract" target="_parent">
<polygon fill="none" stroke="black" points="594.5,-582 439.5,-582 439.5,-546 594.5,-546 594.5,-582"/>
<text text-anchor="start" x="484" y="-565.5" font-family="Courier,monospace" font-size="11.00">«abstract»</text>
<text text-anchor="start" x="448" y="-554.5" font-family="Courier,monospace" font-size="11.00">Resource_ListAbstract</text>
</a>
</g>
<!-- \\Yetti\\API\\Collection_List&#45;&gt;\\Yetti\\API\\Resource_ListAbstract -->
<g id="edge14" class="edge"><title>\\Yetti\\API\\Collection_List&#45;&gt;\\Yetti\\API\\Resource_ListAbstract</title>
<path fill="none" stroke="black" d="M706.484,-605.544C676.259,-598.881 638.393,-590.536 604.546,-583.075"/>
<polygon fill="none" stroke="black" points="605.17,-579.629 594.651,-580.895 603.664,-586.465 605.17,-579.629"/>
</g>
<!-- \\Yetti\\API\\Collection -->
<g id="node11" class="node"><title>\\Yetti\\API\\Collection</title>
<a xlink:href="Collection.html" xlink:title="Collection" target="_parent">
<polygon fill="none" stroke="black" points="558.011,-852 475.989,-852 475.989,-816 558.011,-816 558.011,-852"/>
<text text-anchor="middle" x="517" y="-829.6" font-family="Courier,monospace" font-size="11.00">Collection</text>
</a>
</g>
<!-- \\Yetti\\API\\Resource_BaseAbstract -->
<g id="node40" class="node"><title>\\Yetti\\API\\Resource_BaseAbstract</title>
<a xlink:href="Resource.BaseAbstract.html" xlink:title="«abstract»&lt;br/&gt;Resource_BaseAbstract" target="_parent">
<polygon fill="none" stroke="black" points="347.5,-312 192.5,-312 192.5,-276 347.5,-276 347.5,-312"/>
<text text-anchor="start" x="237" y="-295.5" font-family="Courier,monospace" font-size="11.00">«abstract»</text>
<text text-anchor="start" x="201" y="-284.5" font-family="Courier,monospace" font-size="11.00">Resource_BaseAbstract</text>
</a>
</g>
<!-- \\Yetti\\API\\Collection&#45;&gt;\\Yetti\\API\\Resource_BaseAbstract -->
<g id="edge16" class="edge"><title>\\Yetti\\API\\Collection&#45;&gt;\\Yetti\\API\\Resource_BaseAbstract</title>
<path fill="none" stroke="black" d="M475.615,-832.512C456.046,-829.616 433.843,-822.724 420,-807 275.714,-643.105 487.045,-489.364 348,-321 347.388,-320.259 346.755,-319.539 346.102,-318.838"/>
<polygon fill="none" stroke="black" points="348.224,-316.043 338.406,-312.061 343.598,-321.297 348.224,-316.043"/>
</g>
<!-- \\Yetti\\API\\Exception_Auth -->
<g id="node12" class="node"><title>\\Yetti\\API\\Exception_Auth</title>
<a xlink:href="Exception.Auth.html" xlink:title="Exception_Auth" target="_parent">
<polygon fill="none" stroke="black" points="818.416,-366 709.584,-366 709.584,-330 818.416,-330 818.416,-366"/>
<text text-anchor="middle" x="764" y="-343.6" font-family="Courier,monospace" font-size="11.00">Exception_Auth</text>
</a>
</g>
<!-- \\Yetti\\API\\Exception -->
<g id="node13" class="node"><title>\\Yetti\\API\\Exception</title>
<a xlink:href="Exception.html" xlink:title="Exception" target="_parent">
<polygon fill="none" stroke="black" points="554.911,-204 479.089,-204 479.089,-168 554.911,-168 554.911,-204"/>
<text text-anchor="middle" x="517" y="-181.6" font-family="Courier,monospace" font-size="11.00">Exception</text>
</a>
</g>
<!-- \\Yetti\\API\\Exception_Auth&#45;&gt;\\Yetti\\API\\Exception -->
<g id="edge18" class="edge"><title>\\Yetti\\API\\Exception_Auth&#45;&gt;\\Yetti\\API\\Exception</title>
<path fill="none" stroke="black" d="M709.716,-334.431C701.294,-330.886 693.05,-326.472 686,-321 640.427,-285.629 660.666,-246.916 614,-213 599.734,-202.632 581.623,-196.24 564.984,-192.302"/>
<polygon fill="none" stroke="black" points="565.371,-188.806 554.862,-190.153 563.917,-195.653 565.371,-188.806"/>
</g>
<!-- \\Exception -->
<g id="node60" class="node"><title>\\Exception</title>
<ellipse fill="none" stroke="black" cx="270" cy="-126" rx="52.7417" ry="18"/>
<text text-anchor="middle" x="270" y="-120.4" font-family="Times,serif" font-size="14.00" fill="gray">\Exception</text>
</g>
<!-- \\Yetti\\API\\Exception&#45;&gt;\\Exception -->
<g id="edge20" class="edge"><title>\\Yetti\\API\\Exception&#45;&gt;\\Exception</title>
<path fill="none" stroke="black" d="M479.025,-177.748C461.167,-173.706 439.444,-168.707 420,-164 387.39,-156.106 350.886,-146.804 322.172,-139.379"/>
<polygon fill="none" stroke="black" points="322.918,-135.957 312.36,-136.837 321.162,-142.733 322.918,-135.957"/>
</g>
<!-- \\Yetti\\API\\Item_Collections -->
<g id="node14" class="node"><title>\\Yetti\\API\\Item_Collections</title>
<a xlink:href="Item.Collections.html" xlink:title="Item_Collections" target="_parent">
<polygon fill="none" stroke="black" points="330.618,-1014 209.382,-1014 209.382,-978 330.618,-978 330.618,-1014"/>
<text text-anchor="middle" x="270" y="-991.6" font-family="Courier,monospace" font-size="11.00">Item_Collections</text>
</a>
</g>
<!-- \\Yetti\\API\\Item_Collections&#45;&gt;\\Yetti\\API\\BaseAbstract -->
<g id="edge22" class="edge"><title>\\Yetti\\API\\Item_Collections&#45;&gt;\\Yetti\\API\\BaseAbstract</title>
<path fill="none" stroke="black" d="M209.219,-981.003C202.931,-977.751 197.015,-973.8 192,-969 113.044,-893.431 85.1612,-758.584 76.4842,-700.217"/>
<polygon fill="none" stroke="black" points="79.9396,-699.654 75.0795,-690.24 73.0079,-700.63 79.9396,-699.654"/>
</g>
<!-- \\Yetti\\API\\Item_Combination_List -->
<g id="node15" class="node"><title>\\Yetti\\API\\Item_Combination_List</title>
<a xlink:href="Item.Combination.List.html" xlink:title="Item_Combination_List" target="_parent">
<polygon fill="none" stroke="black" points="841.123,-582 686.877,-582 686.877,-546 841.123,-546 841.123,-582"/>
<text text-anchor="middle" x="764" y="-559.6" font-family="Courier,monospace" font-size="11.00">Item_Combination_List</text>
</a>
</g>
<!-- \\Yetti\\API\\Item_Combination_List&#45;&gt;\\Yetti\\API\\Resource_ListAbstract -->
<g id="edge24" class="edge"><title>\\Yetti\\API\\Item_Combination_List&#45;&gt;\\Yetti\\API\\Resource_ListAbstract</title>
<path fill="none" stroke="black" d="M686.823,-564C660.791,-564 631.486,-564 604.687,-564"/>
<polygon fill="none" stroke="black" points="604.551,-560.5 594.551,-564 604.551,-567.5 604.551,-560.5"/>
</g>
<!-- \\Yetti\\API\\Item_Combination -->
<g id="node16" class="node"><title>\\Yetti\\API\\Item_Combination</title>
<a xlink:href="Item.Combination.html" xlink:title="Item_Combination" target="_parent">
<polygon fill="none" stroke="black" points="330.618,-960 209.382,-960 209.382,-924 330.618,-924 330.618,-960"/>
<text text-anchor="middle" x="270" y="-937.6" font-family="Courier,monospace" font-size="11.00">Item_Combination</text>
</a>
</g>
<!-- \\Yetti\\API\\Item_Combination&#45;&gt;\\Yetti\\API\\BaseAbstract -->
<g id="edge26" class="edge"><title>\\Yetti\\API\\Item_Combination&#45;&gt;\\Yetti\\API\\BaseAbstract</title>
<path fill="none" stroke="black" d="M209.174,-926.435C202.968,-923.288 197.084,-919.516 192,-915 125.115,-855.584 91.8859,-750.08 79.2547,-699.948"/>
<polygon fill="none" stroke="black" points="82.6305,-699.018 76.8672,-690.128 75.8286,-700.671 82.6305,-699.018"/>
</g>
<!-- \\Yetti\\API\\Item_Filter_List -->
<g id="node17" class="node"><title>\\Yetti\\API\\Item_Filter_List</title>
<a xlink:href="Item.Filter.List.html" xlink:title="Item_Filter_List" target="_parent">
<polygon fill="none" stroke="black" points="577.618,-366 456.382,-366 456.382,-330 577.618,-330 577.618,-366"/>
<text text-anchor="middle" x="517" y="-343.6" font-family="Courier,monospace" font-size="11.00">Item_Filter_List</text>
</a>
</g>
<!-- \\Yetti\\API\\Item_Filter_List&#45;&gt;\\Yetti\\API\\ListAbstract -->
<g id="edge28" class="edge"><title>\\Yetti\\API\\Item_Filter_List&#45;&gt;\\Yetti\\API\\ListAbstract</title>
<path fill="none" stroke="black" d="M456.338,-334.916C444.007,-331.198 431.331,-326.598 420,-321 384.137,-303.284 383.286,-285.838 348,-267 341.642,-263.606 334.771,-260.494 327.84,-257.687"/>
<polygon fill="none" stroke="black" points="328.986,-254.378 318.396,-254.05 326.47,-260.91 328.986,-254.378"/>
</g>
<!-- \\Yetti\\API\\Item_Filter_Type_List -->
<g id="node18" class="node"><title>\\Yetti\\API\\Item_Filter_Type_List</title>
<a xlink:href="Item.Filter.Type.List.html" xlink:title="Item_Filter_Type_List" target="_parent">
<polygon fill="none" stroke="black" points="594.123,-312 439.877,-312 439.877,-276 594.123,-276 594.123,-312"/>
<text text-anchor="middle" x="517" y="-289.6" font-family="Courier,monospace" font-size="11.00">Item_Filter_Type_List</text>
</a>
</g>
<!-- \\Yetti\\API\\Item_Filter_Type_List&#45;&gt;\\Yetti\\API\\ListAbstract -->
<g id="edge30" class="edge"><title>\\Yetti\\API\\Item_Filter_Type_List&#45;&gt;\\Yetti\\API\\ListAbstract</title>
<path fill="none" stroke="black" d="M439.823,-277.21C403.797,-269.27 361.503,-259.948 328.259,-252.62"/>
<polygon fill="none" stroke="black" points="328.769,-249.149 318.25,-250.414 327.262,-255.985 328.769,-249.149"/>
</g>
<!-- \\Yetti\\API\\Item_Filter_Type&#45;&gt;\\Yetti\\API\\BaseAbstract -->
<g id="edge32" class="edge"><title>\\Yetti\\API\\Item_Filter_Type&#45;&gt;\\Yetti\\API\\BaseAbstract</title>
<path fill="none" stroke="black" d="M209.14,-1089.66C202.788,-1086.3 196.878,-1082.14 192,-1077 88.3085,-967.829 74.406,-773.033 72.9584,-700.364"/>
<polygon fill="none" stroke="black" points="76.4556,-700.12 72.8235,-690.167 69.4562,-700.212 76.4556,-700.12"/>
</g>
<!-- \\Yetti\\API\\Item_Filter&#45;&gt;\\Yetti\\API\\BaseAbstract -->
<g id="edge34" class="edge"><title>\\Yetti\\API\\Item_Filter&#45;&gt;\\Yetti\\API\\BaseAbstract</title>
<path fill="none" stroke="black" d="M225.573,-1042.23C213.419,-1038.22 201.068,-1032.16 192,-1023 100.677,-930.724 79.3859,-765.867 74.4636,-700.159"/>
<polygon fill="none" stroke="black" points="77.9526,-699.877 73.7844,-690.137 70.9686,-700.351 77.9526,-699.877"/>
</g>
<!-- \\Yetti\\API\\Item_List -->
<g id="node21" class="node"><title>\\Yetti\\API\\Item_List</title>
<a xlink:href="Item.List.html" xlink:title="Item_List" target="_parent">
<polygon fill="none" stroke="black" points="801.911,-528 726.089,-528 726.089,-492 801.911,-492 801.911,-528"/>
<text text-anchor="middle" x="764" y="-505.6" font-family="Courier,monospace" font-size="11.00">Item_List</text>
</a>
</g>
<!-- \\Yetti\\API\\Item_List&#45;&gt;\\Yetti\\API\\Resource_ListAbstract -->
<g id="edge36" class="edge"><title>\\Yetti\\API\\Item_List&#45;&gt;\\Yetti\\API\\Resource_ListAbstract</title>
<path fill="none" stroke="black" d="M726.056,-518.143C693.941,-525.221 646.157,-535.753 604.479,-544.939"/>
<polygon fill="none" stroke="black" points="603.596,-541.55 594.584,-547.12 605.103,-548.386 603.596,-541.55"/>
</g>
<!-- \\Yetti\\API\\Item_Type_List -->
<g id="node22" class="node"><title>\\Yetti\\API\\Item_Type_List</title>
<a xlink:href="Item.Type.List.html" xlink:title="Item_Type_List" target="_parent">
<polygon fill="none" stroke="black" points="571.416,-258 462.584,-258 462.584,-222 571.416,-222 571.416,-258"/>
<text text-anchor="middle" x="517" y="-235.6" font-family="Courier,monospace" font-size="11.00">Item_Type_List</text>
</a>
</g>
<!-- \\Yetti\\API\\Item_Type_List&#45;&gt;\\Yetti\\API\\ListAbstract -->
<g id="edge38" class="edge"><title>\\Yetti\\API\\Item_Type_List&#45;&gt;\\Yetti\\API\\ListAbstract</title>
<path fill="none" stroke="black" d="M462.536,-240C422.818,-240 368.723,-240 328.151,-240"/>
<polygon fill="none" stroke="black" points="328.144,-236.5 318.144,-240 328.144,-243.5 328.144,-236.5"/>
</g>
<!-- \\Yetti\\API\\Item_Type -->
<g id="node23" class="node"><title>\\Yetti\\API\\Item_Type</title>
<a xlink:href="Item.Type.html" xlink:title="Item_Type" target="_parent">
<polygon fill="none" stroke="black" points="307.911,-906 232.089,-906 232.089,-870 307.911,-870 307.911,-906"/>
<text text-anchor="middle" x="270" y="-883.6" font-family="Courier,monospace" font-size="11.00">Item_Type</text>
</a>
</g>
<!-- \\Yetti\\API\\Item_Type&#45;&gt;\\Yetti\\API\\BaseAbstract -->
<g id="edge40" class="edge"><title>\\Yetti\\API\\Item_Type&#45;&gt;\\Yetti\\API\\BaseAbstract</title>
<path fill="none" stroke="black" d="M231.982,-880.461C218.388,-876.362 203.52,-870.184 192,-861 136.962,-817.121 100.142,-740.436 83.3786,-699.535"/>
<polygon fill="none" stroke="black" points="86.6035,-698.173 79.642,-690.186 80.1034,-700.771 86.6035,-698.173"/>
</g>
<!-- \\Yetti\\API\\Item_Variation -->
<g id="node24" class="node"><title>\\Yetti\\API\\Item_Variation</title>
<a xlink:href="Item.Variation.html" xlink:title="Item_Variation" target="_parent">
<polygon fill="none" stroke="black" points="818.416,-474 709.584,-474 709.584,-438 818.416,-438 818.416,-474"/>
<text text-anchor="middle" x="764" y="-451.6" font-family="Courier,monospace" font-size="11.00">Item_Variation</text>
</a>
</g>
<!-- \\Yetti\\API\\Item -->
<g id="node25" class="node"><title>\\Yetti\\API\\Item</title>
<a xlink:href="Item.html" xlink:title="Item" target="_parent">
<polygon fill="none" stroke="black" points="544,-960 490,-960 490,-924 544,-924 544,-960"/>
<text text-anchor="middle" x="517" y="-937.6" font-family="Courier,monospace" font-size="11.00">Item</text>
</a>
</g>
<!-- \\Yetti\\API\\Item&#45;&gt;\\Yetti\\API\\Resource_BaseAbstract -->
<g id="edge42" class="edge"><title>\\Yetti\\API\\Item&#45;&gt;\\Yetti\\API\\Resource_BaseAbstract</title>
<path fill="none" stroke="black" d="M489.821,-942.145C467.759,-940.753 437.126,-934.981 420,-915 246.934,-713.089 514.613,-528.269 348,-321 347.501,-320.379 346.986,-319.772 346.457,-319.179"/>
<polygon fill="none" stroke="black" points="348.594,-316.39 338.85,-312.23 343.873,-321.559 348.594,-316.39"/>
</g>
<!-- \\Yetti\\API\\Language_List -->
<g id="node26" class="node"><title>\\Yetti\\API\\Language_List</title>
<a xlink:href="Language.List.html" xlink:title="Language_List" target="_parent">
<polygon fill="none" stroke="black" points="567.814,-798 466.186,-798 466.186,-762 567.814,-762 567.814,-798"/>
<text text-anchor="middle" x="517" y="-775.6" font-family="Courier,monospace" font-size="11.00">Language_List</text>
</a>
</g>
<!-- \\Yetti\\API\\Language_List&#45;&gt;\\Yetti\\API\\ListAbstract -->
<g id="edge44" class="edge"><title>\\Yetti\\API\\Language_List&#45;&gt;\\Yetti\\API\\ListAbstract</title>
<path fill="none" stroke="black" d="M465.745,-776.726C448.935,-773.096 431.555,-766.125 420,-753 275.714,-589.105 487.045,-435.364 348,-267 342.554,-260.405 335.394,-255.42 327.631,-251.651"/>
<polygon fill="none" stroke="black" points="328.885,-248.381 318.308,-247.761 326.19,-254.842 328.885,-248.381"/>
</g>
<!-- \\Yetti\\API\\Language -->
<g id="node27" class="node"><title>\\Yetti\\API\\Language</title>
<a xlink:href="Language.html" xlink:title="Language" target="_parent">
<polygon fill="none" stroke="black" points="304.309,-852 235.691,-852 235.691,-816 304.309,-816 304.309,-852"/>
<text text-anchor="middle" x="270" y="-829.6" font-family="Courier,monospace" font-size="11.00">Language</text>
</a>
</g>
<!-- \\Yetti\\API\\Language&#45;&gt;\\Yetti\\API\\BaseAbstract -->
<g id="edge46" class="edge"><title>\\Yetti\\API\\Language&#45;&gt;\\Yetti\\API\\BaseAbstract</title>
<path fill="none" stroke="black" d="M235.427,-826.281C221.25,-822.028 205.042,-815.785 192,-807 148.604,-777.769 111.06,-729.01 90.2822,-698.781"/>
<polygon fill="none" stroke="black" points="93.1257,-696.738 84.6298,-690.408 87.3238,-700.655 93.1257,-696.738"/>
</g>
<!-- \\Yetti\\API\\ListAbstract&#45;&gt;\\Yetti\\API\\BaseAbstract -->
<g id="edge48" class="edge"><title>\\Yetti\\API\\ListAbstract&#45;&gt;\\Yetti\\API\\BaseAbstract</title>
<path fill="none" stroke="black" d="M221.727,-248.791C210.775,-252.78 200,-258.577 192,-267 88.3085,-376.171 74.406,-570.967 72.9584,-643.636"/>
<polygon fill="none" stroke="black" points="69.4562,-643.788 72.8235,-653.833 76.4556,-643.88 69.4562,-643.788"/>
</g>
<!-- \\Yetti\\API\\ListIterator -->
<g id="node29" class="node"><title>\\Yetti\\API\\ListIterator</title>
<a xlink:href="ListIterator.html" xlink:title="ListIterator" target="_parent">
<polygon fill="none" stroke="black" points="811.713,-258 716.287,-258 716.287,-222 811.713,-222 811.713,-258"/>
<text text-anchor="middle" x="764" y="-235.6" font-family="Courier,monospace" font-size="11.00">ListIterator</text>
</a>
</g>
<!-- \\Iterator -->
<g id="node95" class="node"><title>\\Iterator</title>
<ellipse fill="none" stroke="black" cx="517" cy="-126" rx="44.6347" ry="18"/>
<text text-anchor="middle" x="517" y="-120.4" font-family="Times,serif" font-size="14.00" fill="gray">\\Iterator</text>
</g>
<!-- \\Yetti\\API\\ListIterator&#45;&gt;\\Iterator -->
<g id="edge88" class="edge"><title>\\Yetti\\API\\ListIterator&#45;&gt;\\Iterator</title>
<path fill="none" stroke="black" stroke-dasharray="1,5" d="M716.316,-226.43C706.048,-222.684 695.43,-218.194 686,-213 650.25,-193.309 650.083,-175.073 614,-156 599.31,-148.235 582.277,-142.098 566.673,-137.451"/>
<polygon fill="none" stroke="black" points="567.239,-133.973 556.663,-134.61 565.328,-140.708 567.239,-133.973"/>
</g>
<!-- \\Countable -->
<g id="node97" class="node"><title>\\Countable</title>
<ellipse fill="none" stroke="black" cx="517" cy="-72" rx="56.1921" ry="18"/>
<text text-anchor="middle" x="517" y="-66.4" font-family="Times,serif" font-size="14.00" fill="gray">\\Countable</text>
</g>
<!-- \\Yetti\\API\\ListIterator&#45;&gt;\\Countable -->
<g id="edge90" class="edge"><title>\\Yetti\\API\\ListIterator&#45;&gt;\\Countable</title>
<path fill="none" stroke="black" stroke-dasharray="1,5" d="M716.029,-229.123C705.44,-225.21 694.755,-219.97 686,-213 639.117,-175.676 662.037,-134.827 614,-99 603.706,-91.3226 591.318,-85.8274 578.914,-81.8945"/>
<polygon fill="none" stroke="black" points="579.579,-78.4446 569.003,-79.0634 577.657,-85.1754 579.579,-78.4446"/>
</g>
<!-- \\ArrayAccess -->
<g id="node99" class="node"><title>\\ArrayAccess</title>
<ellipse fill="none" stroke="black" cx="517" cy="-18" rx="66.044" ry="18"/>
<text text-anchor="middle" x="517" y="-12.4" font-family="Times,serif" font-size="14.00" fill="gray">\\ArrayAccess</text>
</g>
<!-- \\Yetti\\API\\ListIterator&#45;&gt;\\ArrayAccess -->
<g id="edge92" class="edge"><title>\\Yetti\\API\\ListIterator&#45;&gt;\\ArrayAccess</title>
<path fill="none" stroke="black" stroke-dasharray="1,5" d="M716.001,-230.382C705.17,-226.415 694.383,-220.835 686,-213 626.649,-157.533 675.071,-98.5673 614,-45 606.109,-38.0787 596.572,-32.9213 586.61,-29.0806"/>
<polygon fill="none" stroke="black" points="587.564,-25.7079 576.97,-25.7871 585.301,-32.332 587.564,-25.7079"/>
</g>
<!-- \\Yetti\\API\\Oauth_Access_Token -->
<g id="node30" class="node"><title>\\Yetti\\API\\Oauth_Access_Token</title>
<a xlink:href="Oauth.Access.Token.html" xlink:title="Oauth_Access_Token" target="_parent">
<polygon fill="none" stroke="black" points="337.319,-798 202.681,-798 202.681,-762 337.319,-762 337.319,-798"/>
<text text-anchor="middle" x="270" y="-775.6" font-family="Courier,monospace" font-size="11.00">Oauth_Access_Token</text>
</a>
</g>
<!-- \\Yetti\\API\\Oauth_Access_Token&#45;&gt;\\Yetti\\API\\BaseAbstract -->
<g id="edge50" class="edge"><title>\\Yetti\\API\\Oauth_Access_Token&#45;&gt;\\Yetti\\API\\BaseAbstract</title>
<path fill="none" stroke="black" d="M211.948,-761.888C205.114,-759.167 198.323,-756.192 192,-753 160.207,-736.953 126.937,-713.673 103.685,-696.184"/>
<polygon fill="none" stroke="black" points="105.67,-693.297 95.5927,-690.027 101.432,-698.868 105.67,-693.297"/>
</g>
<!-- \\Yetti\\API\\Order_Item -->
<g id="node31" class="node"><title>\\Yetti\\API\\Order_Item</title>
<a xlink:href="Order.Item.html" xlink:title="Order_Item" target="_parent">
<polygon fill="none" stroke="black" points="311.011,-744 228.989,-744 228.989,-708 311.011,-708 311.011,-744"/>
<text text-anchor="middle" x="270" y="-721.6" font-family="Courier,monospace" font-size="11.00">Order_Item</text>
</a>
</g>
<!-- \\Yetti\\API\\Order_Item&#45;&gt;\\Yetti\\API\\BaseAbstract -->
<g id="edge52" class="edge"><title>\\Yetti\\API\\Order_Item&#45;&gt;\\Yetti\\API\\BaseAbstract</title>
<path fill="none" stroke="black" d="M228.864,-714.942C200.466,-707.118 161.969,-696.512 130.34,-687.798"/>
<polygon fill="none" stroke="black" points="130.904,-684.323 120.334,-685.041 129.045,-691.071 130.904,-684.323"/>
</g>
<!-- \\Yetti\\API\\Order_List -->
<g id="node32" class="node"><title>\\Yetti\\API\\Order_List</title>
<a xlink:href="Order.List.html" xlink:title="Order_List" target="_parent">
<polygon fill="none" stroke="black" points="805.011,-420 722.989,-420 722.989,-384 805.011,-384 805.011,-420"/>
<text text-anchor="middle" x="764" y="-397.6" font-family="Courier,monospace" font-size="11.00">Order_List</text>
</a>
</g>
<!-- \\Yetti\\API\\Order_List&#45;&gt;\\Yetti\\API\\Resource_ListAbstract -->
<g id="edge54" class="edge"><title>\\Yetti\\API\\Order_List&#45;&gt;\\Yetti\\API\\Resource_ListAbstract</title>
<path fill="none" stroke="black" d="M722.953,-410.686C710.257,-414.78 696.743,-420.662 686,-429 640.427,-464.371 660.666,-503.084 614,-537 610.783,-539.338 607.371,-541.474 603.824,-543.425"/>
<polygon fill="none" stroke="black" points="602.178,-540.334 594.765,-547.904 605.28,-546.609 602.178,-540.334"/>
</g>
<!-- \\Yetti\\API\\Order_Note -->
<g id="node33" class="node"><title>\\Yetti\\API\\Order_Note</title>
<a xlink:href="Order.Note.html" xlink:title="Order_Note" target="_parent">
<polygon fill="none" stroke="black" points="311.011,-690 228.989,-690 228.989,-654 311.011,-654 311.011,-690"/>
<text text-anchor="middle" x="270" y="-667.6" font-family="Courier,monospace" font-size="11.00">Order_Note</text>
</a>
</g>
<!-- \\Yetti\\API\\Order_Note&#45;&gt;\\Yetti\\API\\BaseAbstract -->
<g id="edge56" class="edge"><title>\\Yetti\\API\\Order_Note&#45;&gt;\\Yetti\\API\\BaseAbstract</title>
<path fill="none" stroke="black" d="M228.864,-672C200.466,-672 161.969,-672 130.34,-672"/>
<polygon fill="none" stroke="black" points="130.334,-668.5 120.334,-672 130.334,-675.5 130.334,-668.5"/>
</g>
<!-- \\Yetti\\API\\Order_Shipment -->
<g id="node34" class="node"><title>\\Yetti\\API\\Order_Shipment</title>
<a xlink:href="Order.Shipment.html" xlink:title="Order_Shipment" target="_parent">
<polygon fill="none" stroke="black" points="324.416,-636 215.584,-636 215.584,-600 324.416,-600 324.416,-636"/>
<text text-anchor="middle" x="270" y="-613.6" font-family="Courier,monospace" font-size="11.00">Order_Shipment</text>
</a>
</g>
<!-- \\Yetti\\API\\Order_Shipment&#45;&gt;\\Yetti\\API\\BaseAbstract -->
<g id="edge58" class="edge"><title>\\Yetti\\API\\Order_Shipment&#45;&gt;\\Yetti\\API\\BaseAbstract</title>
<path fill="none" stroke="black" d="M215.701,-632.684C189.149,-640 157.024,-648.85 129.984,-656.3"/>
<polygon fill="none" stroke="black" points="128.982,-652.946 120.271,-658.976 130.841,-659.694 128.982,-652.946"/>
</g>
<!-- \\Yetti\\API\\Order_Status_List -->
<g id="node35" class="node"><title>\\Yetti\\API\\Order_Status_List</title>
<a xlink:href="Order.Status.List.html" xlink:title="Order_Status_List" target="_parent">
<polygon fill="none" stroke="black" points="581.218,-744 452.782,-744 452.782,-708 581.218,-708 581.218,-744"/>
<text text-anchor="middle" x="517" y="-721.6" font-family="Courier,monospace" font-size="11.00">Order_Status_List</text>
</a>
</g>
<!-- \\Yetti\\API\\Order_Status_List&#45;&gt;\\Yetti\\API\\ListAbstract -->
<g id="edge60" class="edge"><title>\\Yetti\\API\\Order_Status_List&#45;&gt;\\Yetti\\API\\ListAbstract</title>
<path fill="none" stroke="black" d="M452.89,-719.094C440.497,-714.989 428.668,-708.668 420,-699 290.066,-554.068 473.299,-415.957 348,-267 342.494,-260.455 335.303,-255.495 327.527,-251.737"/>
<polygon fill="none" stroke="black" points="328.773,-248.465 318.196,-247.855 326.084,-254.928 328.773,-248.465"/>
</g>
<!-- \\Yetti\\API\\Order_Status -->
<g id="node36" class="node"><title>\\Yetti\\API\\Order_Status</title>
<a xlink:href="Order.Status.html" xlink:title="Order_Status" target="_parent">
<polygon fill="none" stroke="black" points="317.713,-582 222.287,-582 222.287,-546 317.713,-546 317.713,-582"/>
<text text-anchor="middle" x="270" y="-559.6" font-family="Courier,monospace" font-size="11.00">Order_Status</text>
</a>
</g>
<!-- \\Yetti\\API\\Order_Status&#45;&gt;\\Yetti\\API\\BaseAbstract -->
<g id="edge62" class="edge"><title>\\Yetti\\API\\Order_Status&#45;&gt;\\Yetti\\API\\BaseAbstract</title>
<path fill="none" stroke="black" d="M222.179,-578.226C212.021,-581.913 201.485,-586.213 192,-591 160.207,-607.047 126.937,-630.327 103.685,-647.816"/>
<polygon fill="none" stroke="black" points="101.432,-645.132 95.5927,-653.973 105.67,-650.703 101.432,-645.132"/>
</g>
<!-- \\Yetti\\API\\Order -->
<g id="node37" class="node"><title>\\Yetti\\API\\Order</title>
<a xlink:href="Order.html" xlink:title="Order" target="_parent">
<polygon fill="none" stroke="black" points="297,-528 243,-528 243,-492 297,-492 297,-528"/>
<text text-anchor="middle" x="270" y="-505.6" font-family="Courier,monospace" font-size="11.00">Order</text>
</a>
</g>
<!-- \\Yetti\\API\\Order&#45;&gt;\\Yetti\\API\\BaseAbstract -->
<g id="edge64" class="edge"><title>\\Yetti\\API\\Order&#45;&gt;\\Yetti\\API\\BaseAbstract</title>
<path fill="none" stroke="black" d="M242.862,-515.61C227.194,-519.805 207.391,-526.632 192,-537 148.604,-566.231 111.06,-614.99 90.2822,-645.219"/>
<polygon fill="none" stroke="black" points="87.3238,-643.345 84.6298,-653.592 93.1257,-647.262 87.3238,-643.345"/>
</g>
<!-- \\Yetti\\API\\Resource_Asset_Group -->
<g id="node38" class="node"><title>\\Yetti\\API\\Resource_Asset_Group</title>
<a xlink:href="Resource.Asset.Group.html" xlink:title="Resource_Asset_Group" target="_parent">
<polygon fill="none" stroke="black" points="591.021,-690 442.979,-690 442.979,-654 591.021,-654 591.021,-690"/>
<text text-anchor="middle" x="517" y="-667.6" font-family="Courier,monospace" font-size="11.00">Resource_Asset_Group</text>
</a>
</g>
<!-- \\Yetti\\API\\Resource_Asset_Group&#45;&gt;\\Yetti\\API\\ListAbstract -->
<g id="edge66" class="edge"><title>\\Yetti\\API\\Resource_Asset_Group&#45;&gt;\\Yetti\\API\\ListAbstract</title>
<path fill="none" stroke="black" d="M442.819,-660.964C434.246,-657.073 426.321,-651.889 420,-645 304.377,-518.987 459.591,-396.597 348,-267 342.419,-260.519 335.188,-255.593 327.395,-251.849"/>
<polygon fill="none" stroke="black" points="328.633,-248.573 318.055,-247.975 325.951,-255.039 328.633,-248.573"/>
</g>
<!-- \\Yetti\\API\\Resource_Asset -->
<g id="node39" class="node"><title>\\Yetti\\API\\Resource_Asset</title>
<a xlink:href="Resource.Asset.html" xlink:title="Resource_Asset" target="_parent">
<polygon fill="none" stroke="black" points="324.416,-474 215.584,-474 215.584,-438 324.416,-438 324.416,-474"/>
<text text-anchor="middle" x="270" y="-451.6" font-family="Courier,monospace" font-size="11.00">Resource_Asset</text>
</a>
</g>
<!-- \\Yetti\\API\\Resource_Asset&#45;&gt;\\Yetti\\API\\BaseAbstract -->
<g id="edge68" class="edge"><title>\\Yetti\\API\\Resource_Asset&#45;&gt;\\Yetti\\API\\BaseAbstract</title>
<path fill="none" stroke="black" d="M215.594,-469.413C207.185,-472.976 198.978,-477.437 192,-483 136.962,-526.879 100.142,-603.564 83.3786,-644.465"/>
<polygon fill="none" stroke="black" points="80.1034,-643.229 79.642,-653.814 86.6035,-645.827 80.1034,-643.229"/>
</g>
<!-- \\Yetti\\API\\Resource_BaseAbstract&#45;&gt;\\Yetti\\API\\BaseAbstract -->
<g id="edge70" class="edge"><title>\\Yetti\\API\\Resource_BaseAbstract&#45;&gt;\\Yetti\\API\\BaseAbstract</title>
<path fill="none" stroke="black" d="M202.994,-312.206C199.008,-314.763 195.288,-317.677 192,-321 100.677,-413.276 79.3859,-578.133 74.4636,-643.841"/>
<polygon fill="none" stroke="black" points="70.9686,-643.649 73.7844,-653.863 77.9526,-644.123 70.9686,-643.649"/>
</g>
<!-- \\Yetti\\API\\Resource_ListAbstract&#45;&gt;\\Yetti\\API\\ListAbstract -->
<g id="edge72" class="edge"><title>\\Yetti\\API\\Resource_ListAbstract&#45;&gt;\\Yetti\\API\\ListAbstract</title>
<path fill="none" stroke="black" d="M439.476,-550.747C432.276,-547.173 425.593,-542.67 420,-537 332.78,-448.588 432.389,-358.118 348,-267 342.258,-260.8 335.01,-256.023 327.271,-252.343"/>
<polygon fill="none" stroke="black" points="328.598,-249.105 318.021,-248.507 325.917,-255.571 328.598,-249.105"/>
</g>
<!-- \\Yetti\\API\\Resource_Property -->
<g id="node42" class="node"><title>\\Yetti\\API\\Resource_Property</title>
<a xlink:href="Resource.Property.html" xlink:title="Resource_Property" target="_parent">
<polygon fill="none" stroke="black" points="334.218,-420 205.782,-420 205.782,-384 334.218,-384 334.218,-420"/>
<text text-anchor="middle" x="270" y="-397.6" font-family="Courier,monospace" font-size="11.00">Resource_Property</text>
</a>
</g>
<!-- \\Yetti\\API\\Resource_Property&#45;&gt;\\Yetti\\API\\BaseAbstract -->
<g id="edge74" class="edge"><title>\\Yetti\\API\\Resource_Property&#45;&gt;\\Yetti\\API\\BaseAbstract</title>
<path fill="none" stroke="black" d="M205.72,-419.402C200.789,-422.153 196.13,-425.331 192,-429 125.115,-488.416 91.8859,-593.92 79.2547,-644.052"/>
<polygon fill="none" stroke="black" points="75.8286,-643.329 76.8672,-653.872 82.6305,-644.982 75.8286,-643.329"/>
</g>
<!-- \\Yetti\\API\\Result -->
<g id="node43" class="node"><title>\\Yetti\\API\\Result</title>
<a xlink:href="Result.html" xlink:title="Result" target="_parent">
<polygon fill="none" stroke="black" points="791.608,-312 736.392,-312 736.392,-276 791.608,-276 791.608,-312"/>
<text text-anchor="middle" x="764" y="-289.6" font-family="Courier,monospace" font-size="11.00">Result</text>
</a>
</g>
<!-- \\Yetti\\API\\User_Address_List -->
<g id="node44" class="node"><title>\\Yetti\\API\\User_Address_List</title>
<a xlink:href="User.Address.List.html" xlink:title="User_Address_List" target="_parent">
<polygon fill="none" stroke="black" points="581.218,-636 452.782,-636 452.782,-600 581.218,-600 581.218,-636"/>
<text text-anchor="middle" x="517" y="-613.6" font-family="Courier,monospace" font-size="11.00">User_Address_List</text>
</a>
</g>
<!-- \\Yetti\\API\\User_Address_List&#45;&gt;\\Yetti\\API\\ListAbstract -->
<g id="edge76" class="edge"><title>\\Yetti\\API\\User_Address_List&#45;&gt;\\Yetti\\API\\ListAbstract</title>
<path fill="none" stroke="black" d="M452.777,-610.576C440.54,-606.49 428.804,-600.307 420,-591 318.627,-483.839 445.943,-377.305 348,-267 342.389,-260.681 335.212,-255.84 327.503,-252.133"/>
<polygon fill="none" stroke="black" points="328.847,-248.902 318.271,-248.28 326.151,-255.362 328.847,-248.902"/>
</g>
<!-- \\Yetti\\API\\User_Address -->
<g id="node45" class="node"><title>\\Yetti\\API\\User_Address</title>
<a xlink:href="User.Address.html" xlink:title="User_Address" target="_parent">
<polygon fill="none" stroke="black" points="317.713,-366 222.287,-366 222.287,-330 317.713,-330 317.713,-366"/>
<text text-anchor="middle" x="270" y="-343.6" font-family="Courier,monospace" font-size="11.00">User_Address</text>
</a>
</g>
<!-- \\Yetti\\API\\User_Address&#45;&gt;\\Yetti\\API\\BaseAbstract -->
<g id="edge78" class="edge"><title>\\Yetti\\API\\User_Address&#45;&gt;\\Yetti\\API\\BaseAbstract</title>
<path fill="none" stroke="black" d="M222.27,-357.332C211.308,-361.311 200.392,-366.968 192,-375 113.044,-450.569 85.1612,-585.416 76.4842,-643.783"/>
<polygon fill="none" stroke="black" points="73.0079,-643.37 75.0795,-653.76 79.9396,-644.346 73.0079,-643.37"/>
</g>
<!-- \\Yetti\\API\\User_List -->
<g id="node46" class="node"><title>\\Yetti\\API\\User_List</title>
<a xlink:href="User.List.html" xlink:title="User_List" target="_parent">
<polygon fill="none" stroke="black" points="801.911,-690 726.089,-690 726.089,-654 801.911,-654 801.911,-690"/>
<text text-anchor="middle" x="764" y="-667.6" font-family="Courier,monospace" font-size="11.00">User_List</text>
</a>
</g>
<!-- \\Yetti\\API\\User_List&#45;&gt;\\Yetti\\API\\Resource_ListAbstract -->
<g id="edge80" class="edge"><title>\\Yetti\\API\\User_List&#45;&gt;\\Yetti\\API\\Resource_ListAbstract</title>
<path fill="none" stroke="black" d="M725.99,-661.573C712.98,-657.251 698.497,-651.672 686,-645 650.714,-626.162 649.863,-608.716 614,-591 610.202,-589.124 606.253,-587.359 602.216,-585.703"/>
<polygon fill="none" stroke="black" points="603.259,-582.354 592.669,-582.031 600.746,-588.887 603.259,-582.354"/>
</g>
<!-- \\Yetti\\API\\User -->
<g id="node47" class="node"><title>\\Yetti\\API\\User</title>
<a xlink:href="User.html" xlink:title="User" target="_parent">
<polygon fill="none" stroke="black" points="544,-906 490,-906 490,-870 544,-870 544,-906"/>
<text text-anchor="middle" x="517" y="-883.6" font-family="Courier,monospace" font-size="11.00">User</text>
</a>
</g>
<!-- \\Yetti\\API\\User&#45;&gt;\\Yetti\\API\\Resource_BaseAbstract -->
<g id="edge82" class="edge"><title>\\Yetti\\API\\User&#45;&gt;\\Yetti\\API\\Resource_BaseAbstract</title>
<path fill="none" stroke="black" d="M489.88,-888.094C467.855,-886.67 437.245,-880.878 420,-861 261.334,-678.109 500.819,-508.804 348,-321 347.394,-320.255 346.765,-319.53 346.117,-318.826"/>
<polygon fill="none" stroke="black" points="348.26,-316.048 338.463,-312.014 343.606,-321.277 348.26,-316.048"/>
</g>
<!-- \\Yetti\\API\\VAT_List -->
<g id="node48" class="node"><title>\\Yetti\\API\\VAT_List</title>
<a xlink:href="VAT.List.html" xlink:title="VAT_List" target="_parent">
<polygon fill="none" stroke="black" points="551.309,-528 482.691,-528 482.691,-492 551.309,-492 551.309,-528"/>
<text text-anchor="middle" x="517" y="-505.6" font-family="Courier,monospace" font-size="11.00">VAT_List</text>
</a>
</g>
<!-- \\Yetti\\API\\VAT_List&#45;&gt;\\Yetti\\API\\ListAbstract -->
<g id="edge84" class="edge"><title>\\Yetti\\API\\VAT_List&#45;&gt;\\Yetti\\API\\ListAbstract</title>
<path fill="none" stroke="black" d="M482.352,-508.296C461.926,-505.557 436.665,-498.89 420,-483 346.764,-413.168 418.997,-339.107 348,-267 342.206,-261.115 335.058,-256.511 327.472,-252.908"/>
<polygon fill="none" stroke="black" points="328.642,-249.604 318.065,-248.992 325.952,-256.067 328.642,-249.604"/>
</g>
<!-- \\Yetti\\API\\VAT -->
<g id="node49" class="node"><title>\\Yetti\\API\\VAT</title>
<a xlink:href="VAT.html" xlink:title="VAT" target="_parent">
<polygon fill="none" stroke="black" points="297,-204 243,-204 243,-168 297,-168 297,-204"/>
<text text-anchor="middle" x="270" y="-181.6" font-family="Courier,monospace" font-size="11.00">VAT</text>
</a>
</g>
<!-- \\Yetti\\API\\VAT&#45;&gt;\\Yetti\\API\\BaseAbstract -->
<g id="edge86" class="edge"><title>\\Yetti\\API\\VAT&#45;&gt;\\Yetti\\API\\BaseAbstract</title>
<path fill="none" stroke="black" d="M242.702,-188.889C225.958,-192.086 205.042,-198.82 192,-213 132.425,-277.775 89.3552,-554.523 76.7769,-643.985"/>
<polygon fill="none" stroke="black" points="73.3033,-643.554 75.3951,-653.94 80.2368,-644.516 73.3033,-643.554"/>
</g>
<!-- \\Yetti\\API\\Webservice -->
<g id="node50" class="node"><title>\\Yetti\\API\\Webservice</title>
<a xlink:href="Webservice.html" xlink:title="Webservice" target="_parent">
<polygon fill="none" stroke="black" points="805.011,-204 722.989,-204 722.989,-168 805.011,-168 805.011,-204"/>
<text text-anchor="middle" x="764" y="-181.6" font-family="Courier,monospace" font-size="11.00">Webservice</text>
</a>
</g>
</g>
</svg>
