<?xml version="1.0" encoding="UTF-8" standalone="no"?>
<!DOCTYPE svg PUBLIC "-//W3C//DTD SVG 1.1//EN"
 "http://www.w3.org/Graphics/SVG/1.1/DTD/svg11.dtd">
<!-- Generated by graphviz version 2.28.0 (20110509.1545)
 -->
<!-- Title: G Pages: 1 -->
<svg width="768pt" height="440pt"
 viewBox="0.00 0.00 768.00 440.00" xmlns="http://www.w3.org/2000/svg" xmlns:xlink="http://www.w3.org/1999/xlink">
<g id="graph1" class="graph" transform="scale(1 1) rotate(0) translate(4 436)">
<title>G</title>
<polygon fill="white" stroke="white" points="-4,5 -4,-436 765,-436 765,5 -4,5"/>
<g id="graph2" class="cluster"><title>cluster_Yetti</title>
<polyline fill="none" stroke="gray" points="20,-44 740,-44 "/>
<path fill="none" stroke="gray" d="M740,-44C746,-44 752,-50 752,-56"/>
<polyline fill="none" stroke="gray" points="752,-56 752,-412 "/>
<path fill="none" stroke="gray" d="M752,-412C752,-418 746,-424 740,-424"/>
<polyline fill="none" stroke="gray" points="740,-424 20,-424 "/>
<path fill="none" stroke="gray" d="M20,-424C14,-424 8,-418 8,-412"/>
<polyline fill="none" stroke="gray" points="8,-412 8,-56 "/>
<path fill="none" stroke="gray" d="M8,-56C8,-50 14,-44 20,-44"/>
<text text-anchor="middle" x="380" y="-409" font-family="Times,serif" font-size="11.00" fill="gray">Yetti</text>
</g>
<g id="graph3" class="cluster"><title>cluster_Yetti\API</title>
<polyline fill="none" stroke="gray" points="28,-52 732,-52 "/>
<path fill="none" stroke="gray" d="M732,-52C738,-52 744,-58 744,-64"/>
<polyline fill="none" stroke="gray" points="744,-64 744,-383 "/>
<path fill="none" stroke="gray" d="M744,-383C744,-389 738,-395 732,-395"/>
<polyline fill="none" stroke="gray" points="732,-395 28,-395 "/>
<path fill="none" stroke="gray" d="M28,-395C22,-395 16,-389 16,-383"/>
<polyline fill="none" stroke="gray" points="16,-383 16,-64 "/>
<path fill="none" stroke="gray" d="M16,-64C16,-58 22,-52 28,-52"/>
<text text-anchor="middle" x="380" y="-380" font-family="Times,serif" font-size="11.00" fill="gray">API</text>
</g>
<!-- \\Yetti\\API\\BaseAbstract -->
<g id="node3" class="node"><title>\\Yetti\\API\\BaseAbstract</title>
<a xlink:href="BaseAbstract.inc.html" xlink:title="BaseAbstract" target="_parent">
<polygon fill="none" stroke="black" points="119.713,-231 24.2869,-231 24.2869,-195 119.713,-195 119.713,-231"/>
<text text-anchor="middle" x="72" y="-208.6" font-family="Courier,monospace" font-size="11.00">BaseAbstract</text>
</a>
</g>
<!-- \\Yetti\\API\\Collection_List -->
<g id="node4" class="node"><title>\\Yetti\\API\\Collection_List</title>
<a xlink:href="Collection.List.inc.html" xlink:title="Collection_List" target="_parent">
<polygon fill="none" stroke="black" points="735.516,-366 620.484,-366 620.484,-330 735.516,-330 735.516,-366"/>
<text text-anchor="middle" x="678" y="-343.6" font-family="Courier,monospace" font-size="11.00">Collection_List</text>
</a>
</g>
<!-- \\Yetti\\API\\Resource_ListAbstract -->
<g id="node16" class="node"><title>\\Yetti\\API\\Resource_ListAbstract</title>
<a xlink:href="Resource.ListAbstract.inc.html" xlink:title="Resource_ListAbstract" target="_parent">
<polygon fill="none" stroke="black" points="547.123,-96 392.877,-96 392.877,-60 547.123,-60 547.123,-96"/>
<text text-anchor="middle" x="470" y="-73.6" font-family="Courier,monospace" font-size="11.00">Resource_ListAbstract</text>
</a>
</g>
<!-- \\Yetti\\API\\Collection_List&#45;&gt;\\Yetti\\API\\Resource_ListAbstract -->
<g id="edge4" class="edge"><title>\\Yetti\\API\\Collection_List&#45;&gt;\\Yetti\\API\\Resource_ListAbstract</title>
<path fill="none" stroke="black" d="M630.218,-329.966C626.463,-327.336 622.977,-324.36 620,-321 552.889,-245.263 618.997,-177.107 548,-105 547.078,-104.063 546.121,-103.159 545.133,-102.286"/>
<polygon fill="none" stroke="black" points="547.121,-99.4008 537.025,-96.1867 542.913,-104.995 547.121,-99.4008"/>
</g>
<!-- \\Yetti\\API\\Collection -->
<g id="node5" class="node"><title>\\Yetti\\API\\Collection</title>
<a xlink:href="Collection.inc.html" xlink:title="Collection" target="_parent">
<polygon fill="none" stroke="black" points="511.011,-366 428.989,-366 428.989,-330 511.011,-330 511.011,-366"/>
<text text-anchor="middle" x="470" y="-343.6" font-family="Courier,monospace" font-size="11.00">Collection</text>
</a>
</g>
<!-- \\Yetti\\API\\Resource_Abstract -->
<g id="node13" class="node"><title>\\Yetti\\API\\Resource_Abstract</title>
<a xlink:href="Resource.Abstract.inc.html" xlink:title="Resource_Abstract" target="_parent">
<polygon fill="none" stroke="black" points="320.218,-150 191.782,-150 191.782,-114 320.218,-114 320.218,-150"/>
<text text-anchor="middle" x="256" y="-127.6" font-family="Courier,monospace" font-size="11.00">Resource_Abstract</text>
</a>
</g>
<!-- \\Yetti\\API\\Collection&#45;&gt;\\Yetti\\API\\Resource_Abstract -->
<g id="edge6" class="edge"><title>\\Yetti\\API\\Collection&#45;&gt;\\Yetti\\API\\Resource_Abstract</title>
<path fill="none" stroke="black" d="M428.876,-340.596C415.882,-336.574 402.206,-330.411 392,-321 334.077,-267.587 376.084,-214.341 320,-159 319.047,-158.06 318.056,-157.15 317.033,-156.27"/>
<polygon fill="none" stroke="black" points="318.759,-153.195 308.63,-150.088 314.611,-158.833 318.759,-153.195"/>
</g>
<!-- \\Yetti\\API\\Exception -->
<g id="node6" class="node"><title>\\Yetti\\API\\Exception</title>
<a xlink:href="Exception.inc.html" xlink:title="Exception" target="_parent">
<polygon fill="none" stroke="black" points="715.911,-150 640.089,-150 640.089,-114 715.911,-114 715.911,-150"/>
<text text-anchor="middle" x="678" y="-127.6" font-family="Courier,monospace" font-size="11.00">Exception</text>
</a>
</g>
<!-- \\Exception -->
<g id="node25" class="node"><title>\\Exception</title>
<ellipse fill="none" stroke="black" cx="470" cy="-18" rx="52.7417" ry="18"/>
<text text-anchor="middle" x="470" y="-12.4" font-family="Times,serif" font-size="14.00" fill="gray">\Exception</text>
</g>
<!-- \\Yetti\\API\\Exception&#45;&gt;\\Exception -->
<g id="edge8" class="edge"><title>\\Yetti\\API\\Exception&#45;&gt;\\Exception</title>
<path fill="none" stroke="black" d="M640.161,-116.061C633.311,-112.677 626.324,-108.93 620,-105 585.334,-83.4585 583.407,-68.3001 548,-48 538.851,-42.7546 528.607,-38.048 518.652,-34.0034"/>
<polygon fill="none" stroke="black" points="519.829,-30.7057 509.241,-30.3323 517.286,-37.2271 519.829,-30.7057"/>
</g>
<!-- \\Yetti\\API\\Item_Collections -->
<g id="node7" class="node"><title>\\Yetti\\API\\Item_Collections</title>
<a xlink:href="Item.Collections.inc.html" xlink:title="Item_Collections" target="_parent">
<polygon fill="none" stroke="black" points="316.618,-366 195.382,-366 195.382,-330 316.618,-330 316.618,-366"/>
<text text-anchor="middle" x="256" y="-343.6" font-family="Courier,monospace" font-size="11.00">Item_Collections</text>
</a>
</g>
<!-- \\Yetti\\API\\Item_Collections&#45;&gt;\\Yetti\\API\\BaseAbstract -->
<g id="edge10" class="edge"><title>\\Yetti\\API\\Item_Collections&#45;&gt;\\Yetti\\API\\BaseAbstract</title>
<path fill="none" stroke="black" d="M207.996,-329.934C202.46,-327.205 197.006,-324.215 192,-321 155.303,-297.43 119.049,-262.373 96.3816,-238.647"/>
<polygon fill="none" stroke="black" points="98.6416,-235.942 89.2342,-231.069 93.549,-240.745 98.6416,-235.942"/>
</g>
<!-- \\Yetti\\API\\Item_List -->
<g id="node8" class="node"><title>\\Yetti\\API\\Item_List</title>
<a xlink:href="Item.List.inc.html" xlink:title="Item_List" target="_parent">
<polygon fill="none" stroke="black" points="715.911,-312 640.089,-312 640.089,-276 715.911,-276 715.911,-312"/>
<text text-anchor="middle" x="678" y="-289.6" font-family="Courier,monospace" font-size="11.00">Item_List</text>
</a>
</g>
<!-- \\Yetti\\API\\Item_List&#45;&gt;\\Yetti\\API\\Resource_ListAbstract -->
<g id="edge12" class="edge"><title>\\Yetti\\API\\Item_List&#45;&gt;\\Yetti\\API\\Resource_ListAbstract</title>
<path fill="none" stroke="black" d="M640.117,-281.256C632.811,-277.501 625.66,-272.798 620,-267 564.963,-210.618 605.923,-158.413 548,-105 546.861,-103.95 545.679,-102.94 544.459,-101.969"/>
<polygon fill="none" stroke="black" points="546.151,-98.8851 535.926,-96.1092 542.188,-104.655 546.151,-98.8851"/>
</g>
<!-- \\Yetti\\API\\Item -->
<g id="node9" class="node"><title>\\Yetti\\API\\Item</title>
<a xlink:href="Item.inc.html" xlink:title="Item" target="_parent">
<polygon fill="none" stroke="black" points="497,-312 443,-312 443,-276 497,-276 497,-312"/>
<text text-anchor="middle" x="470" y="-289.6" font-family="Courier,monospace" font-size="11.00">Item</text>
</a>
</g>
<!-- \\Yetti\\API\\Item&#45;&gt;\\Yetti\\API\\Resource_Abstract -->
<g id="edge14" class="edge"><title>\\Yetti\\API\\Item&#45;&gt;\\Yetti\\API\\Resource_Abstract</title>
<path fill="none" stroke="black" d="M442.701,-289.202C426.782,-285.285 406.772,-278.465 392,-267 346.427,-231.629 364.351,-195.892 320,-159 318.648,-157.875 317.242,-156.79 315.792,-155.744"/>
<polygon fill="none" stroke="black" points="317.404,-152.62 307.095,-150.175 313.629,-158.515 317.404,-152.62"/>
</g>
<!-- \\Yetti\\API\\Language_List -->
<g id="node10" class="node"><title>\\Yetti\\API\\Language_List</title>
<a xlink:href="Language.List.inc.html" xlink:title="Language_List" target="_parent">
<polygon fill="none" stroke="black" points="520.814,-204 419.186,-204 419.186,-168 520.814,-168 520.814,-204"/>
<text text-anchor="middle" x="470" y="-181.6" font-family="Courier,monospace" font-size="11.00">Language_List</text>
</a>
</g>
<!-- \\Yetti\\API\\ListAbstract -->
<g id="node12" class="node"><title>\\Yetti\\API\\ListAbstract</title>
<a xlink:href="ListAbstract.inc.html" xlink:title="ListAbstract" target="_parent">
<polygon fill="none" stroke="black" points="303.713,-96 208.287,-96 208.287,-60 303.713,-60 303.713,-96"/>
<text text-anchor="middle" x="256" y="-73.6" font-family="Courier,monospace" font-size="11.00">ListAbstract</text>
</a>
</g>
<!-- \\Yetti\\API\\Language_List&#45;&gt;\\Yetti\\API\\ListAbstract -->
<g id="edge16" class="edge"><title>\\Yetti\\API\\Language_List&#45;&gt;\\Yetti\\API\\ListAbstract</title>
<path fill="none" stroke="black" d="M419.161,-171.043C409.914,-167.568 400.498,-163.537 392,-159 356.714,-140.162 354.629,-125.021 320,-105 317.355,-103.471 314.608,-101.977 311.804,-100.527"/>
<polygon fill="none" stroke="black" points="313.235,-97.3302 302.718,-96.0526 310.143,-103.61 313.235,-97.3302"/>
</g>
<!-- \\Yetti\\API\\Language -->
<g id="node11" class="node"><title>\\Yetti\\API\\Language</title>
<a xlink:href="Language.inc.html" xlink:title="Language" target="_parent">
<polygon fill="none" stroke="black" points="290.309,-312 221.691,-312 221.691,-276 290.309,-276 290.309,-312"/>
<text text-anchor="middle" x="256" y="-289.6" font-family="Courier,monospace" font-size="11.00">Language</text>
</a>
</g>
<!-- \\Yetti\\API\\Language&#45;&gt;\\Yetti\\API\\BaseAbstract -->
<g id="edge18" class="edge"><title>\\Yetti\\API\\Language&#45;&gt;\\Yetti\\API\\BaseAbstract</title>
<path fill="none" stroke="black" d="M221.594,-279.838C212.019,-275.737 201.581,-271.226 192,-267 168.765,-256.751 143.098,-245.14 121.568,-235.319"/>
<polygon fill="none" stroke="black" points="122.853,-232.058 112.302,-231.086 119.944,-238.425 122.853,-232.058"/>
</g>
<!-- \\Yetti\\API\\ListAbstract&#45;&gt;\\Yetti\\API\\BaseAbstract -->
<g id="edge20" class="edge"><title>\\Yetti\\API\\ListAbstract&#45;&gt;\\Yetti\\API\\BaseAbstract</title>
<path fill="none" stroke="black" d="M208.328,-95.9029C202.678,-98.6758 197.106,-101.72 192,-105 155.303,-128.57 119.049,-163.627 96.3816,-187.353"/>
<polygon fill="none" stroke="black" points="93.549,-185.255 89.2342,-194.931 98.6416,-190.058 93.549,-185.255"/>
</g>
<!-- \\Yetti\\API\\Resource_Abstract&#45;&gt;\\Yetti\\API\\BaseAbstract -->
<g id="edge22" class="edge"><title>\\Yetti\\API\\Resource_Abstract&#45;&gt;\\Yetti\\API\\BaseAbstract</title>
<path fill="none" stroke="black" d="M212.587,-150.032C205.695,-153.004 198.641,-156.07 192,-159 168.765,-169.249 143.098,-180.86 121.568,-190.681"/>
<polygon fill="none" stroke="black" points="119.944,-187.575 112.302,-194.914 122.853,-193.942 119.944,-187.575"/>
</g>
<!-- \\Yetti\\API\\Resource_Asset_Group -->
<g id="node14" class="node"><title>\\Yetti\\API\\Resource_Asset_Group</title>
<a xlink:href="Resource.Asset.Group.inc.html" xlink:title="Resource_Asset_Group" target="_parent">
<polygon fill="none" stroke="black" points="544.021,-150 395.979,-150 395.979,-114 544.021,-114 544.021,-150"/>
<text text-anchor="middle" x="470" y="-127.6" font-family="Courier,monospace" font-size="11.00">Resource_Asset_Group</text>
</a>
</g>
<!-- \\Yetti\\API\\Resource_Asset_Group&#45;&gt;\\Yetti\\API\\ListAbstract -->
<g id="edge24" class="edge"><title>\\Yetti\\API\\Resource_Asset_Group&#45;&gt;\\Yetti\\API\\ListAbstract</title>
<path fill="none" stroke="black" d="M398.112,-113.944C370.696,-106.96 339.747,-99.077 313.833,-92.4764"/>
<polygon fill="none" stroke="black" points="314.355,-88.9975 303.8,-89.9208 312.627,-95.7809 314.355,-88.9975"/>
</g>
<!-- \\Yetti\\API\\Resource_Asset -->
<g id="node15" class="node"><title>\\Yetti\\API\\Resource_Asset</title>
<a xlink:href="Resource.Asset.inc.html" xlink:title="Resource_Asset" target="_parent">
<polygon fill="none" stroke="black" points="310.416,-258 201.584,-258 201.584,-222 310.416,-222 310.416,-258"/>
<text text-anchor="middle" x="256" y="-235.6" font-family="Courier,monospace" font-size="11.00">Resource_Asset</text>
</a>
</g>
<!-- \\Yetti\\API\\Resource_Asset&#45;&gt;\\Yetti\\API\\BaseAbstract -->
<g id="edge26" class="edge"><title>\\Yetti\\API\\Resource_Asset&#45;&gt;\\Yetti\\API\\BaseAbstract</title>
<path fill="none" stroke="black" d="M201.378,-232.045C178.818,-228.698 152.548,-224.801 129.669,-221.407"/>
<polygon fill="none" stroke="black" points="130.164,-217.942 119.759,-219.937 129.137,-224.866 130.164,-217.942"/>
</g>
<!-- \\Yetti\\API\\Resource_ListAbstract&#45;&gt;\\Yetti\\API\\ListAbstract -->
<g id="edge28" class="edge"><title>\\Yetti\\API\\Resource_ListAbstract&#45;&gt;\\Yetti\\API\\ListAbstract</title>
<path fill="none" stroke="black" d="M392.763,-78C366.691,-78 338.006,-78 313.747,-78"/>
<polygon fill="none" stroke="black" points="313.642,-74.5001 303.642,-78 313.642,-81.5001 313.642,-74.5001"/>
</g>
<!-- \\Yetti\\API\\Resource_Property -->
<g id="node17" class="node"><title>\\Yetti\\API\\Resource_Property</title>
<a xlink:href="Resource.Property.inc.html" xlink:title="Resource_Property" target="_parent">
<polygon fill="none" stroke="black" points="320.218,-204 191.782,-204 191.782,-168 320.218,-168 320.218,-204"/>
<text text-anchor="middle" x="256" y="-181.6" font-family="Courier,monospace" font-size="11.00">Resource_Property</text>
</a>
</g>
<!-- \\Yetti\\API\\Resource_Property&#45;&gt;\\Yetti\\API\\BaseAbstract -->
<g id="edge30" class="edge"><title>\\Yetti\\API\\Resource_Property&#45;&gt;\\Yetti\\API\\BaseAbstract</title>
<path fill="none" stroke="black" d="M191.856,-195.368C171.66,-198.364 149.438,-201.66 129.729,-204.584"/>
<polygon fill="none" stroke="black" points="129.053,-201.146 119.675,-206.076 130.08,-208.07 129.053,-201.146"/>
</g>
<!-- \\Yetti\\API\\Result -->
<g id="node18" class="node"><title>\\Yetti\\API\\Result</title>
<a xlink:href="Result.inc.html" xlink:title="Result" target="_parent">
<polygon fill="none" stroke="black" points="705.608,-204 650.392,-204 650.392,-168 705.608,-168 705.608,-204"/>
<text text-anchor="middle" x="678" y="-181.6" font-family="Courier,monospace" font-size="11.00">Result</text>
</a>
</g>
<!-- \\Yetti\\API\\User_List -->
<g id="node19" class="node"><title>\\Yetti\\API\\User_List</title>
<a xlink:href="User.List.inc.html" xlink:title="User_List" target="_parent">
<polygon fill="none" stroke="black" points="715.911,-258 640.089,-258 640.089,-222 715.911,-222 715.911,-258"/>
<text text-anchor="middle" x="678" y="-235.6" font-family="Courier,monospace" font-size="11.00">User_List</text>
</a>
</g>
<!-- \\Yetti\\API\\User_List&#45;&gt;\\Yetti\\API\\Resource_ListAbstract -->
<g id="edge32" class="edge"><title>\\Yetti\\API\\User_List&#45;&gt;\\Yetti\\API\\Resource_ListAbstract</title>
<path fill="none" stroke="black" d="M640.236,-226.194C633.084,-222.545 625.966,-218.154 620,-213 576.348,-175.284 593.573,-140.371 548,-105 546.227,-103.624 544.378,-102.315 542.471,-101.069"/>
<polygon fill="none" stroke="black" points="544.179,-98.014 533.775,-96.0092 540.658,-104.064 544.179,-98.014"/>
</g>
<!-- \\Yetti\\API\\User -->
<g id="node20" class="node"><title>\\Yetti\\API\\User</title>
<a xlink:href="User.inc.html" xlink:title="User" target="_parent">
<polygon fill="none" stroke="black" points="497,-258 443,-258 443,-222 497,-222 497,-258"/>
<text text-anchor="middle" x="470" y="-235.6" font-family="Courier,monospace" font-size="11.00">User</text>
</a>
</g>
<!-- \\Yetti\\API\\User&#45;&gt;\\Yetti\\API\\Resource_Abstract -->
<g id="edge34" class="edge"><title>\\Yetti\\API\\User&#45;&gt;\\Yetti\\API\\Resource_Abstract</title>
<path fill="none" stroke="black" d="M442.854,-233.013C427.547,-228.395 408.121,-221.606 392,-213 356.714,-194.162 354.629,-179.021 320,-159 317.355,-157.471 314.608,-155.977 311.804,-154.527"/>
<polygon fill="none" stroke="black" points="313.235,-151.33 302.718,-150.053 310.143,-157.61 313.235,-151.33"/>
</g>
<!-- \\Yetti\\API\\Webservice -->
<g id="node21" class="node"><title>\\Yetti\\API\\Webservice</title>
<a xlink:href="Webservice.inc.html" xlink:title="Webservice" target="_parent">
<polygon fill="none" stroke="black" points="719.011,-96 636.989,-96 636.989,-60 719.011,-60 719.011,-96"/>
<text text-anchor="middle" x="678" y="-73.6" font-family="Courier,monospace" font-size="11.00">Webservice</text>
</a>
</g>
</g>
</svg>
