<?xml version="1.0" encoding="UTF-8" standalone="no"?>
<!DOCTYPE svg PUBLIC "-//W3C//DTD SVG 1.1//EN"
 "http://www.w3.org/Graphics/SVG/1.1/DTD/svg11.dtd">
<!-- Generated by graphviz version 2.28.0 (20110509.1545)
 -->
<!-- Title: G Pages: 1 -->
<svg width="836pt" height="1034pt"
 viewBox="0.00 0.00 836.00 1034.00" xmlns="http://www.w3.org/2000/svg" xmlns:xlink="http://www.w3.org/1999/xlink">
<g id="graph1" class="graph" transform="scale(1 1) rotate(0) translate(4 1030)">
<title>G</title>
<polygon fill="white" stroke="white" points="-4,5 -4,-1030 833,-1030 833,5 -4,5"/>
<g id="graph2" class="cluster"><title>cluster_Yetti</title>
<polyline fill="none" stroke="gray" points="20,-152 808,-152 "/>
<path fill="none" stroke="gray" d="M808,-152C814,-152 820,-158 820,-164"/>
<polyline fill="none" stroke="gray" points="820,-164 820,-1006 "/>
<path fill="none" stroke="gray" d="M820,-1006C820,-1012 814,-1018 808,-1018"/>
<polyline fill="none" stroke="gray" points="808,-1018 20,-1018 "/>
<path fill="none" stroke="gray" d="M20,-1018C14,-1018 8,-1012 8,-1006"/>
<polyline fill="none" stroke="gray" points="8,-1006 8,-164 "/>
<path fill="none" stroke="gray" d="M8,-164C8,-158 14,-152 20,-152"/>
<text text-anchor="middle" x="414" y="-1003" font-family="Times,serif" font-size="11.00" fill="gray">Yetti</text>
</g>
<g id="graph3" class="cluster"><title>cluster_Yetti\API</title>
<polyline fill="none" stroke="gray" points="28,-160 800,-160 "/>
<path fill="none" stroke="gray" d="M800,-160C806,-160 812,-166 812,-172"/>
<polyline fill="none" stroke="gray" points="812,-172 812,-977 "/>
<path fill="none" stroke="gray" d="M812,-977C812,-983 806,-989 800,-989"/>
<polyline fill="none" stroke="gray" points="800,-989 28,-989 "/>
<path fill="none" stroke="gray" d="M28,-989C22,-989 16,-983 16,-977"/>
<polyline fill="none" stroke="gray" points="16,-977 16,-172 "/>
<path fill="none" stroke="gray" d="M16,-172C16,-166 22,-160 28,-160"/>
<text text-anchor="middle" x="414" y="-974" font-family="Times,serif" font-size="11.00" fill="gray">API</text>
</g>
<!-- \\Yetti\\API\\Auth_Details -->
<g id="node3" class="node"><title>\\Yetti\\API\\Auth_Details</title>
<a xlink:href="Auth.Details.html" xlink:title="Auth_Details" target="_parent">
<polygon fill="none" stroke="black" points="317.713,-960 222.287,-960 222.287,-924 317.713,-924 317.713,-960"/>
<text text-anchor="middle" x="270" y="-937.6" font-family="Courier,monospace" font-size="11.00">Auth_Details</text>
</a>
</g>
<!-- \\Yetti\\API\\BaseAbstract -->
<g id="node5" class="node"><title>\\Yetti\\API\\BaseAbstract</title>
<a xlink:href="BaseAbstract.html" xlink:title="«abstract»&lt;br/&gt;BaseAbstract" target="_parent">
<polygon fill="none" stroke="black" points="120,-582 24,-582 24,-546 120,-546 120,-582"/>
<text text-anchor="start" x="39" y="-565.5" font-family="Courier,monospace" font-size="11.00">«abstract»</text>
<text text-anchor="start" x="32.5" y="-554.5" font-family="Courier,monospace" font-size="11.00">BaseAbstract</text>
</a>
</g>
<!-- \\Yetti\\API\\Auth_Details&#45;&gt;\\Yetti\\API\\BaseAbstract -->
<g id="edge4" class="edge"><title>\\Yetti\\API\\Auth_Details&#45;&gt;\\Yetti\\API\\BaseAbstract</title>
<path fill="none" stroke="black" d="M222.365,-933.124C211.273,-929.133 200.271,-923.357 192,-915 100.677,-822.724 79.3859,-657.867 74.4636,-592.159"/>
<polygon fill="none" stroke="black" points="77.9526,-591.877 73.7844,-582.137 70.9686,-592.351 77.9526,-591.877"/>
</g>
<!-- \\Yetti\\API\\Autoloader -->
<g id="node4" class="node"><title>\\Yetti\\API\\Autoloader</title>
<a xlink:href="Autoloader.html" xlink:title="Autoloader" target="_parent">
<polygon fill="none" stroke="black" points="767.011,-852 684.989,-852 684.989,-816 767.011,-816 767.011,-852"/>
<text text-anchor="middle" x="726" y="-829.6" font-family="Courier,monospace" font-size="11.00">Autoloader</text>
</a>
</g>
<!-- \\Yetti\\API\\Collection_List -->
<g id="node6" class="node"><title>\\Yetti\\API\\Collection_List</title>
<a xlink:href="Collection.List.html" xlink:title="Collection_List" target="_parent">
<polygon fill="none" stroke="black" points="783.516,-636 668.484,-636 668.484,-600 783.516,-600 783.516,-636"/>
<text text-anchor="middle" x="726" y="-613.6" font-family="Courier,monospace" font-size="11.00">Collection_List</text>
</a>
</g>
<!-- \\Yetti\\API\\Resource_ListAbstract -->
<g id="node32" class="node"><title>\\Yetti\\API\\Resource_ListAbstract</title>
<a xlink:href="Resource.ListAbstract.html" xlink:title="«abstract»&lt;br/&gt;Resource_ListAbstract" target="_parent">
<polygon fill="none" stroke="black" points="575.5,-528 420.5,-528 420.5,-492 575.5,-492 575.5,-528"/>
<text text-anchor="start" x="465" y="-511.5" font-family="Courier,monospace" font-size="11.00">«abstract»</text>
<text text-anchor="start" x="429" y="-500.5" font-family="Courier,monospace" font-size="11.00">Resource_ListAbstract</text>
</a>
</g>
<!-- \\Yetti\\API\\Collection_List&#45;&gt;\\Yetti\\API\\Resource_ListAbstract -->
<g id="edge6" class="edge"><title>\\Yetti\\API\\Collection_List&#45;&gt;\\Yetti\\API\\Resource_ListAbstract</title>
<path fill="none" stroke="black" d="M668.211,-600.333C661.263,-597.521 654.373,-594.403 648,-591 612.714,-572.162 611.286,-555.838 576,-537 572.907,-535.349 569.692,-533.764 566.409,-532.25"/>
<polygon fill="none" stroke="black" points="567.581,-528.943 557.014,-528.166 564.79,-535.362 567.581,-528.943"/>
</g>
<!-- \\Yetti\\API\\Collection -->
<g id="node7" class="node"><title>\\Yetti\\API\\Collection</title>
<a xlink:href="Collection.html" xlink:title="Collection" target="_parent">
<polygon fill="none" stroke="black" points="539.011,-798 456.989,-798 456.989,-762 539.011,-762 539.011,-798"/>
<text text-anchor="middle" x="498" y="-775.6" font-family="Courier,monospace" font-size="11.00">Collection</text>
</a>
</g>
<!-- \\Yetti\\API\\Resource_BaseAbstract -->
<g id="node31" class="node"><title>\\Yetti\\API\\Resource_BaseAbstract</title>
<a xlink:href="Resource.BaseAbstract.html" xlink:title="«abstract»&lt;br/&gt;Resource_BaseAbstract" target="_parent">
<polygon fill="none" stroke="black" points="347.5,-312 192.5,-312 192.5,-276 347.5,-276 347.5,-312"/>
<text text-anchor="start" x="237" y="-295.5" font-family="Courier,monospace" font-size="11.00">«abstract»</text>
<text text-anchor="start" x="201" y="-284.5" font-family="Courier,monospace" font-size="11.00">Resource_BaseAbstract</text>
</a>
</g>
<!-- \\Yetti\\API\\Collection&#45;&gt;\\Yetti\\API\\Resource_BaseAbstract -->
<g id="edge8" class="edge"><title>\\Yetti\\API\\Collection&#45;&gt;\\Yetti\\API\\Resource_BaseAbstract</title>
<path fill="none" stroke="black" d="M456.628,-774.334C443.138,-770.461 429.21,-763.949 420,-753 294.701,-604.043 473.299,-469.957 348,-321 347.382,-320.265 346.742,-319.55 346.083,-318.854"/>
<polygon fill="none" stroke="black" points="348.179,-316.039 338.335,-312.12 343.587,-321.322 348.179,-316.039"/>
</g>
<!-- \\Yetti\\API\\Exception_Auth -->
<g id="node8" class="node"><title>\\Yetti\\API\\Exception_Auth</title>
<a xlink:href="Exception.Auth.html" xlink:title="Exception_Auth" target="_parent">
<polygon fill="none" stroke="black" points="780.416,-366 671.584,-366 671.584,-330 780.416,-330 780.416,-366"/>
<text text-anchor="middle" x="726" y="-343.6" font-family="Courier,monospace" font-size="11.00">Exception_Auth</text>
</a>
</g>
<!-- \\Yetti\\API\\Exception -->
<g id="node9" class="node"><title>\\Yetti\\API\\Exception</title>
<a xlink:href="Exception.html" xlink:title="Exception" target="_parent">
<polygon fill="none" stroke="black" points="535.911,-204 460.089,-204 460.089,-168 535.911,-168 535.911,-204"/>
<text text-anchor="middle" x="498" y="-181.6" font-family="Courier,monospace" font-size="11.00">Exception</text>
</a>
</g>
<!-- \\Yetti\\API\\Exception_Auth&#45;&gt;\\Yetti\\API\\Exception -->
<g id="edge10" class="edge"><title>\\Yetti\\API\\Exception_Auth&#45;&gt;\\Yetti\\API\\Exception</title>
<path fill="none" stroke="black" d="M671.716,-334.431C663.294,-330.886 655.05,-326.472 648,-321 602.427,-285.629 621.573,-248.371 576,-213 567.089,-206.084 556.272,-200.858 545.597,-196.94"/>
<polygon fill="none" stroke="black" points="546.486,-193.547 535.892,-193.699 544.268,-200.186 546.486,-193.547"/>
</g>
<!-- \\Exception -->
<g id="node47" class="node"><title>\\Exception</title>
<ellipse fill="none" stroke="black" cx="270" cy="-126" rx="52.7417" ry="18"/>
<text text-anchor="middle" x="270" y="-120.4" font-family="Times,serif" font-size="14.00" fill="gray">\Exception</text>
</g>
<!-- \\Yetti\\API\\Exception&#45;&gt;\\Exception -->
<g id="edge12" class="edge"><title>\\Yetti\\API\\Exception&#45;&gt;\\Exception</title>
<path fill="none" stroke="black" d="M460.186,-176.226C422.669,-166.266 364.179,-150.738 322.166,-139.584"/>
<polygon fill="none" stroke="black" points="322.962,-136.174 312.398,-136.991 321.166,-142.94 322.962,-136.174"/>
</g>
<!-- \\Yetti\\API\\Item_Collections -->
<g id="node10" class="node"><title>\\Yetti\\API\\Item_Collections</title>
<a xlink:href="Item.Collections.html" xlink:title="Item_Collections" target="_parent">
<polygon fill="none" stroke="black" points="330.618,-906 209.382,-906 209.382,-870 330.618,-870 330.618,-906"/>
<text text-anchor="middle" x="270" y="-883.6" font-family="Courier,monospace" font-size="11.00">Item_Collections</text>
</a>
</g>
<!-- \\Yetti\\API\\Item_Collections&#45;&gt;\\Yetti\\API\\BaseAbstract -->
<g id="edge14" class="edge"><title>\\Yetti\\API\\Item_Collections&#45;&gt;\\Yetti\\API\\BaseAbstract</title>
<path fill="none" stroke="black" d="M209.219,-873.003C202.931,-869.751 197.015,-865.8 192,-861 113.044,-785.431 85.1612,-650.584 76.4842,-592.217"/>
<polygon fill="none" stroke="black" points="79.9396,-591.654 75.0795,-582.24 73.0079,-592.63 79.9396,-591.654"/>
</g>
<!-- \\Yetti\\API\\Item_Combination_List -->
<g id="node11" class="node"><title>\\Yetti\\API\\Item_Combination_List</title>
<a xlink:href="Item.Combination.List.html" xlink:title="Item_Combination_List" target="_parent">
<polygon fill="none" stroke="black" points="803.123,-582 648.877,-582 648.877,-546 803.123,-546 803.123,-582"/>
<text text-anchor="middle" x="726" y="-559.6" font-family="Courier,monospace" font-size="11.00">Item_Combination_List</text>
</a>
</g>
<!-- \\Yetti\\API\\Item_Combination_List&#45;&gt;\\Yetti\\API\\Resource_ListAbstract -->
<g id="edge16" class="edge"><title>\\Yetti\\API\\Item_Combination_List&#45;&gt;\\Yetti\\API\\Resource_ListAbstract</title>
<path fill="none" stroke="black" d="M649.431,-545.944C628.511,-540.945 605.661,-535.485 584.232,-530.365"/>
<polygon fill="none" stroke="black" points="585.037,-526.959 574.498,-528.039 583.411,-533.767 585.037,-526.959"/>
</g>
<!-- \\Yetti\\API\\Item_Combination -->
<g id="node12" class="node"><title>\\Yetti\\API\\Item_Combination</title>
<a xlink:href="Item.Combination.html" xlink:title="Item_Combination" target="_parent">
<polygon fill="none" stroke="black" points="330.618,-852 209.382,-852 209.382,-816 330.618,-816 330.618,-852"/>
<text text-anchor="middle" x="270" y="-829.6" font-family="Courier,monospace" font-size="11.00">Item_Combination</text>
</a>
</g>
<!-- \\Yetti\\API\\Item_Combination&#45;&gt;\\Yetti\\API\\BaseAbstract -->
<g id="edge18" class="edge"><title>\\Yetti\\API\\Item_Combination&#45;&gt;\\Yetti\\API\\BaseAbstract</title>
<path fill="none" stroke="black" d="M209.174,-818.435C202.968,-815.288 197.084,-811.516 192,-807 125.115,-747.584 91.8859,-642.08 79.2547,-591.948"/>
<polygon fill="none" stroke="black" points="82.6305,-591.018 76.8672,-582.128 75.8286,-592.671 82.6305,-591.018"/>
</g>
<!-- \\Yetti\\API\\Item_Filter_List -->
<g id="node13" class="node"><title>\\Yetti\\API\\Item_Filter_List</title>
<a xlink:href="Item.Filter.List.html" xlink:title="Item_Filter_List" target="_parent">
<polygon fill="none" stroke="black" points="558.618,-420 437.382,-420 437.382,-384 558.618,-384 558.618,-420"/>
<text text-anchor="middle" x="498" y="-397.6" font-family="Courier,monospace" font-size="11.00">Item_Filter_List</text>
</a>
</g>
<!-- \\Yetti\\API\\ListAbstract -->
<g id="node24" class="node"><title>\\Yetti\\API\\ListAbstract</title>
<a xlink:href="ListAbstract.html" xlink:title="«abstract»&lt;br/&gt;ListAbstract" target="_parent">
<polygon fill="none" stroke="black" points="318,-258 222,-258 222,-222 318,-222 318,-258"/>
<text text-anchor="start" x="237" y="-241.5" font-family="Courier,monospace" font-size="11.00">«abstract»</text>
<text text-anchor="start" x="230.5" y="-230.5" font-family="Courier,monospace" font-size="11.00">ListAbstract</text>
</a>
</g>
<!-- \\Yetti\\API\\Item_Filter_List&#45;&gt;\\Yetti\\API\\ListAbstract -->
<g id="edge20" class="edge"><title>\\Yetti\\API\\Item_Filter_List&#45;&gt;\\Yetti\\API\\ListAbstract</title>
<path fill="none" stroke="black" d="M437.35,-385.559C431.184,-382.576 425.26,-379.082 420,-375 374.427,-339.629 393.573,-302.371 348,-267 341.863,-262.236 334.821,-258.275 327.544,-254.99"/>
<polygon fill="none" stroke="black" points="328.831,-251.735 318.251,-251.182 326.177,-258.212 328.831,-251.735"/>
</g>
<!-- \\Yetti\\API\\Item_Filter_Type_List -->
<g id="node14" class="node"><title>\\Yetti\\API\\Item_Filter_Type_List</title>
<a xlink:href="Item.Filter.Type.List.html" xlink:title="Item_Filter_Type_List" target="_parent">
<polygon fill="none" stroke="black" points="575.123,-366 420.877,-366 420.877,-330 575.123,-330 575.123,-366"/>
<text text-anchor="middle" x="498" y="-343.6" font-family="Courier,monospace" font-size="11.00">Item_Filter_Type_List</text>
</a>
</g>
<!-- \\Yetti\\API\\Item_Filter_Type_List&#45;&gt;\\Yetti\\API\\ListAbstract -->
<g id="edge22" class="edge"><title>\\Yetti\\API\\Item_Filter_Type_List&#45;&gt;\\Yetti\\API\\ListAbstract</title>
<path fill="none" stroke="black" d="M438.986,-329.834C432.454,-327.153 425.998,-324.202 420,-321 384.714,-302.162 383.286,-285.838 348,-267 341.642,-263.606 334.771,-260.494 327.84,-257.687"/>
<polygon fill="none" stroke="black" points="328.986,-254.378 318.396,-254.05 326.47,-260.91 328.986,-254.378"/>
</g>
<!-- \\Yetti\\API\\Item_Filter_Type -->
<g id="node15" class="node"><title>\\Yetti\\API\\Item_Filter_Type</title>
<a xlink:href="Item.Filter.Type.html" xlink:title="Item_Filter_Type" target="_parent">
<polygon fill="none" stroke="black" points="330.618,-798 209.382,-798 209.382,-762 330.618,-762 330.618,-798"/>
<text text-anchor="middle" x="270" y="-775.6" font-family="Courier,monospace" font-size="11.00">Item_Filter_Type</text>
</a>
</g>
<!-- \\Yetti\\API\\Item_Filter_Type&#45;&gt;\\Yetti\\API\\BaseAbstract -->
<g id="edge24" class="edge"><title>\\Yetti\\API\\Item_Filter_Type&#45;&gt;\\Yetti\\API\\BaseAbstract</title>
<path fill="none" stroke="black" d="M209.243,-763.695C203.096,-760.687 197.206,-757.151 192,-753 136.962,-709.121 100.142,-632.436 83.3786,-591.535"/>
<polygon fill="none" stroke="black" points="86.6035,-590.173 79.642,-582.186 80.1034,-592.771 86.6035,-590.173"/>
</g>
<!-- \\Yetti\\API\\Item_Filter -->
<g id="node16" class="node"><title>\\Yetti\\API\\Item_Filter</title>
<a xlink:href="Item.Filter.html" xlink:title="Item_Filter" target="_parent">
<polygon fill="none" stroke="black" points="314.113,-744 225.887,-744 225.887,-708 314.113,-708 314.113,-744"/>
<text text-anchor="middle" x="270" y="-721.6" font-family="Courier,monospace" font-size="11.00">Item_Filter</text>
</a>
</g>
<!-- \\Yetti\\API\\Item_Filter&#45;&gt;\\Yetti\\API\\BaseAbstract -->
<g id="edge26" class="edge"><title>\\Yetti\\API\\Item_Filter&#45;&gt;\\Yetti\\API\\BaseAbstract</title>
<path fill="none" stroke="black" d="M225.598,-715.098C214.11,-711.086 202.104,-705.806 192,-699 148.604,-669.769 111.06,-621.01 90.2822,-590.781"/>
<polygon fill="none" stroke="black" points="93.1257,-588.738 84.6298,-582.408 87.3238,-592.655 93.1257,-588.738"/>
</g>
<!-- \\Yetti\\API\\Item_List -->
<g id="node17" class="node"><title>\\Yetti\\API\\Item_List</title>
<a xlink:href="Item.List.html" xlink:title="Item_List" target="_parent">
<polygon fill="none" stroke="black" points="763.911,-528 688.089,-528 688.089,-492 763.911,-492 763.911,-528"/>
<text text-anchor="middle" x="726" y="-505.6" font-family="Courier,monospace" font-size="11.00">Item_List</text>
</a>
</g>
<!-- \\Yetti\\API\\Item_List&#45;&gt;\\Yetti\\API\\Resource_ListAbstract -->
<g id="edge28" class="edge"><title>\\Yetti\\API\\Item_List&#45;&gt;\\Yetti\\API\\Resource_ListAbstract</title>
<path fill="none" stroke="black" d="M688.186,-510C660.523,-510 621.458,-510 586.002,-510"/>
<polygon fill="none" stroke="black" points="585.623,-506.5 575.623,-510 585.623,-513.5 585.623,-506.5"/>
</g>
<!-- \\Yetti\\API\\Item_Type_List -->
<g id="node18" class="node"><title>\\Yetti\\API\\Item_Type_List</title>
<a xlink:href="Item.Type.List.html" xlink:title="Item_Type_List" target="_parent">
<polygon fill="none" stroke="black" points="552.416,-312 443.584,-312 443.584,-276 552.416,-276 552.416,-312"/>
<text text-anchor="middle" x="498" y="-289.6" font-family="Courier,monospace" font-size="11.00">Item_Type_List</text>
</a>
</g>
<!-- \\Yetti\\API\\Item_Type_List&#45;&gt;\\Yetti\\API\\ListAbstract -->
<g id="edge30" class="edge"><title>\\Yetti\\API\\Item_Type_List&#45;&gt;\\Yetti\\API\\ListAbstract</title>
<path fill="none" stroke="black" d="M443.727,-281.271C408.896,-272.949 363.441,-262.088 327.903,-253.596"/>
<polygon fill="none" stroke="black" points="328.7,-250.188 318.16,-251.268 327.073,-256.997 328.7,-250.188"/>
</g>
<!-- \\Yetti\\API\\Item_Type -->
<g id="node19" class="node"><title>\\Yetti\\API\\Item_Type</title>
<a xlink:href="Item.Type.html" xlink:title="Item_Type" target="_parent">
<polygon fill="none" stroke="black" points="307.911,-690 232.089,-690 232.089,-654 307.911,-654 307.911,-690"/>
<text text-anchor="middle" x="270" y="-667.6" font-family="Courier,monospace" font-size="11.00">Item_Type</text>
</a>
</g>
<!-- \\Yetti\\API\\Item_Type&#45;&gt;\\Yetti\\API\\BaseAbstract -->
<g id="edge32" class="edge"><title>\\Yetti\\API\\Item_Type&#45;&gt;\\Yetti\\API\\BaseAbstract</title>
<path fill="none" stroke="black" d="M232.157,-661.252C219.162,-656.9 204.646,-651.383 192,-645 160.207,-628.953 126.937,-605.673 103.685,-588.184"/>
<polygon fill="none" stroke="black" points="105.67,-585.297 95.5927,-582.027 101.432,-590.868 105.67,-585.297"/>
</g>
<!-- \\Yetti\\API\\Item_Variation -->
<g id="node20" class="node"><title>\\Yetti\\API\\Item_Variation</title>
<a xlink:href="Item.Variation.html" xlink:title="Item_Variation" target="_parent">
<polygon fill="none" stroke="black" points="780.416,-474 671.584,-474 671.584,-438 780.416,-438 780.416,-474"/>
<text text-anchor="middle" x="726" y="-451.6" font-family="Courier,monospace" font-size="11.00">Item_Variation</text>
</a>
</g>
<!-- \\Yetti\\API\\Item -->
<g id="node21" class="node"><title>\\Yetti\\API\\Item</title>
<a xlink:href="Item.html" xlink:title="Item" target="_parent">
<polygon fill="none" stroke="black" points="525,-744 471,-744 471,-708 525,-708 525,-744"/>
<text text-anchor="middle" x="498" y="-721.6" font-family="Courier,monospace" font-size="11.00">Item</text>
</a>
</g>
<!-- \\Yetti\\API\\Item&#45;&gt;\\Yetti\\API\\Resource_BaseAbstract -->
<g id="edge34" class="edge"><title>\\Yetti\\API\\Item&#45;&gt;\\Yetti\\API\\Resource_BaseAbstract</title>
<path fill="none" stroke="black" d="M470.763,-723.455C453.825,-720.405 432.663,-713.707 420,-699 308.409,-569.403 459.591,-450.597 348,-321 347.373,-320.272 346.726,-319.564 346.059,-318.874"/>
<polygon fill="none" stroke="black" points="348.121,-316.033 338.246,-312.196 343.573,-321.354 348.121,-316.033"/>
</g>
<!-- \\Yetti\\API\\Language_List -->
<g id="node22" class="node"><title>\\Yetti\\API\\Language_List</title>
<a xlink:href="Language.List.html" xlink:title="Language_List" target="_parent">
<polygon fill="none" stroke="black" points="548.814,-258 447.186,-258 447.186,-222 548.814,-222 548.814,-258"/>
<text text-anchor="middle" x="498" y="-235.6" font-family="Courier,monospace" font-size="11.00">Language_List</text>
</a>
</g>
<!-- \\Yetti\\API\\Language_List&#45;&gt;\\Yetti\\API\\ListAbstract -->
<g id="edge36" class="edge"><title>\\Yetti\\API\\Language_List&#45;&gt;\\Yetti\\API\\ListAbstract</title>
<path fill="none" stroke="black" d="M447.124,-240C411.953,-240 364.771,-240 328.094,-240"/>
<polygon fill="none" stroke="black" points="328.046,-236.5 318.046,-240 328.046,-243.5 328.046,-236.5"/>
</g>
<!-- \\Yetti\\API\\Language -->
<g id="node23" class="node"><title>\\Yetti\\API\\Language</title>
<a xlink:href="Language.html" xlink:title="Language" target="_parent">
<polygon fill="none" stroke="black" points="304.309,-636 235.691,-636 235.691,-600 304.309,-600 304.309,-636"/>
<text text-anchor="middle" x="270" y="-613.6" font-family="Courier,monospace" font-size="11.00">Language</text>
</a>
</g>
<!-- \\Yetti\\API\\Language&#45;&gt;\\Yetti\\API\\BaseAbstract -->
<g id="edge38" class="edge"><title>\\Yetti\\API\\Language&#45;&gt;\\Yetti\\API\\BaseAbstract</title>
<path fill="none" stroke="black" d="M235.306,-608.717C206.417,-600.758 164.179,-589.121 130.033,-579.713"/>
<polygon fill="none" stroke="black" points="130.749,-576.28 120.179,-576.998 128.89,-583.029 130.749,-576.28"/>
</g>
<!-- \\Yetti\\API\\ListAbstract&#45;&gt;\\Yetti\\API\\BaseAbstract -->
<g id="edge40" class="edge"><title>\\Yetti\\API\\ListAbstract&#45;&gt;\\Yetti\\API\\BaseAbstract</title>
<path fill="none" stroke="black" d="M221.869,-249.479C211.042,-253.45 200.29,-259.066 192,-267 113.044,-342.569 85.1612,-477.416 76.4842,-535.783"/>
<polygon fill="none" stroke="black" points="73.0079,-535.37 75.0795,-545.76 79.9396,-536.346 73.0079,-535.37"/>
</g>
<!-- \\Yetti\\API\\ListIterator -->
<g id="node25" class="node"><title>\\Yetti\\API\\ListIterator</title>
<a xlink:href="ListIterator.html" xlink:title="ListIterator" target="_parent">
<polygon fill="none" stroke="black" points="773.713,-258 678.287,-258 678.287,-222 773.713,-222 773.713,-258"/>
<text text-anchor="middle" x="726" y="-235.6" font-family="Courier,monospace" font-size="11.00">ListIterator</text>
</a>
</g>
<!-- \\Iterator -->
<g id="node77" class="node"><title>\\Iterator</title>
<ellipse fill="none" stroke="black" cx="498" cy="-126" rx="44.6347" ry="18"/>
<text text-anchor="middle" x="498" y="-120.4" font-family="Times,serif" font-size="14.00" fill="gray">\\Iterator</text>
</g>
<!-- \\Yetti\\API\\ListIterator&#45;&gt;\\Iterator -->
<g id="edge70" class="edge"><title>\\Yetti\\API\\ListIterator&#45;&gt;\\Iterator</title>
<path fill="none" stroke="black" stroke-dasharray="1,5" d="M678.316,-226.43C668.048,-222.684 657.43,-218.194 648,-213 612.25,-193.309 611.407,-176.3 576,-156 565.796,-150.15 554.23,-144.97 543.222,-140.631"/>
<polygon fill="none" stroke="black" points="544.331,-137.308 533.74,-137.038 541.851,-143.854 544.331,-137.308"/>
</g>
<!-- \\Countable -->
<g id="node79" class="node"><title>\\Countable</title>
<ellipse fill="none" stroke="black" cx="498" cy="-72" rx="56.1921" ry="18"/>
<text text-anchor="middle" x="498" y="-66.4" font-family="Times,serif" font-size="14.00" fill="gray">\\Countable</text>
</g>
<!-- \\Yetti\\API\\ListIterator&#45;&gt;\\Countable -->
<g id="edge72" class="edge"><title>\\Yetti\\API\\ListIterator&#45;&gt;\\Countable</title>
<path fill="none" stroke="black" stroke-dasharray="1,5" d="M678.029,-229.123C667.44,-225.21 656.755,-219.97 648,-213 601.117,-175.676 622.883,-136.324 576,-99 569.388,-93.7364 561.677,-89.4598 553.737,-85.996"/>
<polygon fill="none" stroke="black" points="554.95,-82.7121 544.364,-82.2927 552.378,-89.2224 554.95,-82.7121"/>
</g>
<!-- \\ArrayAccess -->
<g id="node81" class="node"><title>\\ArrayAccess</title>
<ellipse fill="none" stroke="black" cx="498" cy="-18" rx="66.044" ry="18"/>
<text text-anchor="middle" x="498" y="-12.4" font-family="Times,serif" font-size="14.00" fill="gray">\\ArrayAccess</text>
</g>
<!-- \\Yetti\\API\\ListIterator&#45;&gt;\\ArrayAccess -->
<g id="edge74" class="edge"><title>\\Yetti\\API\\ListIterator&#45;&gt;\\ArrayAccess</title>
<path fill="none" stroke="black" stroke-dasharray="1,5" d="M678.001,-230.382C667.17,-226.415 656.383,-220.835 648,-213 588.649,-157.533 635.351,-100.467 576,-45 571.063,-40.3859 565.292,-36.5539 559.17,-33.3727"/>
<polygon fill="none" stroke="black" points="560.552,-30.1563 550.004,-29.1623 557.63,-36.5172 560.552,-30.1563"/>
</g>
<!-- \\Yetti\\API\\Oauth_Access_Token -->
<g id="node26" class="node"><title>\\Yetti\\API\\Oauth_Access_Token</title>
<a xlink:href="Oauth.Access.Token.html" xlink:title="Oauth_Access_Token" target="_parent">
<polygon fill="none" stroke="black" points="337.319,-582 202.681,-582 202.681,-546 337.319,-546 337.319,-582"/>
<text text-anchor="middle" x="270" y="-559.6" font-family="Courier,monospace" font-size="11.00">Oauth_Access_Token</text>
</a>
</g>
<!-- \\Yetti\\API\\Oauth_Access_Token&#45;&gt;\\Yetti\\API\\BaseAbstract -->
<g id="edge42" class="edge"><title>\\Yetti\\API\\Oauth_Access_Token&#45;&gt;\\Yetti\\API\\BaseAbstract</title>
<path fill="none" stroke="black" d="M202.643,-564C179.144,-564 152.926,-564 130.25,-564"/>
<polygon fill="none" stroke="black" points="130.103,-560.5 120.103,-564 130.103,-567.5 130.103,-560.5"/>
</g>
<!-- \\Yetti\\API\\Order_List -->
<g id="node27" class="node"><title>\\Yetti\\API\\Order_List</title>
<a xlink:href="Order.List.html" xlink:title="Order_List" target="_parent">
<polygon fill="none" stroke="black" points="767.011,-420 684.989,-420 684.989,-384 767.011,-384 767.011,-420"/>
<text text-anchor="middle" x="726" y="-397.6" font-family="Courier,monospace" font-size="11.00">Order_List</text>
</a>
</g>
<!-- \\Yetti\\API\\Order_List&#45;&gt;\\Yetti\\API\\Resource_ListAbstract -->
<g id="edge44" class="edge"><title>\\Yetti\\API\\Order_List&#45;&gt;\\Yetti\\API\\Resource_ListAbstract</title>
<path fill="none" stroke="black" d="M684.841,-413.488C672.675,-417.649 659.497,-422.862 648,-429 612.714,-447.838 611.286,-464.162 576,-483 572.907,-484.651 569.692,-486.236 566.409,-487.75"/>
<polygon fill="none" stroke="black" points="564.79,-484.638 557.014,-491.834 567.581,-491.057 564.79,-484.638"/>
</g>
<!-- \\Yetti\\API\\Order -->
<g id="node28" class="node"><title>\\Yetti\\API\\Order</title>
<a xlink:href="Order.html" xlink:title="Order" target="_parent">
<polygon fill="none" stroke="black" points="297,-528 243,-528 243,-492 297,-492 297,-528"/>
<text text-anchor="middle" x="270" y="-505.6" font-family="Courier,monospace" font-size="11.00">Order</text>
</a>
</g>
<!-- \\Yetti\\API\\Order&#45;&gt;\\Yetti\\API\\BaseAbstract -->
<g id="edge46" class="edge"><title>\\Yetti\\API\\Order&#45;&gt;\\Yetti\\API\\BaseAbstract</title>
<path fill="none" stroke="black" d="M242.973,-517.171C214.296,-525.072 167.294,-538.021 129.976,-548.303"/>
<polygon fill="none" stroke="black" points="128.935,-544.959 120.224,-550.989 130.794,-551.707 128.935,-544.959"/>
</g>
<!-- \\Yetti\\API\\Resource_Asset_Group -->
<g id="node29" class="node"><title>\\Yetti\\API\\Resource_Asset_Group</title>
<a xlink:href="Resource.Asset.Group.html" xlink:title="Resource_Asset_Group" target="_parent">
<polygon fill="none" stroke="black" points="572.021,-636 423.979,-636 423.979,-600 572.021,-600 572.021,-636"/>
<text text-anchor="middle" x="498" y="-613.6" font-family="Courier,monospace" font-size="11.00">Resource_Asset_Group</text>
</a>
</g>
<!-- \\Yetti\\API\\Resource_Asset_Group&#45;&gt;\\Yetti\\API\\ListAbstract -->
<g id="edge48" class="edge"><title>\\Yetti\\API\\Resource_Asset_Group&#45;&gt;\\Yetti\\API\\ListAbstract</title>
<path fill="none" stroke="black" d="M430.222,-599.946C426.47,-597.354 423.01,-594.39 420,-591 322.057,-480.695 445.943,-377.305 348,-267 342.389,-260.681 335.212,-255.84 327.503,-252.133"/>
<polygon fill="none" stroke="black" points="328.847,-248.902 318.271,-248.28 326.151,-255.362 328.847,-248.902"/>
</g>
<!-- \\Yetti\\API\\Resource_Asset -->
<g id="node30" class="node"><title>\\Yetti\\API\\Resource_Asset</title>
<a xlink:href="Resource.Asset.html" xlink:title="Resource_Asset" target="_parent">
<polygon fill="none" stroke="black" points="324.416,-474 215.584,-474 215.584,-438 324.416,-438 324.416,-474"/>
<text text-anchor="middle" x="270" y="-451.6" font-family="Courier,monospace" font-size="11.00">Resource_Asset</text>
</a>
</g>
<!-- \\Yetti\\API\\Resource_Asset&#45;&gt;\\Yetti\\API\\BaseAbstract -->
<g id="edge50" class="edge"><title>\\Yetti\\API\\Resource_Asset&#45;&gt;\\Yetti\\API\\BaseAbstract</title>
<path fill="none" stroke="black" d="M215.64,-472.668C207.573,-475.77 199.461,-479.234 192,-483 160.207,-499.047 126.937,-522.327 103.685,-539.816"/>
<polygon fill="none" stroke="black" points="101.432,-537.132 95.5927,-545.973 105.67,-542.703 101.432,-537.132"/>
</g>
<!-- \\Yetti\\API\\Resource_BaseAbstract&#45;&gt;\\Yetti\\API\\BaseAbstract -->
<g id="edge52" class="edge"><title>\\Yetti\\API\\Resource_BaseAbstract&#45;&gt;\\Yetti\\API\\BaseAbstract</title>
<path fill="none" stroke="black" d="M204.587,-312.044C200.076,-314.645 195.813,-317.613 192,-321 125.115,-380.416 91.8859,-485.92 79.2547,-536.052"/>
<polygon fill="none" stroke="black" points="75.8286,-535.329 76.8672,-545.872 82.6305,-536.982 75.8286,-535.329"/>
</g>
<!-- \\Yetti\\API\\Resource_ListAbstract&#45;&gt;\\Yetti\\API\\ListAbstract -->
<g id="edge54" class="edge"><title>\\Yetti\\API\\Resource_ListAbstract&#45;&gt;\\Yetti\\API\\ListAbstract</title>
<path fill="none" stroke="black" d="M430.975,-491.813C426.994,-489.252 423.28,-486.331 420,-483 349.003,-410.893 418.997,-339.107 348,-267 342.206,-261.115 335.058,-256.511 327.472,-252.908"/>
<polygon fill="none" stroke="black" points="328.642,-249.604 318.065,-248.992 325.952,-256.067 328.642,-249.604"/>
</g>
<!-- \\Yetti\\API\\Resource_Property -->
<g id="node33" class="node"><title>\\Yetti\\API\\Resource_Property</title>
<a xlink:href="Resource.Property.html" xlink:title="Resource_Property" target="_parent">
<polygon fill="none" stroke="black" points="334.218,-420 205.782,-420 205.782,-384 334.218,-384 334.218,-420"/>
<text text-anchor="middle" x="270" y="-397.6" font-family="Courier,monospace" font-size="11.00">Resource_Property</text>
</a>
</g>
<!-- \\Yetti\\API\\Resource_Property&#45;&gt;\\Yetti\\API\\BaseAbstract -->
<g id="edge56" class="edge"><title>\\Yetti\\API\\Resource_Property&#45;&gt;\\Yetti\\API\\BaseAbstract</title>
<path fill="none" stroke="black" d="M207.883,-420.09C202.323,-422.716 196.935,-425.676 192,-429 148.604,-458.231 111.06,-506.99 90.2822,-537.219"/>
<polygon fill="none" stroke="black" points="87.3238,-535.345 84.6298,-545.592 93.1257,-539.262 87.3238,-535.345"/>
</g>
<!-- \\Yetti\\API\\Result -->
<g id="node34" class="node"><title>\\Yetti\\API\\Result</title>
<a xlink:href="Result.html" xlink:title="Result" target="_parent">
<polygon fill="none" stroke="black" points="753.608,-312 698.392,-312 698.392,-276 753.608,-276 753.608,-312"/>
<text text-anchor="middle" x="726" y="-289.6" font-family="Courier,monospace" font-size="11.00">Result</text>
</a>
</g>
<!-- \\Yetti\\API\\User_Address_List -->
<g id="node35" class="node"><title>\\Yetti\\API\\User_Address_List</title>
<a xlink:href="User.Address.List.html" xlink:title="User_Address_List" target="_parent">
<polygon fill="none" stroke="black" points="562.218,-582 433.782,-582 433.782,-546 562.218,-546 562.218,-582"/>
<text text-anchor="middle" x="498" y="-559.6" font-family="Courier,monospace" font-size="11.00">User_Address_List</text>
</a>
</g>
<!-- \\Yetti\\API\\User_Address_List&#45;&gt;\\Yetti\\API\\ListAbstract -->
<g id="edge58" class="edge"><title>\\Yetti\\API\\User_Address_List&#45;&gt;\\Yetti\\API\\ListAbstract</title>
<path fill="none" stroke="black" d="M433.643,-547.873C428.604,-544.85 423.947,-541.261 420,-537 335.611,-445.882 432.389,-358.118 348,-267 342.258,-260.8 335.01,-256.023 327.271,-252.343"/>
<polygon fill="none" stroke="black" points="328.598,-249.105 318.021,-248.507 325.917,-255.571 328.598,-249.105"/>
</g>
<!-- \\Yetti\\API\\User_Address -->
<g id="node36" class="node"><title>\\Yetti\\API\\User_Address</title>
<a xlink:href="User.Address.html" xlink:title="User_Address" target="_parent">
<polygon fill="none" stroke="black" points="317.713,-366 222.287,-366 222.287,-330 317.713,-330 317.713,-366"/>
<text text-anchor="middle" x="270" y="-343.6" font-family="Courier,monospace" font-size="11.00">User_Address</text>
</a>
</g>
<!-- \\Yetti\\API\\User_Address&#45;&gt;\\Yetti\\API\\BaseAbstract -->
<g id="edge60" class="edge"><title>\\Yetti\\API\\User_Address&#45;&gt;\\Yetti\\API\\BaseAbstract</title>
<path fill="none" stroke="black" d="M222.022,-358.868C211.433,-362.782 200.751,-368.024 192,-375 136.962,-418.879 100.142,-495.564 83.3786,-536.465"/>
<polygon fill="none" stroke="black" points="80.1034,-535.229 79.642,-545.814 86.6035,-537.827 80.1034,-535.229"/>
</g>
<!-- \\Yetti\\API\\User_List -->
<g id="node37" class="node"><title>\\Yetti\\API\\User_List</title>
<a xlink:href="User.List.html" xlink:title="User_List" target="_parent">
<polygon fill="none" stroke="black" points="763.911,-690 688.089,-690 688.089,-654 763.911,-654 763.911,-690"/>
<text text-anchor="middle" x="726" y="-667.6" font-family="Courier,monospace" font-size="11.00">User_List</text>
</a>
</g>
<!-- \\Yetti\\API\\User_List&#45;&gt;\\Yetti\\API\\Resource_ListAbstract -->
<g id="edge62" class="edge"><title>\\Yetti\\API\\User_List&#45;&gt;\\Yetti\\API\\Resource_ListAbstract</title>
<path fill="none" stroke="black" d="M688.108,-664.301C674.529,-660.183 659.639,-654.033 648,-645 602.427,-609.629 621.573,-572.371 576,-537 574.227,-535.624 572.378,-534.315 570.471,-533.069"/>
<polygon fill="none" stroke="black" points="572.179,-530.014 561.775,-528.009 568.658,-536.064 572.179,-530.014"/>
</g>
<!-- \\Yetti\\API\\User -->
<g id="node38" class="node"><title>\\Yetti\\API\\User</title>
<a xlink:href="User.html" xlink:title="User" target="_parent">
<polygon fill="none" stroke="black" points="525,-690 471,-690 471,-654 525,-654 525,-690"/>
<text text-anchor="middle" x="498" y="-667.6" font-family="Courier,monospace" font-size="11.00">User</text>
</a>
</g>
<!-- \\Yetti\\API\\User&#45;&gt;\\Yetti\\API\\Resource_BaseAbstract -->
<g id="edge64" class="edge"><title>\\Yetti\\API\\User&#45;&gt;\\Yetti\\API\\Resource_BaseAbstract</title>
<path fill="none" stroke="black" d="M470.907,-669.329C454.032,-666.224 432.886,-659.512 420,-645 322.057,-534.695 445.943,-431.305 348,-321 347.248,-320.153 346.467,-319.332 345.661,-318.537"/>
<polygon fill="none" stroke="black" points="347.725,-315.703 337.778,-312.054 343.279,-321.109 347.725,-315.703"/>
</g>
<!-- \\Yetti\\API\\VAT_List -->
<g id="node39" class="node"><title>\\Yetti\\API\\VAT_List</title>
<a xlink:href="VAT.List.html" xlink:title="VAT_List" target="_parent">
<polygon fill="none" stroke="black" points="532.309,-474 463.691,-474 463.691,-438 532.309,-438 532.309,-474"/>
<text text-anchor="middle" x="498" y="-451.6" font-family="Courier,monospace" font-size="11.00">VAT_List</text>
</a>
</g>
<!-- \\Yetti\\API\\VAT_List&#45;&gt;\\Yetti\\API\\ListAbstract -->
<g id="edge66" class="edge"><title>\\Yetti\\API\\VAT_List&#45;&gt;\\Yetti\\API\\ListAbstract</title>
<path fill="none" stroke="black" d="M463.554,-450.501C448.731,-446.614 431.976,-440.044 420,-429 362.077,-375.587 405.923,-320.413 348,-267 342.142,-261.598 335.141,-257.267 327.782,-253.796"/>
<polygon fill="none" stroke="black" points="328.904,-250.471 318.328,-249.844 326.204,-256.93 328.904,-250.471"/>
</g>
<!-- \\Yetti\\API\\VAT -->
<g id="node40" class="node"><title>\\Yetti\\API\\VAT</title>
<a xlink:href="VAT.html" xlink:title="VAT" target="_parent">
<polygon fill="none" stroke="black" points="297,-204 243,-204 243,-168 297,-168 297,-204"/>
<text text-anchor="middle" x="270" y="-181.6" font-family="Courier,monospace" font-size="11.00">VAT</text>
</a>
</g>
<!-- \\Yetti\\API\\VAT&#45;&gt;\\Yetti\\API\\BaseAbstract -->
<g id="edge68" class="edge"><title>\\Yetti\\API\\VAT&#45;&gt;\\Yetti\\API\\BaseAbstract</title>
<path fill="none" stroke="black" d="M242.671,-189.284C226.13,-192.642 205.452,-199.407 192,-213 100.677,-305.276 79.3859,-470.133 74.4636,-535.841"/>
<polygon fill="none" stroke="black" points="70.9686,-535.649 73.7844,-545.863 77.9526,-536.123 70.9686,-535.649"/>
</g>
<!-- \\Yetti\\API\\Webservice -->
<g id="node41" class="node"><title>\\Yetti\\API\\Webservice</title>
<a xlink:href="Webservice.html" xlink:title="Webservice" target="_parent">
<polygon fill="none" stroke="black" points="767.011,-204 684.989,-204 684.989,-168 767.011,-168 767.011,-204"/>
<text text-anchor="middle" x="726" y="-181.6" font-family="Courier,monospace" font-size="11.00">Webservice</text>
</a>
</g>
</g>
</svg>
