<?xml version="1.0" encoding="UTF-8" standalone="no"?>
<!DOCTYPE svg PUBLIC "-//W3C//DTD SVG 1.1//EN"
 "http://www.w3.org/Graphics/SVG/1.1/DTD/svg11.dtd">
<!-- Generated by graphviz version 2.28.0 (20110509.1545)
 -->
<!-- Title: G Pages: 1 -->
<svg width="796pt" height="494pt"
 viewBox="0.00 0.00 796.00 494.00" xmlns="http://www.w3.org/2000/svg" xmlns:xlink="http://www.w3.org/1999/xlink">
<g id="graph1" class="graph" transform="scale(1 1) rotate(0) translate(4 490)">
<title>G</title>
<polygon fill="white" stroke="white" points="-4,5 -4,-490 793,-490 793,5 -4,5"/>
<g id="graph2" class="cluster"><title>cluster_Yetti</title>
<polyline fill="none" stroke="gray" points="20,-44 768,-44 "/>
<path fill="none" stroke="gray" d="M768,-44C774,-44 780,-50 780,-56"/>
<polyline fill="none" stroke="gray" points="780,-56 780,-466 "/>
<path fill="none" stroke="gray" d="M780,-466C780,-472 774,-478 768,-478"/>
<polyline fill="none" stroke="gray" points="768,-478 20,-478 "/>
<path fill="none" stroke="gray" d="M20,-478C14,-478 8,-472 8,-466"/>
<polyline fill="none" stroke="gray" points="8,-466 8,-56 "/>
<path fill="none" stroke="gray" d="M8,-56C8,-50 14,-44 20,-44"/>
<text text-anchor="middle" x="394" y="-463" font-family="Times,serif" font-size="11.00" fill="gray">Yetti</text>
</g>
<g id="graph3" class="cluster"><title>cluster_Yetti\API</title>
<polyline fill="none" stroke="gray" points="28,-52 760,-52 "/>
<path fill="none" stroke="gray" d="M760,-52C766,-52 772,-58 772,-64"/>
<polyline fill="none" stroke="gray" points="772,-64 772,-437 "/>
<path fill="none" stroke="gray" d="M772,-437C772,-443 766,-449 760,-449"/>
<polyline fill="none" stroke="gray" points="760,-449 28,-449 "/>
<path fill="none" stroke="gray" d="M28,-449C22,-449 16,-443 16,-437"/>
<polyline fill="none" stroke="gray" points="16,-437 16,-64 "/>
<path fill="none" stroke="gray" d="M16,-64C16,-58 22,-52 28,-52"/>
<text text-anchor="middle" x="394" y="-434" font-family="Times,serif" font-size="11.00" fill="gray">API</text>
</g>
<!-- \\Yetti\\API\\BaseAbstract -->
<g id="node3" class="node"><title>\\Yetti\\API\\BaseAbstract</title>
<a xlink:href="BaseAbstract.inc.html" xlink:title="BaseAbstract" target="_parent">
<polygon fill="none" stroke="black" points="119.713,-285 24.2869,-285 24.2869,-249 119.713,-249 119.713,-285"/>
<text text-anchor="middle" x="72" y="-262.6" font-family="Courier,monospace" font-size="11.00">BaseAbstract</text>
</a>
</g>
<!-- \\Yetti\\API\\Collection_List -->
<g id="node4" class="node"><title>\\Yetti\\API\\Collection_List</title>
<a xlink:href="Collection.List.inc.html" xlink:title="Collection_List" target="_parent">
<polygon fill="none" stroke="black" points="763.516,-366 648.484,-366 648.484,-330 763.516,-330 763.516,-366"/>
<text text-anchor="middle" x="706" y="-343.6" font-family="Courier,monospace" font-size="11.00">Collection_List</text>
</a>
</g>
<!-- \\Yetti\\API\\Resource_ListAbstract -->
<g id="node17" class="node"><title>\\Yetti\\API\\Resource_ListAbstract</title>
<a xlink:href="Resource.ListAbstract.inc.html" xlink:title="Resource_ListAbstract" target="_parent">
<polygon fill="none" stroke="black" points="575.123,-258 420.877,-258 420.877,-222 575.123,-222 575.123,-258"/>
<text text-anchor="middle" x="498" y="-235.6" font-family="Courier,monospace" font-size="11.00">Resource_ListAbstract</text>
</a>
</g>
<!-- \\Yetti\\API\\Collection_List&#45;&gt;\\Yetti\\API\\Resource_ListAbstract -->
<g id="edge4" class="edge"><title>\\Yetti\\API\\Collection_List&#45;&gt;\\Yetti\\API\\Resource_ListAbstract</title>
<path fill="none" stroke="black" d="M664.299,-329.958C658.728,-327.132 653.156,-324.112 648,-321 613.752,-300.334 611.286,-285.838 576,-267 572.907,-265.349 569.692,-263.764 566.409,-262.25"/>
<polygon fill="none" stroke="black" points="567.581,-258.943 557.014,-258.166 564.79,-265.362 567.581,-258.943"/>
</g>
<!-- \\Yetti\\API\\Collection -->
<g id="node5" class="node"><title>\\Yetti\\API\\Collection</title>
<a xlink:href="Collection.inc.html" xlink:title="Collection" target="_parent">
<polygon fill="none" stroke="black" points="539.011,-366 456.989,-366 456.989,-330 539.011,-330 539.011,-366"/>
<text text-anchor="middle" x="498" y="-343.6" font-family="Courier,monospace" font-size="11.00">Collection</text>
</a>
</g>
<!-- \\Yetti\\API\\Resource_BaseAbstract -->
<g id="node16" class="node"><title>\\Yetti\\API\\Resource_BaseAbstract</title>
<a xlink:href="Resource.BaseAbstract.inc.html" xlink:title="Resource_BaseAbstract" target="_parent">
<polygon fill="none" stroke="black" points="347.123,-204 192.877,-204 192.877,-168 347.123,-168 347.123,-204"/>
<text text-anchor="middle" x="270" y="-181.6" font-family="Courier,monospace" font-size="11.00">Resource_BaseAbstract</text>
</a>
</g>
<!-- \\Yetti\\API\\Collection&#45;&gt;\\Yetti\\API\\Resource_BaseAbstract -->
<g id="edge6" class="edge"><title>\\Yetti\\API\\Collection&#45;&gt;\\Yetti\\API\\Resource_BaseAbstract</title>
<path fill="none" stroke="black" d="M456.953,-339.314C444.257,-335.22 430.743,-329.338 420,-321 374.427,-285.629 393.573,-248.371 348,-213 346.227,-211.624 344.378,-210.315 342.471,-209.069"/>
<polygon fill="none" stroke="black" points="344.179,-206.014 333.775,-204.009 340.658,-212.064 344.179,-206.014"/>
</g>
<!-- \\Yetti\\API\\Exception_Auth -->
<g id="node6" class="node"><title>\\Yetti\\API\\Exception_Auth</title>
<a xlink:href="Exception.Auth.inc.html" xlink:title="Exception_Auth" target="_parent">
<polygon fill="none" stroke="black" points="760.416,-150 651.584,-150 651.584,-114 760.416,-114 760.416,-150"/>
<text text-anchor="middle" x="706" y="-127.6" font-family="Courier,monospace" font-size="11.00">Exception_Auth</text>
</a>
</g>
<!-- \\Yetti\\API\\Exception -->
<g id="node7" class="node"><title>\\Yetti\\API\\Exception</title>
<a xlink:href="Exception.inc.html" xlink:title="Exception" target="_parent">
<polygon fill="none" stroke="black" points="535.911,-96 460.089,-96 460.089,-60 535.911,-60 535.911,-96"/>
<text text-anchor="middle" x="498" y="-73.6" font-family="Courier,monospace" font-size="11.00">Exception</text>
</a>
</g>
<!-- \\Yetti\\API\\Exception_Auth&#45;&gt;\\Yetti\\API\\Exception -->
<g id="edge8" class="edge"><title>\\Yetti\\API\\Exception_Auth&#45;&gt;\\Yetti\\API\\Exception</title>
<path fill="none" stroke="black" d="M651.682,-118.023C618.873,-109.423 577.22,-98.5042 545.711,-90.2445"/>
<polygon fill="none" stroke="black" points="546.421,-86.8127 535.861,-87.6625 544.646,-93.5839 546.421,-86.8127"/>
</g>
<!-- \\Exception -->
<g id="node27" class="node"><title>\\Exception</title>
<ellipse fill="none" stroke="black" cx="270" cy="-18" rx="52.7417" ry="18"/>
<text text-anchor="middle" x="270" y="-12.4" font-family="Times,serif" font-size="14.00" fill="gray">\Exception</text>
</g>
<!-- \\Yetti\\API\\Exception&#45;&gt;\\Exception -->
<g id="edge10" class="edge"><title>\\Yetti\\API\\Exception&#45;&gt;\\Exception</title>
<path fill="none" stroke="black" d="M460.186,-68.2264C422.669,-58.266 364.179,-42.7377 322.166,-31.5838"/>
<polygon fill="none" stroke="black" points="322.962,-28.174 312.398,-28.9907 321.166,-34.9396 322.962,-28.174"/>
</g>
<!-- \\Yetti\\API\\Item_Collections -->
<g id="node8" class="node"><title>\\Yetti\\API\\Item_Collections</title>
<a xlink:href="Item.Collections.inc.html" xlink:title="Item_Collections" target="_parent">
<polygon fill="none" stroke="black" points="330.618,-420 209.382,-420 209.382,-384 330.618,-384 330.618,-420"/>
<text text-anchor="middle" x="270" y="-397.6" font-family="Courier,monospace" font-size="11.00">Item_Collections</text>
</a>
</g>
<!-- \\Yetti\\API\\Item_Collections&#45;&gt;\\Yetti\\API\\BaseAbstract -->
<g id="edge12" class="edge"><title>\\Yetti\\API\\Item_Collections&#45;&gt;\\Yetti\\API\\BaseAbstract</title>
<path fill="none" stroke="black" d="M209.464,-383.857C203.408,-381.211 197.477,-378.262 192,-375 154.147,-352.458 117.715,-316.633 95.3524,-292.489"/>
<polygon fill="none" stroke="black" points="97.9284,-290.119 88.6024,-285.092 92.7577,-294.838 97.9284,-290.119"/>
</g>
<!-- \\Yetti\\API\\Item_List -->
<g id="node9" class="node"><title>\\Yetti\\API\\Item_List</title>
<a xlink:href="Item.List.inc.html" xlink:title="Item_List" target="_parent">
<polygon fill="none" stroke="black" points="743.911,-312 668.089,-312 668.089,-276 743.911,-276 743.911,-312"/>
<text text-anchor="middle" x="706" y="-289.6" font-family="Courier,monospace" font-size="11.00">Item_List</text>
</a>
</g>
<!-- \\Yetti\\API\\Item_List&#45;&gt;\\Yetti\\API\\Resource_ListAbstract -->
<g id="edge14" class="edge"><title>\\Yetti\\API\\Item_List&#45;&gt;\\Yetti\\API\\Resource_ListAbstract</title>
<path fill="none" stroke="black" d="M668.171,-284.346C643.109,-277.776 608.982,-268.83 577.943,-260.694"/>
<polygon fill="none" stroke="black" points="578.55,-257.235 567.989,-258.084 576.775,-264.006 578.55,-257.235"/>
</g>
<!-- \\Yetti\\API\\Item -->
<g id="node10" class="node"><title>\\Yetti\\API\\Item</title>
<a xlink:href="Item.inc.html" xlink:title="Item" target="_parent">
<polygon fill="none" stroke="black" points="525,-312 471,-312 471,-276 525,-276 525,-312"/>
<text text-anchor="middle" x="498" y="-289.6" font-family="Courier,monospace" font-size="11.00">Item</text>
</a>
</g>
<!-- \\Yetti\\API\\Item&#45;&gt;\\Yetti\\API\\Resource_BaseAbstract -->
<g id="edge16" class="edge"><title>\\Yetti\\API\\Item&#45;&gt;\\Yetti\\API\\Resource_BaseAbstract</title>
<path fill="none" stroke="black" d="M470.854,-287.013C455.547,-282.395 436.121,-275.606 420,-267 384.714,-248.162 383.286,-231.838 348,-213 344.907,-211.349 341.692,-209.764 338.409,-208.25"/>
<polygon fill="none" stroke="black" points="339.581,-204.943 329.014,-204.166 336.79,-211.362 339.581,-204.943"/>
</g>
<!-- \\Yetti\\API\\Language_List -->
<g id="node11" class="node"><title>\\Yetti\\API\\Language_List</title>
<a xlink:href="Language.List.inc.html" xlink:title="Language_List" target="_parent">
<polygon fill="none" stroke="black" points="548.814,-204 447.186,-204 447.186,-168 548.814,-168 548.814,-204"/>
<text text-anchor="middle" x="498" y="-181.6" font-family="Courier,monospace" font-size="11.00">Language_List</text>
</a>
</g>
<!-- \\Yetti\\API\\ListAbstract -->
<g id="node13" class="node"><title>\\Yetti\\API\\ListAbstract</title>
<a xlink:href="ListAbstract.inc.html" xlink:title="ListAbstract" target="_parent">
<polygon fill="none" stroke="black" points="317.713,-150 222.287,-150 222.287,-114 317.713,-114 317.713,-150"/>
<text text-anchor="middle" x="270" y="-127.6" font-family="Courier,monospace" font-size="11.00">ListAbstract</text>
</a>
</g>
<!-- \\Yetti\\API\\Language_List&#45;&gt;\\Yetti\\API\\ListAbstract -->
<g id="edge18" class="edge"><title>\\Yetti\\API\\Language_List&#45;&gt;\\Yetti\\API\\ListAbstract</title>
<path fill="none" stroke="black" d="M447.124,-174.083C411.834,-165.651 364.452,-154.329 327.722,-145.553"/>
<polygon fill="none" stroke="black" points="328.204,-142.07 317.664,-143.15 326.577,-148.878 328.204,-142.07"/>
</g>
<!-- \\Yetti\\API\\Language -->
<g id="node12" class="node"><title>\\Yetti\\API\\Language</title>
<a xlink:href="Language.inc.html" xlink:title="Language" target="_parent">
<polygon fill="none" stroke="black" points="304.309,-366 235.691,-366 235.691,-330 304.309,-330 304.309,-366"/>
<text text-anchor="middle" x="270" y="-343.6" font-family="Courier,monospace" font-size="11.00">Language</text>
</a>
</g>
<!-- \\Yetti\\API\\Language&#45;&gt;\\Yetti\\API\\BaseAbstract -->
<g id="edge20" class="edge"><title>\\Yetti\\API\\Language&#45;&gt;\\Yetti\\API\\BaseAbstract</title>
<path fill="none" stroke="black" d="M235.407,-336.945C221.827,-332.288 206.067,-326.645 192,-321 167.881,-311.321 141.521,-299.492 119.754,-289.376"/>
<polygon fill="none" stroke="black" points="120.956,-286.074 110.415,-285.009 117.991,-292.415 120.956,-286.074"/>
</g>
<!-- \\Yetti\\API\\ListAbstract&#45;&gt;\\Yetti\\API\\BaseAbstract -->
<g id="edge22" class="edge"><title>\\Yetti\\API\\ListAbstract&#45;&gt;\\Yetti\\API\\BaseAbstract</title>
<path fill="none" stroke="black" d="M222.049,-145.104C211.794,-148.874 201.25,-153.491 192,-159 154.147,-181.542 117.715,-217.367 95.3524,-241.511"/>
<polygon fill="none" stroke="black" points="92.7577,-239.162 88.6024,-248.908 97.9284,-243.881 92.7577,-239.162"/>
</g>
<!-- \\Yetti\\API\\Resource_Asset_Group -->
<g id="node14" class="node"><title>\\Yetti\\API\\Resource_Asset_Group</title>
<a xlink:href="Resource.Asset.Group.inc.html" xlink:title="Resource_Asset_Group" target="_parent">
<polygon fill="none" stroke="black" points="572.021,-150 423.979,-150 423.979,-114 572.021,-114 572.021,-150"/>
<text text-anchor="middle" x="498" y="-127.6" font-family="Courier,monospace" font-size="11.00">Resource_Asset_Group</text>
</a>
</g>
<!-- \\Yetti\\API\\Resource_Asset_Group&#45;&gt;\\Yetti\\API\\ListAbstract -->
<g id="edge24" class="edge"><title>\\Yetti\\API\\Resource_Asset_Group&#45;&gt;\\Yetti\\API\\ListAbstract</title>
<path fill="none" stroke="black" d="M423.936,-132C392.789,-132 356.995,-132 327.87,-132"/>
<polygon fill="none" stroke="black" points="327.865,-128.5 317.865,-132 327.865,-135.5 327.865,-128.5"/>
</g>
<!-- \\Yetti\\API\\Resource_Asset -->
<g id="node15" class="node"><title>\\Yetti\\API\\Resource_Asset</title>
<a xlink:href="Resource.Asset.inc.html" xlink:title="Resource_Asset" target="_parent">
<polygon fill="none" stroke="black" points="324.416,-312 215.584,-312 215.584,-276 324.416,-276 324.416,-312"/>
<text text-anchor="middle" x="270" y="-289.6" font-family="Courier,monospace" font-size="11.00">Resource_Asset</text>
</a>
</g>
<!-- \\Yetti\\API\\Resource_Asset&#45;&gt;\\Yetti\\API\\BaseAbstract -->
<g id="edge26" class="edge"><title>\\Yetti\\API\\Resource_Asset&#45;&gt;\\Yetti\\API\\BaseAbstract</title>
<path fill="none" stroke="black" d="M215.701,-286.658C189.064,-282.988 156.82,-278.547 129.725,-274.814"/>
<polygon fill="none" stroke="black" points="130,-271.319 119.616,-273.422 129.045,-278.254 130,-271.319"/>
</g>
<!-- \\Yetti\\API\\Resource_BaseAbstract&#45;&gt;\\Yetti\\API\\BaseAbstract -->
<g id="edge28" class="edge"><title>\\Yetti\\API\\Resource_BaseAbstract&#45;&gt;\\Yetti\\API\\BaseAbstract</title>
<path fill="none" stroke="black" d="M215.337,-204.129C207.468,-206.986 199.494,-209.993 192,-213 167.881,-222.679 141.521,-234.508 119.754,-244.624"/>
<polygon fill="none" stroke="black" points="117.991,-241.585 110.415,-248.991 120.956,-247.926 117.991,-241.585"/>
</g>
<!-- \\Yetti\\API\\Resource_ListAbstract&#45;&gt;\\Yetti\\API\\ListAbstract -->
<g id="edge30" class="edge"><title>\\Yetti\\API\\Resource_ListAbstract&#45;&gt;\\Yetti\\API\\ListAbstract</title>
<path fill="none" stroke="black" d="M438.986,-221.834C432.454,-219.153 425.998,-216.202 420,-213 384.714,-194.162 383.286,-177.838 348,-159 341.556,-155.56 334.585,-152.41 327.559,-149.574"/>
<polygon fill="none" stroke="black" points="328.58,-146.217 317.99,-145.902 326.072,-152.752 328.58,-146.217"/>
</g>
<!-- \\Yetti\\API\\Resource_Property -->
<g id="node18" class="node"><title>\\Yetti\\API\\Resource_Property</title>
<a xlink:href="Resource.Property.inc.html" xlink:title="Resource_Property" target="_parent">
<polygon fill="none" stroke="black" points="334.218,-258 205.782,-258 205.782,-222 334.218,-222 334.218,-258"/>
<text text-anchor="middle" x="270" y="-235.6" font-family="Courier,monospace" font-size="11.00">Resource_Property</text>
</a>
</g>
<!-- \\Yetti\\API\\Resource_Property&#45;&gt;\\Yetti\\API\\BaseAbstract -->
<g id="edge32" class="edge"><title>\\Yetti\\API\\Resource_Property&#45;&gt;\\Yetti\\API\\BaseAbstract</title>
<path fill="none" stroke="black" d="M205.635,-248.729C181.169,-252.099 153.398,-255.925 129.612,-259.201"/>
<polygon fill="none" stroke="black" points="129.112,-255.737 119.683,-260.569 130.067,-262.672 129.112,-255.737"/>
</g>
<!-- \\Yetti\\API\\Result -->
<g id="node19" class="node"><title>\\Yetti\\API\\Result</title>
<a xlink:href="Result.inc.html" xlink:title="Result" target="_parent">
<polygon fill="none" stroke="black" points="733.608,-204 678.392,-204 678.392,-168 733.608,-168 733.608,-204"/>
<text text-anchor="middle" x="706" y="-181.6" font-family="Courier,monospace" font-size="11.00">Result</text>
</a>
</g>
<!-- \\Yetti\\API\\User_List -->
<g id="node20" class="node"><title>\\Yetti\\API\\User_List</title>
<a xlink:href="User.List.inc.html" xlink:title="User_List" target="_parent">
<polygon fill="none" stroke="black" points="743.911,-258 668.089,-258 668.089,-222 743.911,-222 743.911,-258"/>
<text text-anchor="middle" x="706" y="-235.6" font-family="Courier,monospace" font-size="11.00">User_List</text>
</a>
</g>
<!-- \\Yetti\\API\\User_List&#45;&gt;\\Yetti\\API\\Resource_ListAbstract -->
<g id="edge34" class="edge"><title>\\Yetti\\API\\User_List&#45;&gt;\\Yetti\\API\\Resource_ListAbstract</title>
<path fill="none" stroke="black" d="M668.171,-240C645.086,-240 614.309,-240 585.339,-240"/>
<polygon fill="none" stroke="black" points="585.183,-236.5 575.183,-240 585.183,-243.5 585.183,-236.5"/>
</g>
<!-- \\Yetti\\API\\User -->
<g id="node21" class="node"><title>\\Yetti\\API\\User</title>
<a xlink:href="User.inc.html" xlink:title="User" target="_parent">
<polygon fill="none" stroke="black" points="525,-420 471,-420 471,-384 525,-384 525,-420"/>
<text text-anchor="middle" x="498" y="-397.6" font-family="Courier,monospace" font-size="11.00">User</text>
</a>
</g>
<!-- \\Yetti\\API\\User&#45;&gt;\\Yetti\\API\\Resource_BaseAbstract -->
<g id="edge36" class="edge"><title>\\Yetti\\API\\User&#45;&gt;\\Yetti\\API\\Resource_BaseAbstract</title>
<path fill="none" stroke="black" d="M470.713,-398.216C454.398,-394.663 433.955,-387.868 420,-375 362.077,-321.587 405.923,-266.413 348,-213 346.861,-211.95 345.679,-210.94 344.459,-209.969"/>
<polygon fill="none" stroke="black" points="346.151,-206.885 335.926,-204.109 342.188,-212.655 346.151,-206.885"/>
</g>
<!-- \\Yetti\\API\\Webservice -->
<g id="node22" class="node"><title>\\Yetti\\API\\Webservice</title>
<a xlink:href="Webservice.inc.html" xlink:title="Webservice" target="_parent">
<polygon fill="none" stroke="black" points="747.011,-96 664.989,-96 664.989,-60 747.011,-60 747.011,-96"/>
<text text-anchor="middle" x="706" y="-73.6" font-family="Courier,monospace" font-size="11.00">Webservice</text>
</a>
</g>
</g>
</svg>
