<?xml version="1.0" encoding="UTF-8" standalone="no"?>
<!DOCTYPE svg PUBLIC "-//W3C//DTD SVG 1.1//EN"
 "http://www.w3.org/Graphics/SVG/1.1/DTD/svg11.dtd">
<!-- Generated by graphviz version 2.28.0 (20110509.1545)
 -->
<!-- Title: G Pages: 1 -->
<svg width="836pt" height="926pt"
 viewBox="0.00 0.00 836.00 926.00" xmlns="http://www.w3.org/2000/svg" xmlns:xlink="http://www.w3.org/1999/xlink">
<g id="graph1" class="graph" transform="scale(1 1) rotate(0) translate(4 922)">
<title>G</title>
<polygon fill="white" stroke="white" points="-4,5 -4,-922 833,-922 833,5 -4,5"/>
<g id="graph2" class="cluster"><title>cluster_Yetti</title>
<polyline fill="none" stroke="gray" points="20,-152 808,-152 "/>
<path fill="none" stroke="gray" d="M808,-152C814,-152 820,-158 820,-164"/>
<polyline fill="none" stroke="gray" points="820,-164 820,-898 "/>
<path fill="none" stroke="gray" d="M820,-898C820,-904 814,-910 808,-910"/>
<polyline fill="none" stroke="gray" points="808,-910 20,-910 "/>
<path fill="none" stroke="gray" d="M20,-910C14,-910 8,-904 8,-898"/>
<polyline fill="none" stroke="gray" points="8,-898 8,-164 "/>
<path fill="none" stroke="gray" d="M8,-164C8,-158 14,-152 20,-152"/>
<text text-anchor="middle" x="414" y="-895" font-family="Times,serif" font-size="11.00" fill="gray">Yetti</text>
</g>
<g id="graph3" class="cluster"><title>cluster_Yetti\API</title>
<polyline fill="none" stroke="gray" points="28,-160 800,-160 "/>
<path fill="none" stroke="gray" d="M800,-160C806,-160 812,-166 812,-172"/>
<polyline fill="none" stroke="gray" points="812,-172 812,-869 "/>
<path fill="none" stroke="gray" d="M812,-869C812,-875 806,-881 800,-881"/>
<polyline fill="none" stroke="gray" points="800,-881 28,-881 "/>
<path fill="none" stroke="gray" d="M28,-881C22,-881 16,-875 16,-869"/>
<polyline fill="none" stroke="gray" points="16,-869 16,-172 "/>
<path fill="none" stroke="gray" d="M16,-172C16,-166 22,-160 28,-160"/>
<text text-anchor="middle" x="414" y="-866" font-family="Times,serif" font-size="11.00" fill="gray">API</text>
</g>
<!-- \\Yetti\\API\\Auth_Details -->
<g id="node3" class="node"><title>\\Yetti\\API\\Auth_Details</title>
<a xlink:href="Auth.Details.html" xlink:title="Auth_Details" target="_parent">
<polygon fill="none" stroke="black" points="317.713,-852 222.287,-852 222.287,-816 317.713,-816 317.713,-852"/>
<text text-anchor="middle" x="270" y="-829.6" font-family="Courier,monospace" font-size="11.00">Auth_Details</text>
</a>
</g>
<!-- \\Yetti\\API\\BaseAbstract -->
<g id="node5" class="node"><title>\\Yetti\\API\\BaseAbstract</title>
<a xlink:href="BaseAbstract.html" xlink:title="«abstract»&lt;br/&gt;BaseAbstract" target="_parent">
<polygon fill="none" stroke="black" points="120,-528 24,-528 24,-492 120,-492 120,-528"/>
<text text-anchor="start" x="39" y="-511.5" font-family="Courier,monospace" font-size="11.00">«abstract»</text>
<text text-anchor="start" x="32.5" y="-500.5" font-family="Courier,monospace" font-size="11.00">BaseAbstract</text>
</a>
</g>
<!-- \\Yetti\\API\\Auth_Details&#45;&gt;\\Yetti\\API\\BaseAbstract -->
<g id="edge4" class="edge"><title>\\Yetti\\API\\Auth_Details&#45;&gt;\\Yetti\\API\\BaseAbstract</title>
<path fill="none" stroke="black" d="M222.27,-824.668C211.308,-820.689 200.392,-815.032 192,-807 113.044,-731.431 85.1612,-596.584 76.4842,-538.217"/>
<polygon fill="none" stroke="black" points="79.9396,-537.654 75.0795,-528.24 73.0079,-538.63 79.9396,-537.654"/>
</g>
<!-- \\Yetti\\API\\Autoloader -->
<g id="node4" class="node"><title>\\Yetti\\API\\Autoloader</title>
<a xlink:href="Autoloader.html" xlink:title="Autoloader" target="_parent">
<polygon fill="none" stroke="black" points="767.011,-771 684.989,-771 684.989,-735 767.011,-735 767.011,-771"/>
<text text-anchor="middle" x="726" y="-748.6" font-family="Courier,monospace" font-size="11.00">Autoloader</text>
</a>
</g>
<!-- \\Yetti\\API\\Collection_List -->
<g id="node6" class="node"><title>\\Yetti\\API\\Collection_List</title>
<a xlink:href="Collection.List.html" xlink:title="Collection_List" target="_parent">
<polygon fill="none" stroke="black" points="783.516,-528 668.484,-528 668.484,-492 783.516,-492 783.516,-528"/>
<text text-anchor="middle" x="726" y="-505.6" font-family="Courier,monospace" font-size="11.00">Collection_List</text>
</a>
</g>
<!-- \\Yetti\\API\\Resource_ListAbstract -->
<g id="node30" class="node"><title>\\Yetti\\API\\Resource_ListAbstract</title>
<a xlink:href="Resource.ListAbstract.html" xlink:title="«abstract»&lt;br/&gt;Resource_ListAbstract" target="_parent">
<polygon fill="none" stroke="black" points="575.5,-474 420.5,-474 420.5,-438 575.5,-438 575.5,-474"/>
<text text-anchor="start" x="465" y="-457.5" font-family="Courier,monospace" font-size="11.00">«abstract»</text>
<text text-anchor="start" x="429" y="-446.5" font-family="Courier,monospace" font-size="11.00">Resource_ListAbstract</text>
</a>
</g>
<!-- \\Yetti\\API\\Collection_List&#45;&gt;\\Yetti\\API\\Resource_ListAbstract -->
<g id="edge6" class="edge"><title>\\Yetti\\API\\Collection_List&#45;&gt;\\Yetti\\API\\Resource_ListAbstract</title>
<path fill="none" stroke="black" d="M668.262,-496.443C642.881,-490.379 612.416,-483.099 584.37,-476.398"/>
<polygon fill="none" stroke="black" points="585.103,-472.975 574.563,-474.055 583.476,-479.783 585.103,-472.975"/>
</g>
<!-- \\Yetti\\API\\Collection -->
<g id="node7" class="node"><title>\\Yetti\\API\\Collection</title>
<a xlink:href="Collection.html" xlink:title="Collection" target="_parent">
<polygon fill="none" stroke="black" points="539.011,-636 456.989,-636 456.989,-600 539.011,-600 539.011,-636"/>
<text text-anchor="middle" x="498" y="-613.6" font-family="Courier,monospace" font-size="11.00">Collection</text>
</a>
</g>
<!-- \\Yetti\\API\\Resource_BaseAbstract -->
<g id="node29" class="node"><title>\\Yetti\\API\\Resource_BaseAbstract</title>
<a xlink:href="Resource.BaseAbstract.html" xlink:title="«abstract»&lt;br/&gt;Resource_BaseAbstract" target="_parent">
<polygon fill="none" stroke="black" points="347.5,-312 192.5,-312 192.5,-276 347.5,-276 347.5,-312"/>
<text text-anchor="start" x="237" y="-295.5" font-family="Courier,monospace" font-size="11.00">«abstract»</text>
<text text-anchor="start" x="201" y="-284.5" font-family="Courier,monospace" font-size="11.00">Resource_BaseAbstract</text>
</a>
</g>
<!-- \\Yetti\\API\\Collection&#45;&gt;\\Yetti\\API\\Resource_BaseAbstract -->
<g id="edge8" class="edge"><title>\\Yetti\\API\\Collection&#45;&gt;\\Yetti\\API\\Resource_BaseAbstract</title>
<path fill="none" stroke="black" d="M456.792,-611.719C443.481,-607.787 429.626,-601.393 420,-591 335.611,-499.882 432.389,-412.118 348,-321 347.23,-320.169 346.433,-319.363 345.611,-318.582"/>
<polygon fill="none" stroke="black" points="347.616,-315.703 337.616,-312.201 343.249,-321.174 347.616,-315.703"/>
</g>
<!-- \\Yetti\\API\\Exception_Auth -->
<g id="node8" class="node"><title>\\Yetti\\API\\Exception_Auth</title>
<a xlink:href="Exception.Auth.html" xlink:title="Exception_Auth" target="_parent">
<polygon fill="none" stroke="black" points="780.416,-366 671.584,-366 671.584,-330 780.416,-330 780.416,-366"/>
<text text-anchor="middle" x="726" y="-343.6" font-family="Courier,monospace" font-size="11.00">Exception_Auth</text>
</a>
</g>
<!-- \\Yetti\\API\\Exception -->
<g id="node9" class="node"><title>\\Yetti\\API\\Exception</title>
<a xlink:href="Exception.html" xlink:title="Exception" target="_parent">
<polygon fill="none" stroke="black" points="535.911,-204 460.089,-204 460.089,-168 535.911,-168 535.911,-204"/>
<text text-anchor="middle" x="498" y="-181.6" font-family="Courier,monospace" font-size="11.00">Exception</text>
</a>
</g>
<!-- \\Yetti\\API\\Exception_Auth&#45;&gt;\\Yetti\\API\\Exception -->
<g id="edge10" class="edge"><title>\\Yetti\\API\\Exception_Auth&#45;&gt;\\Yetti\\API\\Exception</title>
<path fill="none" stroke="black" d="M671.716,-334.431C663.294,-330.886 655.05,-326.472 648,-321 602.427,-285.629 621.573,-248.371 576,-213 567.089,-206.084 556.272,-200.858 545.597,-196.94"/>
<polygon fill="none" stroke="black" points="546.486,-193.547 535.892,-193.699 544.268,-200.186 546.486,-193.547"/>
</g>
<!-- \\Exception -->
<g id="node43" class="node"><title>\\Exception</title>
<ellipse fill="none" stroke="black" cx="270" cy="-126" rx="52.7417" ry="18"/>
<text text-anchor="middle" x="270" y="-120.4" font-family="Times,serif" font-size="14.00" fill="gray">\Exception</text>
</g>
<!-- \\Yetti\\API\\Exception&#45;&gt;\\Exception -->
<g id="edge12" class="edge"><title>\\Yetti\\API\\Exception&#45;&gt;\\Exception</title>
<path fill="none" stroke="black" d="M460.186,-176.226C422.669,-166.266 364.179,-150.738 322.166,-139.584"/>
<polygon fill="none" stroke="black" points="322.962,-136.174 312.398,-136.991 321.166,-142.94 322.962,-136.174"/>
</g>
<!-- \\Yetti\\API\\Item_Collections -->
<g id="node10" class="node"><title>\\Yetti\\API\\Item_Collections</title>
<a xlink:href="Item.Collections.html" xlink:title="Item_Collections" target="_parent">
<polygon fill="none" stroke="black" points="330.618,-798 209.382,-798 209.382,-762 330.618,-762 330.618,-798"/>
<text text-anchor="middle" x="270" y="-775.6" font-family="Courier,monospace" font-size="11.00">Item_Collections</text>
</a>
</g>
<!-- \\Yetti\\API\\Item_Collections&#45;&gt;\\Yetti\\API\\BaseAbstract -->
<g id="edge14" class="edge"><title>\\Yetti\\API\\Item_Collections&#45;&gt;\\Yetti\\API\\BaseAbstract</title>
<path fill="none" stroke="black" d="M209.174,-764.435C202.968,-761.288 197.084,-757.516 192,-753 125.115,-693.584 91.8859,-588.08 79.2547,-537.948"/>
<polygon fill="none" stroke="black" points="82.6305,-537.018 76.8672,-528.128 75.8286,-538.671 82.6305,-537.018"/>
</g>
<!-- \\Yetti\\API\\Item_Combination_List -->
<g id="node11" class="node"><title>\\Yetti\\API\\Item_Combination_List</title>
<a xlink:href="Item.Combination.List.html" xlink:title="Item_Combination_List" target="_parent">
<polygon fill="none" stroke="black" points="803.123,-474 648.877,-474 648.877,-438 803.123,-438 803.123,-474"/>
<text text-anchor="middle" x="726" y="-451.6" font-family="Courier,monospace" font-size="11.00">Item_Combination_List</text>
</a>
</g>
<!-- \\Yetti\\API\\Item_Combination_List&#45;&gt;\\Yetti\\API\\Resource_ListAbstract -->
<g id="edge16" class="edge"><title>\\Yetti\\API\\Item_Combination_List&#45;&gt;\\Yetti\\API\\Resource_ListAbstract</title>
<path fill="none" stroke="black" d="M648.802,-456C628.539,-456 606.504,-456 585.724,-456"/>
<polygon fill="none" stroke="black" points="585.636,-452.5 575.636,-456 585.636,-459.5 585.636,-452.5"/>
</g>
<!-- \\Yetti\\API\\Item_Combination -->
<g id="node12" class="node"><title>\\Yetti\\API\\Item_Combination</title>
<a xlink:href="Item.Combination.html" xlink:title="Item_Combination" target="_parent">
<polygon fill="none" stroke="black" points="330.618,-744 209.382,-744 209.382,-708 330.618,-708 330.618,-744"/>
<text text-anchor="middle" x="270" y="-721.6" font-family="Courier,monospace" font-size="11.00">Item_Combination</text>
</a>
</g>
<!-- \\Yetti\\API\\Item_Combination&#45;&gt;\\Yetti\\API\\BaseAbstract -->
<g id="edge18" class="edge"><title>\\Yetti\\API\\Item_Combination&#45;&gt;\\Yetti\\API\\BaseAbstract</title>
<path fill="none" stroke="black" d="M209.243,-709.695C203.096,-706.687 197.206,-703.151 192,-699 136.962,-655.121 100.142,-578.436 83.3786,-537.535"/>
<polygon fill="none" stroke="black" points="86.6035,-536.173 79.642,-528.186 80.1034,-538.771 86.6035,-536.173"/>
</g>
<!-- \\Yetti\\API\\Item_Filter_List -->
<g id="node13" class="node"><title>\\Yetti\\API\\Item_Filter_List</title>
<a xlink:href="Item.Filter.List.html" xlink:title="Item_Filter_List" target="_parent">
<polygon fill="none" stroke="black" points="558.618,-366 437.382,-366 437.382,-330 558.618,-330 558.618,-366"/>
<text text-anchor="middle" x="498" y="-343.6" font-family="Courier,monospace" font-size="11.00">Item_Filter_List</text>
</a>
</g>
<!-- \\Yetti\\API\\ListAbstract -->
<g id="node24" class="node"><title>\\Yetti\\API\\ListAbstract</title>
<a xlink:href="ListAbstract.html" xlink:title="«abstract»&lt;br/&gt;ListAbstract" target="_parent">
<polygon fill="none" stroke="black" points="318,-258 222,-258 222,-222 318,-222 318,-258"/>
<text text-anchor="start" x="237" y="-241.5" font-family="Courier,monospace" font-size="11.00">«abstract»</text>
<text text-anchor="start" x="230.5" y="-230.5" font-family="Courier,monospace" font-size="11.00">ListAbstract</text>
</a>
</g>
<!-- \\Yetti\\API\\Item_Filter_List&#45;&gt;\\Yetti\\API\\ListAbstract -->
<g id="edge20" class="edge"><title>\\Yetti\\API\\Item_Filter_List&#45;&gt;\\Yetti\\API\\ListAbstract</title>
<path fill="none" stroke="black" d="M438.986,-329.834C432.454,-327.153 425.998,-324.202 420,-321 384.714,-302.162 383.286,-285.838 348,-267 341.642,-263.606 334.771,-260.494 327.84,-257.687"/>
<polygon fill="none" stroke="black" points="328.986,-254.378 318.396,-254.05 326.47,-260.91 328.986,-254.378"/>
</g>
<!-- \\Yetti\\API\\Item_Filter_Type_List -->
<g id="node14" class="node"><title>\\Yetti\\API\\Item_Filter_Type_List</title>
<a xlink:href="Item.Filter.Type.List.html" xlink:title="Item_Filter_Type_List" target="_parent">
<polygon fill="none" stroke="black" points="575.123,-312 420.877,-312 420.877,-276 575.123,-276 575.123,-312"/>
<text text-anchor="middle" x="498" y="-289.6" font-family="Courier,monospace" font-size="11.00">Item_Filter_Type_List</text>
</a>
</g>
<!-- \\Yetti\\API\\Item_Filter_Type_List&#45;&gt;\\Yetti\\API\\ListAbstract -->
<g id="edge22" class="edge"><title>\\Yetti\\API\\Item_Filter_Type_List&#45;&gt;\\Yetti\\API\\ListAbstract</title>
<path fill="none" stroke="black" d="M421.431,-275.944C390.898,-268.648 356.254,-260.371 327.916,-253.599"/>
<polygon fill="none" stroke="black" points="328.711,-250.191 318.172,-251.271 327.085,-256.999 328.711,-250.191"/>
</g>
<!-- \\Yetti\\API\\Item_Filter_Type -->
<g id="node15" class="node"><title>\\Yetti\\API\\Item_Filter_Type</title>
<a xlink:href="Item.Filter.Type.html" xlink:title="Item_Filter_Type" target="_parent">
<polygon fill="none" stroke="black" points="330.618,-690 209.382,-690 209.382,-654 330.618,-654 330.618,-690"/>
<text text-anchor="middle" x="270" y="-667.6" font-family="Courier,monospace" font-size="11.00">Item_Filter_Type</text>
</a>
</g>
<!-- \\Yetti\\API\\Item_Filter_Type&#45;&gt;\\Yetti\\API\\BaseAbstract -->
<g id="edge24" class="edge"><title>\\Yetti\\API\\Item_Filter_Type&#45;&gt;\\Yetti\\API\\BaseAbstract</title>
<path fill="none" stroke="black" d="M209.076,-654.468C203.095,-651.705 197.287,-648.561 192,-645 148.604,-615.769 111.06,-567.01 90.2822,-536.781"/>
<polygon fill="none" stroke="black" points="93.1257,-534.738 84.6298,-528.408 87.3238,-538.655 93.1257,-534.738"/>
</g>
<!-- \\Yetti\\API\\Item_Filter -->
<g id="node16" class="node"><title>\\Yetti\\API\\Item_Filter</title>
<a xlink:href="Item.Filter.html" xlink:title="Item_Filter" target="_parent">
<polygon fill="none" stroke="black" points="314.113,-636 225.887,-636 225.887,-600 314.113,-600 314.113,-636"/>
<text text-anchor="middle" x="270" y="-613.6" font-family="Courier,monospace" font-size="11.00">Item_Filter</text>
</a>
</g>
<!-- \\Yetti\\API\\Item_Filter&#45;&gt;\\Yetti\\API\\BaseAbstract -->
<g id="edge26" class="edge"><title>\\Yetti\\API\\Item_Filter&#45;&gt;\\Yetti\\API\\BaseAbstract</title>
<path fill="none" stroke="black" d="M225.816,-605.075C214.565,-601.112 202.623,-596.362 192,-591 160.207,-574.953 126.937,-551.673 103.685,-534.184"/>
<polygon fill="none" stroke="black" points="105.67,-531.297 95.5927,-528.027 101.432,-536.868 105.67,-531.297"/>
</g>
<!-- \\Yetti\\API\\Item_List -->
<g id="node17" class="node"><title>\\Yetti\\API\\Item_List</title>
<a xlink:href="Item.List.html" xlink:title="Item_List" target="_parent">
<polygon fill="none" stroke="black" points="763.911,-636 688.089,-636 688.089,-600 763.911,-600 763.911,-636"/>
<text text-anchor="middle" x="726" y="-613.6" font-family="Courier,monospace" font-size="11.00">Item_List</text>
</a>
</g>
<!-- \\Yetti\\API\\Item_List&#45;&gt;\\Yetti\\API\\Resource_ListAbstract -->
<g id="edge28" class="edge"><title>\\Yetti\\API\\Item_List&#45;&gt;\\Yetti\\API\\Resource_ListAbstract</title>
<path fill="none" stroke="black" d="M688.108,-610.301C674.529,-606.183 659.639,-600.033 648,-591 602.427,-555.629 621.573,-518.371 576,-483 574.227,-481.624 572.378,-480.315 570.471,-479.069"/>
<polygon fill="none" stroke="black" points="572.179,-476.014 561.775,-474.009 568.658,-482.064 572.179,-476.014"/>
</g>
<!-- \\Yetti\\API\\Item_Type_List -->
<g id="node18" class="node"><title>\\Yetti\\API\\Item_Type_List</title>
<a xlink:href="Item.Type.List.html" xlink:title="Item_Type_List" target="_parent">
<polygon fill="none" stroke="black" points="552.416,-258 443.584,-258 443.584,-222 552.416,-222 552.416,-258"/>
<text text-anchor="middle" x="498" y="-235.6" font-family="Courier,monospace" font-size="11.00">Item_Type_List</text>
</a>
</g>
<!-- \\Yetti\\API\\Item_Type_List&#45;&gt;\\Yetti\\API\\ListAbstract -->
<g id="edge30" class="edge"><title>\\Yetti\\API\\Item_Type_List&#45;&gt;\\Yetti\\API\\ListAbstract</title>
<path fill="none" stroke="black" d="M443.727,-240C409.045,-240 363.829,-240 328.359,-240"/>
<polygon fill="none" stroke="black" points="328.16,-236.5 318.16,-240 328.16,-243.5 328.16,-236.5"/>
</g>
<!-- \\Yetti\\API\\Item_Type -->
<g id="node19" class="node"><title>\\Yetti\\API\\Item_Type</title>
<a xlink:href="Item.Type.html" xlink:title="Item_Type" target="_parent">
<polygon fill="none" stroke="black" points="307.911,-582 232.089,-582 232.089,-546 307.911,-546 307.911,-582"/>
<text text-anchor="middle" x="270" y="-559.6" font-family="Courier,monospace" font-size="11.00">Item_Type</text>
</a>
</g>
<!-- \\Yetti\\API\\Item_Type&#45;&gt;\\Yetti\\API\\BaseAbstract -->
<g id="edge32" class="edge"><title>\\Yetti\\API\\Item_Type&#45;&gt;\\Yetti\\API\\BaseAbstract</title>
<path fill="none" stroke="black" d="M232.134,-553.843C203.392,-545.924 162.97,-534.788 130.058,-525.72"/>
<polygon fill="none" stroke="black" points="130.677,-522.26 120.107,-522.978 128.818,-529.009 130.677,-522.26"/>
</g>
<!-- \\Yetti\\API\\Item_Variation -->
<g id="node20" class="node"><title>\\Yetti\\API\\Item_Variation</title>
<a xlink:href="Item.Variation.html" xlink:title="Item_Variation" target="_parent">
<polygon fill="none" stroke="black" points="780.416,-420 671.584,-420 671.584,-384 780.416,-384 780.416,-420"/>
<text text-anchor="middle" x="726" y="-397.6" font-family="Courier,monospace" font-size="11.00">Item_Variation</text>
</a>
</g>
<!-- \\Yetti\\API\\Item -->
<g id="node21" class="node"><title>\\Yetti\\API\\Item</title>
<a xlink:href="Item.html" xlink:title="Item" target="_parent">
<polygon fill="none" stroke="black" points="525,-744 471,-744 471,-708 525,-708 525,-744"/>
<text text-anchor="middle" x="498" y="-721.6" font-family="Courier,monospace" font-size="11.00">Item</text>
</a>
</g>
<!-- \\Yetti\\API\\Item&#45;&gt;\\Yetti\\API\\Resource_BaseAbstract -->
<g id="edge34" class="edge"><title>\\Yetti\\API\\Item&#45;&gt;\\Yetti\\API\\Resource_BaseAbstract</title>
<path fill="none" stroke="black" d="M470.763,-723.455C453.825,-720.405 432.663,-713.707 420,-699 308.409,-569.403 459.591,-450.597 348,-321 347.373,-320.272 346.726,-319.564 346.059,-318.874"/>
<polygon fill="none" stroke="black" points="348.121,-316.033 338.246,-312.196 343.573,-321.354 348.121,-316.033"/>
</g>
<!-- \\Yetti\\API\\Language_List -->
<g id="node22" class="node"><title>\\Yetti\\API\\Language_List</title>
<a xlink:href="Language.List.html" xlink:title="Language_List" target="_parent">
<polygon fill="none" stroke="black" points="548.814,-582 447.186,-582 447.186,-546 548.814,-546 548.814,-582"/>
<text text-anchor="middle" x="498" y="-559.6" font-family="Courier,monospace" font-size="11.00">Language_List</text>
</a>
</g>
<!-- \\Yetti\\API\\Language_List&#45;&gt;\\Yetti\\API\\ListAbstract -->
<g id="edge36" class="edge"><title>\\Yetti\\API\\Language_List&#45;&gt;\\Yetti\\API\\ListAbstract</title>
<path fill="none" stroke="black" d="M447.18,-554.441C437.074,-550.488 427.316,-544.899 420,-537 335.611,-445.882 432.389,-358.118 348,-267 342.258,-260.8 335.01,-256.023 327.271,-252.343"/>
<polygon fill="none" stroke="black" points="328.598,-249.105 318.021,-248.507 325.917,-255.571 328.598,-249.105"/>
</g>
<!-- \\Yetti\\API\\Language -->
<g id="node23" class="node"><title>\\Yetti\\API\\Language</title>
<a xlink:href="Language.html" xlink:title="Language" target="_parent">
<polygon fill="none" stroke="black" points="304.309,-528 235.691,-528 235.691,-492 304.309,-492 304.309,-528"/>
<text text-anchor="middle" x="270" y="-505.6" font-family="Courier,monospace" font-size="11.00">Language</text>
</a>
</g>
<!-- \\Yetti\\API\\Language&#45;&gt;\\Yetti\\API\\BaseAbstract -->
<g id="edge38" class="edge"><title>\\Yetti\\API\\Language&#45;&gt;\\Yetti\\API\\BaseAbstract</title>
<path fill="none" stroke="black" d="M235.306,-510C206.541,-510 164.542,-510 130.474,-510"/>
<polygon fill="none" stroke="black" points="130.179,-506.5 120.179,-510 130.179,-513.5 130.179,-506.5"/>
</g>
<!-- \\Yetti\\API\\ListAbstract&#45;&gt;\\Yetti\\API\\BaseAbstract -->
<g id="edge40" class="edge"><title>\\Yetti\\API\\ListAbstract&#45;&gt;\\Yetti\\API\\BaseAbstract</title>
<path fill="none" stroke="black" d="M221.873,-250.065C211.169,-254.014 200.473,-259.473 192,-267 125.115,-326.416 91.8859,-431.92 79.2547,-482.052"/>
<polygon fill="none" stroke="black" points="75.8286,-481.329 76.8672,-491.872 82.6305,-482.982 75.8286,-481.329"/>
</g>
<!-- \\Yetti\\API\\ListIterator -->
<g id="node25" class="node"><title>\\Yetti\\API\\ListIterator</title>
<a xlink:href="ListIterator.html" xlink:title="ListIterator" target="_parent">
<polygon fill="none" stroke="black" points="773.713,-258 678.287,-258 678.287,-222 773.713,-222 773.713,-258"/>
<text text-anchor="middle" x="726" y="-235.6" font-family="Courier,monospace" font-size="11.00">ListIterator</text>
</a>
</g>
<!-- \\Iterator -->
<g id="node69" class="node"><title>\\Iterator</title>
<ellipse fill="none" stroke="black" cx="498" cy="-126" rx="44.6347" ry="18"/>
<text text-anchor="middle" x="498" y="-120.4" font-family="Times,serif" font-size="14.00" fill="gray">\\Iterator</text>
</g>
<!-- \\Yetti\\API\\ListIterator&#45;&gt;\\Iterator -->
<g id="edge62" class="edge"><title>\\Yetti\\API\\ListIterator&#45;&gt;\\Iterator</title>
<path fill="none" stroke="black" stroke-dasharray="1,5" d="M678.316,-226.43C668.048,-222.684 657.43,-218.194 648,-213 612.25,-193.309 611.407,-176.3 576,-156 565.796,-150.15 554.23,-144.97 543.222,-140.631"/>
<polygon fill="none" stroke="black" points="544.331,-137.308 533.74,-137.038 541.851,-143.854 544.331,-137.308"/>
</g>
<!-- \\Countable -->
<g id="node71" class="node"><title>\\Countable</title>
<ellipse fill="none" stroke="black" cx="498" cy="-72" rx="56.1921" ry="18"/>
<text text-anchor="middle" x="498" y="-66.4" font-family="Times,serif" font-size="14.00" fill="gray">\\Countable</text>
</g>
<!-- \\Yetti\\API\\ListIterator&#45;&gt;\\Countable -->
<g id="edge64" class="edge"><title>\\Yetti\\API\\ListIterator&#45;&gt;\\Countable</title>
<path fill="none" stroke="black" stroke-dasharray="1,5" d="M678.029,-229.123C667.44,-225.21 656.755,-219.97 648,-213 601.117,-175.676 622.883,-136.324 576,-99 569.388,-93.7364 561.677,-89.4598 553.737,-85.996"/>
<polygon fill="none" stroke="black" points="554.95,-82.7121 544.364,-82.2927 552.378,-89.2224 554.95,-82.7121"/>
</g>
<!-- \\ArrayAccess -->
<g id="node73" class="node"><title>\\ArrayAccess</title>
<ellipse fill="none" stroke="black" cx="498" cy="-18" rx="66.044" ry="18"/>
<text text-anchor="middle" x="498" y="-12.4" font-family="Times,serif" font-size="14.00" fill="gray">\\ArrayAccess</text>
</g>
<!-- \\Yetti\\API\\ListIterator&#45;&gt;\\ArrayAccess -->
<g id="edge66" class="edge"><title>\\Yetti\\API\\ListIterator&#45;&gt;\\ArrayAccess</title>
<path fill="none" stroke="black" stroke-dasharray="1,5" d="M678.001,-230.382C667.17,-226.415 656.383,-220.835 648,-213 588.649,-157.533 635.351,-100.467 576,-45 571.063,-40.3859 565.292,-36.5539 559.17,-33.3727"/>
<polygon fill="none" stroke="black" points="560.552,-30.1563 550.004,-29.1623 557.63,-36.5172 560.552,-30.1563"/>
</g>
<!-- \\Yetti\\API\\Oauth_Access_Token -->
<g id="node26" class="node"><title>\\Yetti\\API\\Oauth_Access_Token</title>
<a xlink:href="Oauth.Access.Token.html" xlink:title="Oauth_Access_Token" target="_parent">
<polygon fill="none" stroke="black" points="337.319,-474 202.681,-474 202.681,-438 337.319,-438 337.319,-474"/>
<text text-anchor="middle" x="270" y="-451.6" font-family="Courier,monospace" font-size="11.00">Oauth_Access_Token</text>
</a>
</g>
<!-- \\Yetti\\API\\Oauth_Access_Token&#45;&gt;\\Yetti\\API\\BaseAbstract -->
<g id="edge42" class="edge"><title>\\Yetti\\API\\Oauth_Access_Token&#45;&gt;\\Yetti\\API\\BaseAbstract</title>
<path fill="none" stroke="black" d="M203.462,-474.056C179.712,-480.6 153.094,-487.933 130.125,-494.261"/>
<polygon fill="none" stroke="black" points="128.9,-490.968 120.189,-496.999 130.759,-497.717 128.9,-490.968"/>
</g>
<!-- \\Yetti\\API\\Resource_Asset_Group -->
<g id="node27" class="node"><title>\\Yetti\\API\\Resource_Asset_Group</title>
<a xlink:href="Resource.Asset.Group.html" xlink:title="Resource_Asset_Group" target="_parent">
<polygon fill="none" stroke="black" points="572.021,-528 423.979,-528 423.979,-492 572.021,-492 572.021,-528"/>
<text text-anchor="middle" x="498" y="-505.6" font-family="Courier,monospace" font-size="11.00">Resource_Asset_Group</text>
</a>
</g>
<!-- \\Yetti\\API\\Resource_Asset_Group&#45;&gt;\\Yetti\\API\\ListAbstract -->
<g id="edge44" class="edge"><title>\\Yetti\\API\\Resource_Asset_Group&#45;&gt;\\Yetti\\API\\ListAbstract</title>
<path fill="none" stroke="black" d="M430.975,-491.813C426.994,-489.252 423.28,-486.331 420,-483 349.003,-410.893 418.997,-339.107 348,-267 342.206,-261.115 335.058,-256.511 327.472,-252.908"/>
<polygon fill="none" stroke="black" points="328.642,-249.604 318.065,-248.992 325.952,-256.067 328.642,-249.604"/>
</g>
<!-- \\Yetti\\API\\Resource_Asset -->
<g id="node28" class="node"><title>\\Yetti\\API\\Resource_Asset</title>
<a xlink:href="Resource.Asset.html" xlink:title="Resource_Asset" target="_parent">
<polygon fill="none" stroke="black" points="324.416,-420 215.584,-420 215.584,-384 324.416,-384 324.416,-420"/>
<text text-anchor="middle" x="270" y="-397.6" font-family="Courier,monospace" font-size="11.00">Resource_Asset</text>
</a>
</g>
<!-- \\Yetti\\API\\Resource_Asset&#45;&gt;\\Yetti\\API\\BaseAbstract -->
<g id="edge46" class="edge"><title>\\Yetti\\API\\Resource_Asset&#45;&gt;\\Yetti\\API\\BaseAbstract</title>
<path fill="none" stroke="black" d="M215.64,-418.668C207.573,-421.77 199.461,-425.234 192,-429 160.207,-445.047 126.937,-468.327 103.685,-485.816"/>
<polygon fill="none" stroke="black" points="101.432,-483.132 95.5927,-491.973 105.67,-488.703 101.432,-483.132"/>
</g>
<!-- \\Yetti\\API\\Resource_BaseAbstract&#45;&gt;\\Yetti\\API\\BaseAbstract -->
<g id="edge48" class="edge"><title>\\Yetti\\API\\Resource_BaseAbstract&#45;&gt;\\Yetti\\API\\BaseAbstract</title>
<path fill="none" stroke="black" d="M205.743,-312.092C200.865,-314.69 196.209,-317.644 192,-321 136.962,-364.879 100.142,-441.564 83.3786,-482.465"/>
<polygon fill="none" stroke="black" points="80.1034,-481.229 79.642,-491.814 86.6035,-483.827 80.1034,-481.229"/>
</g>
<!-- \\Yetti\\API\\Resource_ListAbstract&#45;&gt;\\Yetti\\API\\ListAbstract -->
<g id="edge50" class="edge"><title>\\Yetti\\API\\Resource_ListAbstract&#45;&gt;\\Yetti\\API\\ListAbstract</title>
<path fill="none" stroke="black" d="M432.074,-437.891C427.733,-435.308 423.645,-432.361 420,-429 362.077,-375.587 405.923,-320.413 348,-267 342.142,-261.598 335.141,-257.267 327.782,-253.796"/>
<polygon fill="none" stroke="black" points="328.904,-250.471 318.328,-249.844 326.204,-256.93 328.904,-250.471"/>
</g>
<!-- \\Yetti\\API\\Resource_Property -->
<g id="node31" class="node"><title>\\Yetti\\API\\Resource_Property</title>
<a xlink:href="Resource.Property.html" xlink:title="Resource_Property" target="_parent">
<polygon fill="none" stroke="black" points="334.218,-366 205.782,-366 205.782,-330 334.218,-330 334.218,-366"/>
<text text-anchor="middle" x="270" y="-343.6" font-family="Courier,monospace" font-size="11.00">Resource_Property</text>
</a>
</g>
<!-- \\Yetti\\API\\Resource_Property&#45;&gt;\\Yetti\\API\\BaseAbstract -->
<g id="edge52" class="edge"><title>\\Yetti\\API\\Resource_Property&#45;&gt;\\Yetti\\API\\BaseAbstract</title>
<path fill="none" stroke="black" d="M207.883,-366.09C202.323,-368.716 196.935,-371.676 192,-375 148.604,-404.231 111.06,-452.99 90.2822,-483.219"/>
<polygon fill="none" stroke="black" points="87.3238,-481.345 84.6298,-491.592 93.1257,-485.262 87.3238,-481.345"/>
</g>
<!-- \\Yetti\\API\\Result -->
<g id="node32" class="node"><title>\\Yetti\\API\\Result</title>
<a xlink:href="Result.html" xlink:title="Result" target="_parent">
<polygon fill="none" stroke="black" points="753.608,-312 698.392,-312 698.392,-276 753.608,-276 753.608,-312"/>
<text text-anchor="middle" x="726" y="-289.6" font-family="Courier,monospace" font-size="11.00">Result</text>
</a>
</g>
<!-- \\Yetti\\API\\User_List -->
<g id="node33" class="node"><title>\\Yetti\\API\\User_List</title>
<a xlink:href="User.List.html" xlink:title="User_List" target="_parent">
<polygon fill="none" stroke="black" points="763.911,-582 688.089,-582 688.089,-546 763.911,-546 763.911,-582"/>
<text text-anchor="middle" x="726" y="-559.6" font-family="Courier,monospace" font-size="11.00">User_List</text>
</a>
</g>
<!-- \\Yetti\\API\\User_List&#45;&gt;\\Yetti\\API\\Resource_ListAbstract -->
<g id="edge54" class="edge"><title>\\Yetti\\API\\User_List&#45;&gt;\\Yetti\\API\\Resource_ListAbstract</title>
<path fill="none" stroke="black" d="M687.99,-553.573C674.98,-549.251 660.497,-543.672 648,-537 612.714,-518.162 611.286,-501.838 576,-483 572.907,-481.349 569.692,-479.764 566.409,-478.25"/>
<polygon fill="none" stroke="black" points="567.581,-474.943 557.014,-474.166 564.79,-481.362 567.581,-474.943"/>
</g>
<!-- \\Yetti\\API\\User -->
<g id="node34" class="node"><title>\\Yetti\\API\\User</title>
<a xlink:href="User.html" xlink:title="User" target="_parent">
<polygon fill="none" stroke="black" points="525,-690 471,-690 471,-654 525,-654 525,-690"/>
<text text-anchor="middle" x="498" y="-667.6" font-family="Courier,monospace" font-size="11.00">User</text>
</a>
</g>
<!-- \\Yetti\\API\\User&#45;&gt;\\Yetti\\API\\Resource_BaseAbstract -->
<g id="edge56" class="edge"><title>\\Yetti\\API\\User&#45;&gt;\\Yetti\\API\\Resource_BaseAbstract</title>
<path fill="none" stroke="black" d="M470.907,-669.329C454.032,-666.224 432.886,-659.512 420,-645 322.057,-534.695 445.943,-431.305 348,-321 347.248,-320.153 346.467,-319.332 345.661,-318.537"/>
<polygon fill="none" stroke="black" points="347.725,-315.703 337.778,-312.054 343.279,-321.109 347.725,-315.703"/>
</g>
<!-- \\Yetti\\API\\VAT_List -->
<g id="node35" class="node"><title>\\Yetti\\API\\VAT_List</title>
<a xlink:href="VAT.List.html" xlink:title="VAT_List" target="_parent">
<polygon fill="none" stroke="black" points="532.309,-420 463.691,-420 463.691,-384 532.309,-384 532.309,-420"/>
<text text-anchor="middle" x="498" y="-397.6" font-family="Courier,monospace" font-size="11.00">VAT_List</text>
</a>
</g>
<!-- \\Yetti\\API\\VAT_List&#45;&gt;\\Yetti\\API\\ListAbstract -->
<g id="edge58" class="edge"><title>\\Yetti\\API\\VAT_List&#45;&gt;\\Yetti\\API\\ListAbstract</title>
<path fill="none" stroke="black" d="M463.601,-395.325C449.13,-391.226 432.646,-384.815 420,-375 374.427,-339.629 393.573,-302.371 348,-267 341.863,-262.236 334.821,-258.275 327.544,-254.99"/>
<polygon fill="none" stroke="black" points="328.831,-251.735 318.251,-251.182 326.177,-258.212 328.831,-251.735"/>
</g>
<!-- \\Yetti\\API\\VAT -->
<g id="node36" class="node"><title>\\Yetti\\API\\VAT</title>
<a xlink:href="VAT.html" xlink:title="VAT" target="_parent">
<polygon fill="none" stroke="black" points="297,-204 243,-204 243,-168 297,-168 297,-204"/>
<text text-anchor="middle" x="270" y="-181.6" font-family="Courier,monospace" font-size="11.00">VAT</text>
</a>
</g>
<!-- \\Yetti\\API\\VAT&#45;&gt;\\Yetti\\API\\BaseAbstract -->
<g id="edge60" class="edge"><title>\\Yetti\\API\\VAT&#45;&gt;\\Yetti\\API\\BaseAbstract</title>
<path fill="none" stroke="black" d="M242.915,-189.531C226.473,-192.991 205.816,-199.777 192,-213 113.044,-288.569 85.1612,-423.416 76.4842,-481.783"/>
<polygon fill="none" stroke="black" points="73.0079,-481.37 75.0795,-491.76 79.9396,-482.346 73.0079,-481.37"/>
</g>
<!-- \\Yetti\\API\\Webservice -->
<g id="node37" class="node"><title>\\Yetti\\API\\Webservice</title>
<a xlink:href="Webservice.html" xlink:title="Webservice" target="_parent">
<polygon fill="none" stroke="black" points="767.011,-204 684.989,-204 684.989,-168 767.011,-168 767.011,-204"/>
<text text-anchor="middle" x="726" y="-181.6" font-family="Courier,monospace" font-size="11.00">Webservice</text>
</a>
</g>
</g>
</svg>
